<svg width="28" height="28" fill="none" xmlns="http://www.w3.org/2000/svg"><g clip-path="url(#clip0_56:487)" fill="#fff"><path d="M8.252 10.552a2.301 2.301 0 01-2.299-2.3 2.301 2.301 0 012.299-2.298 2.301 2.301 0 012.299 2.299 2.301 2.301 0 01-2.299 2.299zm0-3.449c-.633 0-1.15.516-1.15 1.15 0 .633.517 1.15 1.15 1.15.633 0 1.15-.517 1.15-1.15 0-.634-.517-1.15-1.15-1.15zm2.3 16.092a2.301 2.301 0 01-2.3-2.299 2.301 2.301 0 012.3-2.298 2.301 2.301 0 012.299 2.299 2.301 2.301 0 01-2.3 2.298zm0-3.448c-.634 0-1.15.516-1.15 1.15a1.151 1.151 0 002.3-.001c0-.633-.517-1.149-1.15-1.149zm10.344-2.299a2.301 2.301 0 01-2.298-2.299 2.301 2.301 0 012.299-2.298 2.301 2.301 0 012.298 2.298 2.301 2.301 0 01-2.299 2.3zm0-3.448c-.633 0-1.149.516-1.149 1.15 0 .633.516 1.149 1.15 1.149a1.151 1.151 0 00-.001-2.3z"/><path d="M14 27.793C6.394 27.793.207 21.606.207 14 .207 6.394 6.394.207 14 .207c.777 0 1.564.069 2.34.203a.577.577 0 01.41.834 3.899 3.899 0 00-.45 1.836 4.027 4.027 0 004.023 4.023c.314 0 .643-.05 1.005-.15a.573.573 0 01.73.553c0 .018-.007.123-.008.142a2.879 2.879 0 002.87 2.904 2.79 2.79 0 001.536-.447.573.573 0 01.87.333A13.87 13.87 0 0127.793 14c0 7.606-6.188 13.793-13.793 13.793zm0-26.437C7.028 1.356 1.356 7.03 1.356 14S7.028 26.644 14 26.644c6.97 0 12.643-5.673 12.643-12.644 0-.86-.088-1.722-.264-2.57a4.03 4.03 0 01-5.448-3.22c-.207.029-.41.043-.61.043A5.179 5.179 0 0115.15 3.08c0-.569.09-1.118.269-1.642A12.53 12.53 0 0014 1.356z"/><path d="M5.378 15.15a.577.577 0 01-.407-.168l-1.15-1.15a.575.575 0 01.813-.813l1.15 1.15a.575.575 0 01-.406.98zm10.345 2.298a.577.577 0 01-.407-.168l-1.15-1.15a.575.575 0 01.813-.812l1.15 1.15a.575.575 0 01-.407.98zm1.151 4.598a.575.575 0 01-.407-.98l1.15-1.15a.575.575 0 01.813.813l-1.15 1.149a.573.573 0 01-.406.168zm-2.301-10.345a.575.575 0 01-.407-.98l1.15-1.15a.575.575 0 01.812.813l-1.15 1.15a.573.573 0 01-.405.167zM9.978 15.15a.575.575 0 01-.407-.98l1.15-1.15a.575.575 0 01.812.812l-1.15 1.15a.573.573 0 01-.405.167z"/></g><defs><clipPath id="clip0_56:487"><path fill="#fff" transform="translate(.207 .207)" d="M0 0h27.586v27.586H0z"/></clipPath></defs></svg>