<svg width="17" height="19" fill="none" xmlns="http://www.w3.org/2000/svg"><path d="M10.19 18C9.12 16.43 8 14.36 8 12.5c0-1.83.96-3.5 2.4-4.5H10V6h2v1.23c.5-.14 1-.23 1.5-.23.17 0 .34 0 .5.03V0H0v18h6v-3.5h2V18h2.19zM10 2h2v2h-2V2zM4 16H2v-2h2v2zm0-4H2v-2h2v2zm0-4H2V6h2v2zm0-4H2V2h2v2zm2-2h2v2H6V2zm0 4h2v2H6V6zm0 6v-2h2v2H6zm7.5-3c-1.9 0-3.5 1.61-3.5 3.5 0 2.61 3.5 6.5 3.5 6.5s3.5-3.89 3.5-6.5c0-1.89-1.6-3.5-3.5-3.5zm0 4.81c-.7 0-1.2-.6-1.2-1.2 0-.7.6-1.2 1.2-1.2s1.2.59 1.2 1.2c.1.6-.5 1.2-1.2 1.2z" fill="red"/></svg>