<svg width="18" height="18" fill="none" xmlns="http://www.w3.org/2000/svg"><path d="M17.67 14.1l-4.108-3.735a1.011 1.011 0 00-1.405.044l-2.418 2.486c-.582-.11-1.752-.476-2.957-1.677-1.204-1.205-1.569-2.378-1.677-2.956l2.484-2.42a1.01 1.01 0 00.044-1.405L3.899.331A1.01 1.01 0 002.494.243L.301 2.123a1.01 1.01 0 00-.293.656c-.015.253-.304 6.237 4.336 10.878C8.392 17.704 13.462 18 14.858 18c.204 0 .33-.006.363-.008.247-.014.48-.119.655-.294l1.88-2.194a1.007 1.007 0 00-.087-1.404z" fill="red"/></svg>