<svg width="40" height="40" fill="none" xmlns="http://www.w3.org/2000/svg"><path d="M2.5 13.125H1.25v-2.5A3.128 3.128 0 014.375 7.5h21.25V6.25h-1.25a.625.625 0 01-.442-1.067l3.75-3.75a.626.626 0 01.884 0l3.75 3.75a.625.625 0 01-.442 1.067h-1.25V7.5h2.5a3.129 3.129 0 013.125 3.125v12.5H35v-12.5a1.877 1.877 0 00-1.875-1.875h-2.5V20h-1.25V5.625A.625.625 0 0130 5h.366l-2.241-2.24L25.884 5h.366a.625.625 0 01.625.625v15h-1.25V8.75H4.375A1.877 1.877 0 002.5 10.625v2.5zM4.375 32.5h10.41l-1.5 5h-1.41v1.25h13.75V37.5h-1.41l-.804-2.68-1.197.36.696 2.32h-8.32l1.5-5h4.535v-1.25H4.375A1.877 1.877 0 012.5 29.375v-.625H20V27.5H2.5V14.375H1.25v15A3.128 3.128 0 004.375 32.5zm18.75-10.625v-10h-2.5V26.25H4.375V25h2.5v-5a.625.625 0 01.625-.625h3.75a.625.625 0 01.625.625v5h1.25v-9.375A.625.625 0 0113.75 15h3.75a.625.625 0 01.625.625V25h1.25V11.25a.625.625 0 01.625-.625h3.75a.625.625 0 01.625.625v10.625h-1.25zm-12.5-1.25h-2.5V25h2.5v-4.375zm6.25-4.375h-2.5V25h2.5v-8.75zM4.375 10v1.25h1.25V10h-1.25zm3.75 0h-1.25v1.25h1.25V10zm1.25 0v1.25h1.25V10h-1.25zM38.2 35.55a1.872 1.872 0 01-1.325 3.2 1.914 1.914 0 01-1.325-.55l-2.992-2.99a7.505 7.505 0 112.651-2.652L38.2 35.55zm-3.2-6.8A6.25 6.25 0 1028.75 35 6.257 6.257 0 0035 28.75zm2.317 7.684l-2.843-2.843a7.67 7.67 0 01-.883.883l2.842 2.843a.624.624 0 10.883-.883zM33.75 28.75a5 5 0 11-9.998 0 5 5 0 019.998 0zm-1.25 0a3.75 3.75 0 10-7.499 0 3.75 3.75 0 007.499 0zm-6.25 0h1.25a1.251 1.251 0 011.25-1.25v-1.25a2.503 2.503 0 00-2.5 2.5zM34.375 5h1.25a3.754 3.754 0 00-3.75-3.75V2.5a2.503 2.503 0 012.5 2.5z" fill="#fff"/></svg>