<svg width="40" height="40" fill="none" xmlns="http://www.w3.org/2000/svg"><g clip-path="url(#clip0_22:346)" fill="#fff"><path d="M34.284 5.321a.947.947 0 100 1.894.947.947 0 000-1.894zm-3.235 1.894a.947.947 0 100-1.894.947.947 0 000 1.894zm-3.236 0a.947.947 0 100-1.894.947.947 0 000 1.894z"/><path d="M40 4.611c0-1.193-.97-2.164-2.164-2.164H2.164C.971 2.447 0 3.417 0 4.61v25.675a.586.586 0 101.172 0V10.09h37.656v3.098a.586.586 0 001.172 0V4.61zM1.172 8.918V4.611c0-.547.445-.992.992-.992h35.672c.547 0 .992.445.992.992v4.307H1.172zm38.242 6.418a.586.586 0 00-.586.586V35.39a.993.993 0 01-.992.993H2.164a.993.993 0 01-.992-.993v-2.368a.586.586 0 10-1.172 0v2.368c0 1.194.97 2.164 2.164 2.164h35.672c1.193 0 2.164-.97 2.164-2.164V15.922a.586.586 0 00-.586-.586z"/><path d="M20.497 22.65h-7.205a.586.586 0 00-.586.586v11.207c0 .323.262.586.586.586h20.203a.586.586 0 00.586-.586v-6.875a4.143 4.143 0 003.551-4.095 4.142 4.142 0 00-4.137-4.138c-2 0-3.672 1.427-4.055 3.315h-6.208a.586.586 0 100 1.172h6.142a4.144 4.144 0 003.535 3.746v6.288H13.878V23.822h6.62a.586.586 0 000-1.172zm10.032.823a2.969 2.969 0 012.966-2.966 2.969 2.969 0 012.965 2.966 2.969 2.969 0 01-2.96 2.965h-.01a2.969 2.969 0 01-2.96-2.965z"/><path d="M18.834 25.85a.718.718 0 00-.666-.447.718.718 0 00-.667.448l-.005.013-2.226 5.845a.586.586 0 101.095.417l.41-1.078h2.768l.407 1.076a.586.586 0 101.096-.414l-2.206-5.844a.443.443 0 00-.006-.016zm-1.612 4.026l.944-2.479.935 2.479h-1.879zm12.631 1.446c-.334 0-.655-.133-.858-.357a.586.586 0 10-.869.787 2.324 2.324 0 001.727.742c.841 0 1.549-.541 1.682-1.287.1-.566-.15-1.303-1.157-1.675-.434-.16-.84-.334-.986-.397a.135.135 0 01-.036-.12c.013-.09.09-.162.21-.198.456-.137.893.202.908.214a.586.586 0 00.75-.9c-.337-.284-1.137-.695-1.997-.436-.558.168-.953.61-1.031 1.153a1.3 1.3 0 00.58 1.287.597.597 0 00.082.044c.021.01.536.24 1.115.453.215.08.435.218.408.369-.023.13-.207.321-.528.321zm-4.248.786a.586.586 0 001.136-.2v-5.573a.586.586 0 00-1.172 0v1.613a2.44 2.44 0 00-1.282-.363 2.457 2.457 0 00-2.455 2.454 2.457 2.457 0 002.455 2.455 2.44 2.44 0 001.318-.386zm-2.601-2.068a1.284 1.284 0 012.565-.001c0 .708-.575 1.283-1.282 1.283a1.284 1.284 0 01-1.283-1.282zm10.491-5.739l.311.312a.584.584 0 00.829 0 .586.586 0 000-.83l-.311-.31.31-.311a.586.586 0 10-.828-.83l-.311.312-.311-.311a.586.586 0 10-.829.829l.311.31-.31.312a.586.586 0 10.828.828l.31-.31zM31.76 11.443H8.24a.586.586 0 00-.586.586v2.526c0 .323.263.586.586.586h23.52a.586.586 0 00.586-.586v-2.526a.586.586 0 00-.586-.586zm-.587 2.526H8.827v-1.354h22.346v1.354zM8.636 17.6a.586.586 0 000 1.171H23.63a.586.586 0 100-1.172H8.636z"/></g><defs><clipPath id="clip0_22:346"><path fill="#fff" d="M0 0h40v40H0z"/></clipPath></defs></svg>