<svg width="40" height="40" fill="none" xmlns="http://www.w3.org/2000/svg"><g clip-path="url(#clip0_22:380)"><path d="M34.817 14.673c.375 0 .736-.148 1.002-.415l3.928-3.927a.864.864 0 00-.557-1.472l-2.09-.131 1.364-1.364a.586.586 0 10-.828-.828l-1.364 1.363-.131-2.09a.864.864 0 00-1.472-.556L30.742 9.18a1.418 1.418 0 00-.413 1.091l.135 2.151a18.44 18.44 0 00-11.976-4.397C8.27 8.025 0 16.293 0 26.512c0 4.612 1.708 9.03 4.809 12.438a.586.586 0 00.867-.789 17.273 17.273 0 01-4.504-11.649c0-9.548 7.768-17.315 17.316-17.315 4.474 0 8.684 1.714 11.834 4.653l-2.674 2.673a13.514 13.514 0 00-9.16-3.578c-7.481 0-13.567 6.087-13.567 13.567 0 2.153.52 4.298 1.502 6.202 2.277 4.413 6.864 7.365 12.065 7.365 6.408 0 11.982-4.527 13.284-10.808a.586.586 0 00-1.147-.238c-1.186 5.721-6.291 9.874-12.137 9.874a12.366 12.366 0 01-11.023-6.73 12.233 12.233 0 01-1.372-5.665c0-6.834 5.56-12.395 12.395-12.395 3.2 0 6.127 1.227 8.332 3.235l-2.65 2.65a8.61 8.61 0 00-5.682-2.136c-4.768 0-8.646 3.879-8.646 8.646 0 4.767 3.878 8.646 8.646 8.646 4.767 0 8.646-3.879 8.646-8.646a8.61 8.61 0 00-2.136-5.682l2.65-2.65a12.341 12.341 0 013.234 8.26.586.586 0 00.586.583h.003a.586.586 0 00.583-.59 13.51 13.51 0 00-3.577-9.082l2.674-2.673a17.278 17.278 0 014.652 11.834c0 9.548-7.768 17.316-17.315 17.316a17.355 17.355 0 01-10.89-3.853.586.586 0 00-.739.91A18.53 18.53 0 0018.488 45c10.218 0 18.487-8.269 18.487-18.488 0-4-1.257-7.809-3.636-11.012a18.938 18.938 0 00-.768-.965c2.297.144 2.174.138 2.246.138zm-8.855 11.84c0 4.12-3.353 7.473-7.474 7.473-4.122 0-7.474-3.353-7.474-7.474 0-4.12 3.352-7.474 7.474-7.474 1.85 0 3.545.676 4.851 1.794l-2.666 2.666a3.704 3.704 0 00-2.185-.71 3.73 3.73 0 00-3.726 3.724 3.73 3.73 0 003.726 3.725 3.73 3.73 0 003.725-3.725 3.71 3.71 0 00-.711-2.185l2.666-2.667a7.442 7.442 0 011.794 4.852zm-7.889.414c.23.228.6.228.829 0l1.756-1.757c.242.39.383.85.383 1.342a2.556 2.556 0 01-2.553 2.553 2.556 2.556 0 01-2.554-2.553 2.556 2.556 0 012.554-2.553c.492 0 .951.14 1.342.383l-1.757 1.756a.586.586 0 000 .829zM31.5 10.198a.246.246 0 01.071-.19l3.444-3.443.153 2.44-3.522 3.521-.146-2.328zm.975 3.157l3.522-3.522 2.438.153-3.443 3.443a.245.245 0 01-.19.072l-2.327-.146z" fill="#fff"/></g><defs><clipPath id="clip0_22:380"><path fill="#fff" d="M0 0h40v40H0z"/></clipPath></defs></svg>