<svg width="9" height="17" fill="none" xmlns="http://www.w3.org/2000/svg"><mask id="a" fill="#fff"><path d="M.934 16.8C.75 16.8.6 16.637.6 16.435c0-.097.035-.19.098-.259L7.795 8.4.698.624a.39.39 0 010-.517.313.313 0 01.472 0l7.332 8.035a.39.39 0 010 .516L1.17 16.693a.32.32 0 01-.236.107z"/></mask><path d="M.934 16.8C.75 16.8.6 16.637.6 16.435c0-.097.035-.19.098-.259L7.795 8.4.698.624a.39.39 0 010-.517.313.313 0 01.472 0l7.332 8.035a.39.39 0 010 .516L1.17 16.693a.32.32 0 01-.236.107z" fill="url(#paint0_linear_2:259)"/><path d="M.934 16.8v-1H.932l.002 1zM.6 16.435l-1 .002 1-.002zm.098-.259l.738.675-.738-.675zM7.795 8.4l.739.674.615-.674-.615-.674-.739.674zM.698.624l-.739.674.739-.674zM1.17.107L.43.781l.74-.674zm7.332 8.035l.74-.674-.74.674zm0 .516l.74.674-.74-.674zM1.17 16.693l-.739-.675v.002l.739.673zM.932 15.8c.453 0 .668.371.668.634l-2 .003c.001.666.515 1.365 1.336 1.363l-.004-2zm.668.634a.62.62 0 01-.164.417l-1.476-1.35c-.24.263-.36.6-.36.936l2-.003zm-.163.416l7.097-7.776-1.477-1.348-7.098 7.776 1.478 1.348zm7.097-9.124L1.437-.05-.041 1.298l7.098 7.776 1.477-1.348zM1.437-.05A.617.617 0 011.6.366a.617.617 0 01-.163.415L-.041-.567a1.39 1.39 0 000 1.865L1.437-.05zm0 .831a.687.687 0 01-1.006 0L1.91-.567a1.313 1.313 0 00-1.95 0L1.437.781zM.43.781l7.333 8.035L9.24 7.468 1.91-.567.43.781zm7.333 8.035A.618.618 0 017.6 8.4c0-.134.046-.287.164-.416L9.24 9.332a1.39 1.39 0 000-1.864L7.764 8.816zm0-.832L.43 16.018l1.478 1.349L9.24 9.332 7.764 7.984zM.43 16.02a.681.681 0 01.504-.22v2c.386 0 .734-.17.976-.434L.43 16.02z" fill="red" mask="url(#a)"/><defs><linearGradient id="paint0_linear_2:259" x1=".6" y1="7" x2="8.6" y2="6.998" gradientUnits="userSpaceOnUse"><stop stop-color="#F23801"/><stop offset=".943" stop-color="#F45223"/></linearGradient></defs></svg>