<svg width="32" height="32" fill="none" xmlns="http://www.w3.org/2000/svg"><g clip-path="url(#clip0_2:205)"><path d="M26.482 10.395l-1.298 1.297c2.335 2.335 2.335 5.968 0 8.433l1.298 1.297c3.243-2.984 3.243-7.914 0-11.027zm-2.725 2.724l-1.297 1.297a2.53 2.53 0 010 2.984l1.297 1.298c1.557-1.557 1.557-3.893 0-5.579zM18.568 1.703H5.595A2.602 2.602 0 003 4.297V27.65a2.602 2.602 0 002.595 2.595h12.973a2.602 2.602 0 002.595-2.595V4.297a2.602 2.602 0 00-2.595-2.594zm0 24.649H5.595V5.595h12.973v20.757z" fill="#FF4A19"/></g><defs><clipPath id="clip0_2:205"><path fill="#fff" transform="translate(.406 .406)" d="M0 0h31.135v31.135H0z"/></clipPath></defs></svg>