<svg width="9" height="17" fill="none" xmlns="http://www.w3.org/2000/svg"><mask id="a" fill="#fff"><path d="M8.066 16.8c.184 0 .334-.163.334-.365a.384.384 0 00-.098-.259L1.205 8.4 8.302.624a.39.39 0 000-.517.314.314 0 00-.472 0L.498 8.142a.39.39 0 000 .516l7.332 8.035a.32.32 0 00.236.107z"/></mask><path d="M8.066 16.8c.184 0 .334-.163.334-.365a.384.384 0 00-.098-.259L1.205 8.4 8.302.624a.39.39 0 000-.517.314.314 0 00-.472 0L.498 8.142a.39.39 0 000 .516l7.332 8.035a.32.32 0 00.236.107z" fill="url(#paint0_linear_2:262)"/><path d="M8.066 16.8v-1h.002l-.002 1zm.334-.365l1 .002-1-.002zm-.098-.259l-.738.675.738-.675zM1.205 8.4l-.739.674-.615-.674.615-.674.739.674zM8.302.624l.739.674-.739-.674zM7.83.107l.739.674L7.83.107zM.498 8.142l-.74-.674.74.674zm0 .516l-.74.674.74-.674zm7.332 8.035l.739-.675v.002l-.739.673zm.238-.893a.651.651 0 00-.668.634l2 .003c-.001.666-.515 1.365-1.336 1.363l.004-2zm-.668.634c0 .14.05.292.164.417l1.476-1.35c.24.263.36.6.36.936l-2-.003zm.163.416L.466 9.074l1.477-1.348 7.098 7.776-1.478 1.348zM.466 7.726L7.563-.05l1.478 1.348-7.098 7.776L.466 7.726zM7.563-.05A.617.617 0 007.4.366c0 .133.046.286.163.415L9.041-.567a1.39 1.39 0 010 1.865L7.563-.05zm0 .831a.687.687 0 001.006 0L7.09-.567a1.313 1.313 0 011.95 0L7.563.781zm1.006 0L1.236 8.816-.24 7.468 7.09-.567 8.57.781zM1.236 8.816A.618.618 0 001.4 8.4a.617.617 0 00-.164-.416L-.24 9.332a1.39 1.39 0 010-1.864l1.477 1.348zm0-.832l7.333 8.034-1.478 1.349L-.24 9.332l1.477-1.348zM8.57 16.02a.681.681 0 00-.504-.22v2a1.32 1.32 0 01-.976-.434l1.48-1.346z" fill="red" mask="url(#a)"/><defs><linearGradient id="paint0_linear_2:262" x1="8.4" y1="7" x2=".4" y2="6.998" gradientUnits="userSpaceOnUse"><stop stop-color="#F23801"/><stop offset=".943" stop-color="#F45223"/></linearGradient></defs></svg>