<svg width="658" height="626" fill="none" xmlns="http://www.w3.org/2000/svg"><path d="M45.403 570.987s45.312 44.408 152.55 33.594c107.238-10.814 120.594-24.133 187.491 5.597 9.528 4.233 19.791 6.988 30.1 9.029 12.069 2.389 24.367 3.78 36.681 4.545 13.22.828 26.497.927 39.733.422 13.131-.505 26.247-1.599 39.253-3.364 11.871-1.609 23.68-3.764 35.228-6.789 9.503-2.484 18.958-5.53 27.679-9.862 6.238-3.098 12.621-7.013 16.589-12.584 2.343-3.291 3.764-7.43 2.895-11.372-.714-3.238-3.119-6.305-4.759-9.216H45.403z" fill="#fff"/><path d="M45.403 570.987s45.312 44.408 152.55 33.594c107.238-10.814 120.594-24.133 187.491 5.597 9.528 4.233 19.791 6.988 30.1 9.029 12.069 2.389 24.367 3.78 36.681 4.545 13.22.828 26.497.927 39.733.422 13.131-.505 26.247-1.599 39.253-3.364 11.871-1.609 23.68-3.764 35.228-6.789 9.503-2.484 18.958-5.53 27.679-9.862 6.238-3.098 12.621-7.013 16.589-12.584 2.343-3.291 3.764-7.43 2.895-11.372-.714-3.238-3.119-6.305-4.759-9.216H45.403z" stroke="#1B1918" stroke-width="1.389" stroke-miterlimit="10" stroke-linecap="round" stroke-linejoin="round"/><path d="M348.44 570.503h303.582c.453-5.326 3.218-44.408-22.347-65.76-28.767-24.023-84.588-18.254-121.837 25.231-53.134 13.512-106.268 27.023-159.398 40.529v0z" stroke="#1B1918" stroke-width="2.084" stroke-miterlimit="10" stroke-linecap="round" stroke-linejoin="round"/><path d="M44.187 570.987h564.182c-8.32-16.572-23.196-41.502-48.474-65.382-15.074-14.236-68.047-62.737-148.251-63.234-55.269-.342-96.414 22.277-115.225 34.427-18.401-16.509-45.289-19.276-66.044-7.026-19.23 11.35-29.834 33.606-26.699 56.209-12.116-10.896-37.213-30.241-73.773-36.536-22.192-3.821-55.535-9.563-75.88 11.945-23.672 25.023-10.735 66.833-9.837 69.597z" fill="#fff"/><path d="M44.187 570.987h564.182c-8.32-16.572-23.196-41.502-48.474-65.382-15.074-14.236-68.047-62.737-148.251-63.234-55.269-.342-96.414 22.277-115.225 34.427-18.401-16.509-45.289-19.276-66.044-7.026-19.23 11.35-29.834 33.606-26.699 56.209-12.116-10.896-37.213-30.241-73.773-36.536-22.192-3.821-55.535-9.563-75.88 11.945-23.672 25.023-10.735 66.833-9.837 69.597z" stroke="#1B1918" stroke-width="1.389" stroke-miterlimit="10" stroke-linecap="round" stroke-linejoin="round"/><path d="M479.301 21.286v12.912h-369.39V21.286c0-8.003 6.485-14.485 14.488-14.485h340.406c8.008 0 14.496 6.482 14.496 14.485z" fill="#1D1316"/><path d="M479.301 21.286v12.912h-369.39V21.286c0-8.003 6.485-14.485 14.488-14.485h340.406c8.008 0 14.496 6.482 14.496 14.485z" stroke="#1B1918" stroke-width=".695" stroke-miterlimit="10" stroke-linecap="round" stroke-linejoin="round"/><path d="M479.301 34.198V209.41c0 8.003-6.488 14.488-14.496 14.488H124.399c-8.003 0-14.488-6.485-14.488-14.488V34.198h369.39z" fill="#fff"/><path d="M479.301 34.198V209.41c0 8.003-6.488 14.488-14.496 14.488H124.399c-8.003 0-14.488-6.485-14.488-14.488V34.198h369.39z" stroke="#1B1918" stroke-width="1.389" stroke-miterlimit="10" stroke-linecap="round" stroke-linejoin="round"/><path d="M492.473 15.23H89.358V1h403.115v14.23z" fill="#fff"/><path d="M492.473 15.23H89.358V1h403.115v14.23z" stroke="#1B1918" stroke-width="1.389" stroke-miterlimit="10" stroke-linecap="round" stroke-linejoin="round"/><path d="M109.909 63.71h369.392m-129.195 58.488H131.514V80.043h218.592v42.155zm0 86.947H131.514v-75.88h218.592v75.88zm26.732-172.838v276.407" stroke="#1B1918" stroke-width="1.389" stroke-miterlimit="10" stroke-linecap="round" stroke-linejoin="round" stroke-dasharray="8.34 8.34"/><path d="M383.044 69.505h-12.298V58.966h12.298v10.539z" fill="#1D1316"/><path d="M383.044 69.505h-12.298V58.966h12.298v10.539z" stroke="#1B1918" stroke-width=".695" stroke-miterlimit="10" stroke-linecap="round" stroke-linejoin="round"/><path d="M18.045 570.987H656" stroke="#1B1918" stroke-width="2.084" stroke-miterlimit="10" stroke-linecap="round" stroke-linejoin="round"/><path d="M537.991 552.462l6.305 18.041h6.149l7.201-18.041h-19.655z" fill="#1D1316"/><path d="M537.991 552.462l6.305 18.041h6.149l7.201-18.041h-19.655z" stroke="#1B1918" stroke-width=".695" stroke-miterlimit="10" stroke-linecap="round" stroke-linejoin="round"/><path d="M456.588 552.462l6.311 18.041h6.144l7.201-18.041h-19.656z" fill="#1D1316"/><path d="M456.588 552.462l6.311 18.041h6.144l7.201-18.041h-19.656z" stroke="#1B1918" stroke-width=".695" stroke-miterlimit="10" stroke-linecap="round" stroke-linejoin="round"/><path d="M504.241 444.977s51.291-10.36 71.665 10.015c20.374 20.374 16.865 63.885 14.756 74.592-2.109 10.705-4.566 24.096-26.346 25.341-21.785 1.249-83.609 7.466-116.104-4.967-21.254-22.79-25.003-92.529-25.003-92.529s13.819-19.331 43.794-15.086c29.98 4.246 37.238 2.634 37.238 2.634z" fill="#fff"/><path d="M504.241 444.977s51.291-10.36 71.665 10.015c20.374 20.374 16.865 63.885 14.756 74.592-2.109 10.705-4.566 24.096-26.346 25.341-21.785 1.249-83.609 7.466-116.104-4.967-21.254-22.79-25.003-92.529-25.003-92.529s13.819-19.331 43.794-15.086c29.98 4.246 37.238 2.634 37.238 2.634z" stroke="#1B1918" stroke-width="1.389" stroke-miterlimit="10" stroke-linecap="round" stroke-linejoin="round"/><path d="M514.374 444.492s14.813 5.345 15.864 13.534l-15.864-13.534z" fill="#fff"/><path d="M514.374 444.492s14.813 5.345 15.864 13.534" stroke="#1B1918" stroke-width="1.389" stroke-miterlimit="10" stroke-linecap="round" stroke-linejoin="round"/><path d="M481.055 448.949s-6.852 2.762-7.024 10.014l7.024-10.014z" fill="#fff"/><path d="M481.055 448.949s-6.852 2.762-7.024 10.014" stroke="#1B1918" stroke-width="1.389" stroke-miterlimit="10" stroke-linecap="round" stroke-linejoin="round"/><path d="M430.998 458.963c0 .518 15.459 11.492 36.707 6.216 21.249-5.276 33.901 2.59 37.416 5.353 3.509 2.762 45.49 7.77 56.909-1.209l11.418-8.978" fill="#fff"/><path d="M430.998 458.963c0 .518 15.459 11.492 36.707 6.216 21.249-5.276 33.901 2.59 37.416 5.353 3.509 2.762 45.49 7.77 56.909-1.209l11.418-8.978" stroke="#1B1918" stroke-width="1.389" stroke-miterlimit="10" stroke-linecap="round" stroke-linejoin="round"/><path d="M528.363 285.552l-14.99-7.259s-9.908-7.55-19.343-14.656a25.385 25.385 0 001.604-1.971c-8.409-7.012-11.163-17.475-12.038-23.422-3.394-3.534-1.603-10.418.531-15.573 4.832-.177 8.612-2.109 7.993-6.677-.615-4.563-5.176-5.357-6.847-4.041-1.671-1.843-.708-3.509.875-8.254-7.566-1.163-9.419-9.166-9.867-12.631l-.667-.364s-4.92-1.055-10.543 5.967a148.604 148.604 0 00-5.118 6.806c-2.192-2.503-5.421-7.884-.443-14.296 6.909-8.9 17.213-3.863 18.505-2.927 9.596-1.41 25.523.7 29.74 24.122 4.218 23.418 18.036 38.408 26.935 44.963 8.898 6.559 6.321 23.89-6.327 30.213z" fill="#1D1316"/><path d="M528.363 285.552l-14.99-7.259s-9.908-7.55-19.343-14.656a25.385 25.385 0 001.604-1.971c-8.409-7.012-11.163-17.475-12.038-23.422-3.394-3.534-1.603-10.418.531-15.573 4.832-.177 8.612-2.109 7.993-6.677-.615-4.563-5.176-5.357-6.847-4.041-1.671-1.843-.708-3.509.875-8.254-7.566-1.163-9.419-9.166-9.867-12.631l-.667-.364s-4.92-1.055-10.543 5.967a148.604 148.604 0 00-5.118 6.806c-2.192-2.503-5.421-7.884-.443-14.296 6.909-8.9 17.213-3.863 18.505-2.927 9.596-1.41 25.523.7 29.74 24.122 4.218 23.418 18.036 38.408 26.935 44.963 8.898 6.559 6.321 23.89-6.327 30.213v0z" stroke="#1B1918" stroke-width=".695" stroke-miterlimit="10" stroke-linecap="round" stroke-linejoin="round"/><path d="M448.211 272.379s-28.985 22.418-45.142 50.466c-3.165-20.782-14.053-69.612-17.567-67.855-7.727 7.025-13.699 5.62-14.756 9.133-1.052 3.513-1.052 85.014 13.704 89.581 14.756 4.567 67.099 2.108 67.099 2.108l5.331-21.429" fill="red"/><path d="M448.211 272.379s-28.985 22.418-45.142 50.466c-3.165-20.782-14.053-69.612-17.567-67.855-7.727 7.025-13.699 5.62-14.756 9.133-1.052 3.513-1.052 85.014 13.704 89.581 14.756 4.567 67.099 2.108 67.099 2.108l5.331-21.429" stroke="#1B1918" stroke-width="1.389" stroke-miterlimit="10" stroke-linecap="round" stroke-linejoin="round"/><path d="M372.084 265.21s-.088 2.431 5.228 1.845c5.316-.586 9.507-5.587 8.966-9.282-.542-3.695-4.103-4.416-6.581-3.605-2.479.811-8.831 5.141-7.613 11.042z" fill="#1D1316"/><path d="M372.084 265.21s-.088 2.431 5.228 1.845c5.316-.586 9.507-5.587 8.966-9.282-.542-3.695-4.103-4.416-6.581-3.605-2.479.811-8.831 5.141-7.613 11.042z" stroke="#1B1918" stroke-width=".695" stroke-miterlimit="10" stroke-linecap="round" stroke-linejoin="round"/><path d="M447.894 541.512c-1.203-2.244-2.083-3.728-2.083-3.728s-18.385 2.578-19.16 2.926c-.396.183-.089 2.114.177 4.275 6.685 3.119 15.505 1.062 21.066-3.473z" fill="#1D1316"/><path d="M447.894 541.512c-1.203-2.244-2.083-3.728-2.083-3.728s-18.385 2.578-19.16 2.926c-.396.183-.089 2.114.177 4.275 6.685 3.119 15.505 1.062 21.066-3.473z" stroke="#1B1918" stroke-width=".695" stroke-miterlimit="10" stroke-linecap="round" stroke-linejoin="round"/><path d="M447.893 541.512c-5.561 4.535-14.381 6.592-21.066 3.473.25 2.052.468 4.306.01 5.446-6.206 1.521-22.128 10.658-26.58 13.465-3.681 2.327-9.523 7.3 13.876 7.086 4.884-.047 40.69-4.977 40.456-11.887-.156-4.691-4.15-12.839-6.696-17.583z" fill="#fff"/><path d="M447.893 541.512c-5.561 4.535-14.381 6.592-21.066 3.473.25 2.052.468 4.306.01 5.446-6.206 1.521-22.128 10.658-26.58 13.465-3.681 2.327-9.523 7.3 13.876 7.086 4.884-.047 40.69-4.977 40.456-11.887-.156-4.691-4.15-12.839-6.696-17.583v0z" stroke="#1B1918" stroke-width="1.389" stroke-miterlimit="10" stroke-linecap="round" stroke-linejoin="round"/><path d="M316.292 545.303c6.306 3.436 13.099 4.925 19.824 4.649-.595-3.009-1.552-5.961-1.552-5.961s-10.304-4.098-15.457-3.749c-.235.979-1.505 2.609-3.44 4.478.156.208.357.406.625.583z" fill="#1D1316"/><path d="M316.292 545.303c6.306 3.436 13.099 4.925 19.824 4.649-.595-3.009-1.552-5.961-1.552-5.961s-10.304-4.098-15.457-3.749c-.235.979-1.505 2.609-3.44 4.478.156.208.357.406.625.583z" stroke="#1B1918" stroke-width=".695" stroke-miterlimit="10" stroke-linecap="round" stroke-linejoin="round"/><path d="M336.116 549.952c-6.725.276-13.518-1.213-19.824-4.649a2.47 2.47 0 01-.625-.583c-3.861 3.728-10.383 8.409-16.701 10.746-9.485 3.515-19.087 10.304-15.223 14.871 3.864 4.566 17.097 3.514 24.942 1.525 7.846-1.994 16.511-2.343 23.537-4.097 7.023-1.76 4.686-12.413 4.217-15.928a28.617 28.617 0 00-.323-1.885z" fill="#fff"/><path d="M336.116 549.952c-6.725.276-13.518-1.213-19.824-4.649a2.47 2.47 0 01-.625-.583c-3.861 3.728-10.383 8.409-16.701 10.746-9.485 3.515-19.087 10.304-15.223 14.871 3.864 4.566 17.097 3.514 24.942 1.525 7.846-1.994 16.511-2.343 23.537-4.097 7.023-1.76 4.686-12.413 4.217-15.928a28.617 28.617 0 00-.323-1.885v0z" stroke="#1B1918" stroke-width="1.389" stroke-miterlimit="10" stroke-linecap="round" stroke-linejoin="round"/><path d="M449.44 371.035s-61.126-4.918-84.078 25.762c-22.951 30.68-43.561 92.977-48.714 141.456-1.171 6.321 15.223 8.195 18.267 7.492 7.731-5.852 45.906-79.157 57.845-92.272 11.949-13.115 27.523-50.411 27.523-50.411l50.442-7.378-7.227-24.939" fill="#fff"/><path d="M449.44 371.035s-61.126-4.918-84.078 25.762c-22.951 30.68-43.561 92.977-48.714 141.456-1.171 6.321 15.223 8.195 18.267 7.492 7.731-5.852 45.906-79.157 57.845-92.272 11.949-13.115 27.523-50.411 27.523-50.411l50.442-7.378-7.227-24.939" stroke="#1B1918" stroke-width="1.389" stroke-miterlimit="10" stroke-linecap="round" stroke-linejoin="round"/><path d="M543.588 386.023s18.968 34.194-23.42 55.974c-42.393 21.78-102.348-19.907-102.348-19.907s33.729 67.918 30.392 116.043c-2.635 4.572-22.311 5.972-24.769 3.166-2.457-2.812-60.075-99.419-40.05-133.144 20.025-33.724 75.18-35.481 75.18-35.481l85.015 13.349z" fill="#fff"/><path d="M543.588 386.023s18.968 34.194-23.42 55.974c-42.393 21.78-102.348-19.907-102.348-19.907s33.729 67.918 30.392 116.043c-2.635 4.572-22.311 5.972-24.769 3.166-2.457-2.812-60.075-99.419-40.05-133.144 20.025-33.724 75.18-35.481 75.18-35.481l85.015 13.349z" stroke="#1B1918" stroke-width="1.389" stroke-miterlimit="10" stroke-linecap="round" stroke-linejoin="round"/><path d="M450.632 376.771s42.039 18.881 66.688 16.341c24.648-2.541 20.905-8.892 20.905-8.892l-87.593-13.937-4.977 3.753 4.977 2.735z" fill="#1D1316"/><path d="M450.632 376.771s42.039 18.881 66.688 16.341c24.648-2.541 20.905-8.892 20.905-8.892l-87.593-13.937-4.977 3.753 4.977 2.735z" stroke="#1B1918" stroke-width=".695" stroke-miterlimit="10" stroke-linecap="round" stroke-linejoin="round"/><path d="M443.816 280.985s-18.265 18.619-13.698 56.208c2.811 25.645 13.698 35.481 13.698 35.481s68.156 20.024 83.61 17.565c15.458-2.459 12.048-15.457 12.522-26.698.479-11.242-10.591-87.825-27.45-94.851-16.865-7.026-23.717-8.432-23.717-8.432l-27.048 7.729-12.804 4.742" fill="red"/><path d="M443.816 280.985s-18.265 18.619-13.698 56.208c2.811 25.645 13.698 35.481 13.698 35.481s68.156 20.024 83.61 17.565c15.458-2.459 12.048-15.457 12.522-26.698.479-11.242-10.591-87.825-27.45-94.851-16.865-7.026-23.717-8.432-23.717-8.432l-27.048 7.729-12.804 4.742" stroke="#1B1918" stroke-width="1.389" stroke-miterlimit="10" stroke-linecap="round" stroke-linejoin="round"/><path d="M494.691 260.841s25.356 3.809 44.855 31.035c19.5 27.225 19.848 81.501 6.853 94.85-13.002 13.349-49.36 26.874-75.003-20.727-2.812-10.363 3.863-18.091 8.43-17.74 6.321.351 23.711 3.864 36.009 18.619 8.253-1.757 13.933-10.487 8.31-44.033" fill="red"/><path d="M494.691 260.841s25.356 3.809 44.855 31.035c19.5 27.225 19.848 81.501 6.853 94.85-13.002 13.349-49.36 26.874-75.003-20.727-2.812-10.363 3.863-18.091 8.43-17.74 6.321.351 23.711 3.864 36.009 18.619 8.253-1.757 13.933-10.487 8.31-44.033" stroke="#1B1918" stroke-width="1.389" stroke-miterlimit="10" stroke-linecap="round" stroke-linejoin="round"/><path d="M481.847 350.455s-5.696-5.621-18.348-.44c-7.737 3.162-7.56 7.641-7.56 7.641l29.157.352s-1.228-5.358-3.249-7.553z" fill="#fff"/><path d="M481.847 350.455s-5.696-5.621-18.348-.44c-7.737 3.162-7.56 7.641-7.56 7.641l29.157.352s-1.228-5.358-3.249-7.553z" stroke="#1B1918" stroke-width="1.389" stroke-miterlimit="10" stroke-linecap="round" stroke-linejoin="round"/><path d="M368.643 349.328h74.94v7.173h-74.94v-7.173z" fill="#fff"/><path d="M368.643 349.328h74.94v7.173h-74.94v-7.173z" stroke="#1B1918" stroke-width="1.389" stroke-miterlimit="10" stroke-linecap="round" stroke-linejoin="round"/><path d="M376.838 356.474h-4.014l-22.717-55.232h4.014l22.717 55.232z" fill="#1D1316"/><path d="M376.838 356.474h-4.014l-22.717-55.232h4.014l22.717 55.232z" stroke="#1B1918" stroke-width=".695" stroke-miterlimit="10" stroke-linecap="round" stroke-linejoin="round"/><path d="M372.824 356.474h-89.227l-23.423-55.232h89.934l22.716 55.232z" fill="#fff"/><path d="M372.824 356.474h-89.227l-23.423-55.232h89.934l22.716 55.232z" stroke="#1B1918" stroke-width="1.389" stroke-miterlimit="10" stroke-linecap="round" stroke-linejoin="round"/><path d="M496.16 367.229H225.311v-10.728H496.16v10.728z" fill="#1D1316"/><path d="M496.16 367.229H225.311v-10.728H496.16v10.728z" stroke="#1B1918" stroke-width=".695" stroke-miterlimit="10" stroke-linecap="round" stroke-linejoin="round"/><path d="M384.274 257.624s3.16-15.984.437-19.936c-2.723-3.952-6.061-6.938-8.253-6.938-2.197 0-8.695 5.269-8.695 9.309 0 4.04-.526 12.028 1.406 14.884s4.212 6.457 4.212 8.917c0 2.459 8.872 2.195 10.893-6.236z" fill="#fff"/><path d="M384.274 257.624s3.16-15.984.437-19.936c-2.723-3.952-6.061-6.938-8.253-6.938-2.197 0-8.695 5.269-8.695 9.309 0 4.04-.526 12.028 1.406 14.884s4.212 6.457 4.212 8.917c0 2.459 8.872 2.195 10.893-6.236z" stroke="#1B1918" stroke-width="1.389" stroke-miterlimit="10" stroke-linecap="round" stroke-linejoin="round"/><path d="M380.587 240.515s3.15 13.686-1.431 14.533c-4.577.847-6.332-.594-6.332-.594" fill="#fff"/><path d="M380.587 240.515s3.15 13.686-1.431 14.533c-4.577.847-6.332-.594-6.332-.594" stroke="#1B1918" stroke-width="1.389" stroke-miterlimit="10" stroke-linecap="round" stroke-linejoin="round"/><path d="M483.595 238.243c-3.394-3.533-1.603-10.418.532-15.572 4.831-.177 8.611-2.109 7.992-6.677-.615-4.563-5.176-5.357-6.847-4.041-1.671-1.843-.708-3.509.875-8.254-7.566-1.164-9.419-9.167-9.867-12.631l-.666-.365s-4.921-1.054-10.544 5.968a148.049 148.049 0 00-5.118 6.806c-6.248 8.84-13.579 21.52-8.758 26.743 3.353 3.633 7.498 5.337 11.356 5.83l.411 5.943c.526 11.769-7.549 24.064-14.755 30.386 20.311 10.072 38.357-.438 45.824-8.742a25.361 25.361 0 001.603-1.971c-8.408-7.013-11.163-17.475-12.038-23.423z" fill="#fff"/><path d="M483.595 238.243c-3.394-3.533-1.603-10.418.532-15.572 4.831-.177 8.611-2.109 7.992-6.677-.615-4.563-5.176-5.357-6.847-4.041-1.671-1.843-.708-3.509.875-8.254-7.566-1.164-9.419-9.167-9.867-12.631l-.666-.365s-4.921-1.054-10.544 5.968a148.049 148.049 0 00-5.118 6.806c-6.248 8.84-13.579 21.52-8.758 26.743 3.353 3.633 7.498 5.337 11.356 5.83l.411 5.943c.526 11.769-7.549 24.064-14.755 30.386 20.311 10.072 38.357-.438 45.824-8.742a25.361 25.361 0 001.603-1.971c-8.408-7.013-11.163-17.475-12.038-23.423v0z" stroke="#1B1918" stroke-width="1.389" stroke-miterlimit="10" stroke-linecap="round" stroke-linejoin="round"/><path d="M469.194 235.101s-4.988 4.393-6.55 3.672v-2.282l6.55-1.39z" fill="#1D1316"/><path d="M469.194 235.101s-4.988 4.393-6.55 3.672v-2.282l6.55-1.39z" stroke="#1B1918" stroke-width=".695" stroke-miterlimit="10" stroke-linecap="round" stroke-linejoin="round"/><path d="M469.288 234.77s-2.999 1.429-6.737 1.28l6.737-1.28z" fill="#fff"/><path d="M469.288 234.77s-2.999 1.429-6.737 1.28" stroke="#1B1918" stroke-width="1.389" stroke-miterlimit="10" stroke-linecap="round" stroke-linejoin="round"/><path d="M102.144 455.113c-3.568-5.053-9.226-9.043-15.411-8.986-7.79.072-14.123 6.226-21.603 8.4-10.056 2.922-21.717-2.454-26.46-11.79-4.743-9.335-2.431-21.591 5.045-28.922 3.88-3.804 9.312-7.016 9.978-12.41.544-4.405-2.499-8.489-5.994-11.225-3.495-2.737-7.61-4.699-10.713-7.872-6.229-6.371-6.876-17.408-1.435-24.462 5.44-7.055 16.28-9.232 24.024-4.826 4.1 2.332 7.263 6.183 11.6 8.036 6.3 2.693 13.537.612 19.964-1.762 6.427-2.374 13.265-5.069 19.932-3.492 5.184 1.227 9.65 5.155 11.527 10.141 1.878 4.986 1.112 10.884-1.976 15.225-2.91 4.092-7.897 7.319-8.117 12.336-.224 5.112 4.934 8.965 9.956 9.948 5.022.983 10.246.105 15.306.87 5.06.765 10.445 4.051 10.885 9.149.684 7.948-10.649 13.215-9.714 21.137.434 3.685 3.445 6.428 5.731 9.352 2.703 3.459 4.582 7.673 4.723 12.062.14 4.388-1.613 8.925-5.063 11.642-4.349 3.425-10.374 3.478-15.909 3.375-4.76-.089-14.018 1.64-18.292-.788-4.159-2.363-5.048-11.225-7.984-15.138z" fill="#fff"/><path d="M102.144 455.113c-3.568-5.053-9.226-9.043-15.411-8.986-7.79.072-14.123 6.226-21.603 8.4-10.056 2.922-21.717-2.454-26.46-11.79-4.743-9.335-2.431-21.591 5.045-28.922 3.88-3.804 9.312-7.016 9.978-12.41.544-4.405-2.499-8.489-5.994-11.225-3.495-2.737-7.61-4.699-10.713-7.872-6.229-6.371-6.876-17.408-1.435-24.462 5.44-7.055 16.28-9.232 24.024-4.826 4.1 2.332 7.263 6.183 11.6 8.036 6.3 2.693 13.537.612 19.964-1.762 6.427-2.374 13.265-5.069 19.932-3.492 5.184 1.227 9.65 5.155 11.527 10.141 1.878 4.986 1.112 10.884-1.976 15.225-2.91 4.092-7.897 7.319-8.117 12.336-.224 5.112 4.934 8.965 9.956 9.948 5.022.983 10.246.105 15.306.87 5.06.765 10.445 4.051 10.885 9.149.684 7.948-10.649 13.215-9.714 21.137.434 3.685 3.445 6.428 5.731 9.352 2.703 3.459 4.582 7.673 4.723 12.062.14 4.388-1.613 8.925-5.063 11.642-4.349 3.425-10.374 3.478-15.909 3.375-4.76-.089-14.018 1.64-18.292-.788-4.159-2.363-5.048-11.225-7.984-15.138v0z" stroke="#1B1918" stroke-width="1.389" stroke-miterlimit="10" stroke-linecap="round" stroke-linejoin="round"/><path d="M96.03 328.583c-.547-6.684 2.928-14.212 9.397-15.982 4.37-1.194 9.824.131 12.909-3.186 3.699-3.974.397-10.476 1.532-15.785.718-3.362 3.324-6.139 6.45-7.569 3.127-1.43 6.711-1.627 10.109-1.105 7.022 1.079 13.509 5.261 17.392 11.211 3.883 5.949 5.099 13.571 3.26 20.433-1.664 6.208-5.714 12.239-4.335 18.515 1.535 6.983 9.262 11.225 11.022 18.154 1.158 4.564-.53 9.351-2.613 13.572-2.083 4.221-4.628 8.351-5.335 13.005-.896 5.909 1.281 11.787 2.967 17.52 1.685 5.735 2.842 12.168.109 17.484-2.129 4.144-6.389 6.914-10.905 8.061-4.515 1.146-9.283.831-13.871.022-6.595-1.163-13.095-3.375-18.573-7.226-5.478-3.852-9.88-9.446-11.537-15.935-1.722-6.746-.341-13.703 2.069-20.095 1.91-5.069 5.75-10.451 5.507-16.081-.25-5.765-4.72-11.164-7.568-15.897-3.553-5.904-7.41-12.075-7.986-19.116z" fill="#fff"/><path d="M96.03 328.583c-.547-6.684 2.928-14.212 9.397-15.982 4.37-1.194 9.824.131 12.909-3.186 3.699-3.974.397-10.476 1.532-15.785.718-3.362 3.324-6.139 6.45-7.569 3.127-1.43 6.711-1.627 10.109-1.105 7.022 1.079 13.509 5.261 17.392 11.211 3.883 5.949 5.099 13.571 3.26 20.433-1.664 6.208-5.714 12.239-4.335 18.515 1.535 6.983 9.262 11.225 11.022 18.154 1.158 4.564-.53 9.351-2.613 13.572-2.083 4.221-4.628 8.351-5.335 13.005-.896 5.909 1.281 11.787 2.967 17.52 1.685 5.735 2.842 12.168.109 17.484-2.129 4.144-6.389 6.914-10.905 8.061-4.515 1.146-9.283.831-13.871.022-6.595-1.163-13.095-3.375-18.573-7.226-5.478-3.852-9.88-9.446-11.537-15.935-1.722-6.746-.341-13.703 2.069-20.095 1.91-5.069 5.75-10.451 5.507-16.081-.25-5.765-4.72-11.164-7.568-15.897-3.553-5.904-7.41-12.075-7.986-19.116v0z" stroke="#1B1918" stroke-width="1.389" stroke-miterlimit="10" stroke-linecap="round" stroke-linejoin="round"/><path d="M58.328 374.548s35.598 11.71 45.2 40.282c9.602 28.572 19.115 54.379 33.77 55.759" fill="#fff"/><path d="M58.328 374.548s35.598 11.71 45.2 40.282c9.602 28.572 19.115 54.379 33.77 55.759" stroke="#1B1918" stroke-width="1.389" stroke-miterlimit="10" stroke-linecap="round" stroke-linejoin="round"/><path d="M94.394 377.944c0 .585-4.204 8.746-.93 19.713l.93-19.713z" fill="#fff"/><path d="M94.394 377.944c0 .585-4.204 8.746-.93 19.713" stroke="#1B1918" stroke-width="1.389" stroke-miterlimit="10" stroke-linecap="round" stroke-linejoin="round"/><path d="M83.98 425.018s18.809 13.831 26.497 9.55l-26.497-9.55z" fill="#fff"/><path d="M83.98 425.018s18.809 13.831 26.497 9.55" stroke="#1B1918" stroke-width="1.389" stroke-miterlimit="10" stroke-linecap="round" stroke-linejoin="round"/><path d="M63.83 389.068s15.474 7.591 20.15-.361l-20.15.361z" fill="#fff"/><path d="M63.83 389.068s15.474 7.591 20.15-.361" stroke="#1B1918" stroke-width="1.389" stroke-miterlimit="10" stroke-linecap="round" stroke-linejoin="round"/><path d="M135.612 312.714s-13.817 66.283-1.639 97.432l1.639-97.432z" fill="#fff"/><path d="M135.612 312.714s-13.817 66.283-1.639 97.432" stroke="#1B1918" stroke-width="1.389" stroke-miterlimit="10" stroke-linecap="round" stroke-linejoin="round"/><path d="M141.467 328.858s-4.911 10.425-10.535 14.122l10.535-14.122z" fill="#fff"/><path d="M141.467 328.858s-4.911 10.425-10.535 14.122" stroke="#1B1918" stroke-width="1.389" stroke-miterlimit="10" stroke-linecap="round" stroke-linejoin="round"/><path d="M115.94 345.039c.235.936 4.484 14.515 13.016 16.391l-13.016-16.391z" fill="#fff"/><path d="M115.94 345.039c.235.936 4.484 14.515 13.016 16.391" stroke="#1B1918" stroke-width="1.389" stroke-miterlimit="10" stroke-linecap="round" stroke-linejoin="round"/><path d="M128.955 316.466s-.105 8.277 4.16 10.385l-4.16-10.385z" fill="#fff"/><path d="M128.955 316.466s-.105 8.277 4.16 10.385" stroke="#1B1918" stroke-width="1.389" stroke-miterlimit="10" stroke-linecap="round" stroke-linejoin="round"/><path d="M169.882 475.252c-1.33-7.659 4.678-14.865 11.578-18.444 6.901-3.579 14.797-4.721 21.997-7.65 14.261-5.802 25.27-19.001 28.418-34.071 1.439-6.885.977-14.91-4.109-19.769-1.791-1.711-4.023-2.893-5.903-4.506-1.881-1.613-3.468-3.906-3.241-6.374.236-2.564 2.34-4.558 4.54-5.897 2.2-1.339 4.669-2.319 6.502-4.128 3.5-3.45 3.797-9.107 2.416-13.823-3.103-10.604-14.127-18.3-25.15-17.561-11.023.74-20.919 9.841-22.577 20.763-.452 2.97-.444 6.246-2.351 8.566-2.834 3.448-8.3 2.905-12.411 1.169-4.112-1.735-8.11-4.391-12.569-4.203-7.008.295-11.599 7.217-14.991 13.356-4.922 8.909-9.878 17.893-12.929 27.603-3.051 9.711-4.103 20.319-1.128 30.054 3.916 12.811 14.148 22.533 23.979 31.633 5.895-.939 12.791.244 17.929 3.282z" fill="#fff"/><path d="M169.882 475.252c-1.33-7.659 4.678-14.865 11.578-18.444 6.901-3.579 14.797-4.721 21.997-7.65 14.261-5.802 25.27-19.001 28.418-34.071 1.439-6.885.977-14.91-4.109-19.769-1.791-1.711-4.023-2.893-5.903-4.506-1.881-1.613-3.468-3.906-3.241-6.374.236-2.564 2.34-4.558 4.54-5.897 2.2-1.339 4.669-2.319 6.502-4.128 3.5-3.45 3.797-9.107 2.416-13.823-3.103-10.604-14.127-18.3-25.15-17.56-11.023.739-20.919 9.84-22.577 20.762-.452 2.97-.444 6.246-2.351 8.566-2.834 3.448-8.3 2.905-12.411 1.169-4.112-1.735-8.11-4.391-12.569-4.203-7.008.295-11.599 7.217-14.991 13.356-4.922 8.909-9.878 17.893-12.929 27.603-3.051 9.711-4.103 20.319-1.128 30.054 3.916 12.811 14.148 22.533 23.979 31.633 5.895-.939 12.791.244 17.929 3.282v0z" stroke="#1B1918" stroke-width="1.389" stroke-miterlimit="10" stroke-linecap="round" stroke-linejoin="round"/><path d="M156.807 468.227s0-39.345 43.561-83.96l-43.561 83.96z" fill="#fff"/><path d="M156.807 468.227s0-39.345 43.561-83.96" stroke="#1B1918" stroke-width="1.389" stroke-miterlimit="10" stroke-linecap="round" stroke-linejoin="round"/><path d="M212.313 387.341s.962 6.572-19.456 5.043l19.456-5.043z" fill="#fff"/><path d="M212.313 387.341s.962 6.572-19.456 5.043" stroke="#1B1918" stroke-width="1.389" stroke-miterlimit="10" stroke-linecap="round" stroke-linejoin="round"/><path d="M178.148 390.679s-5.288 12.545 2.45 17.294l-2.45-17.294z" fill="#fff"/><path d="M178.148 390.679s-5.288 12.545 2.45 17.294" stroke="#1B1918" stroke-width="1.389" stroke-miterlimit="10" stroke-linecap="round" stroke-linejoin="round"/><path d="M198.172 418.431s-21.744 8.656-28.305 7.138l28.305-7.138z" fill="#fff"/><path d="M198.172 418.431s-21.744 8.656-28.305 7.138" stroke="#1B1918" stroke-width="1.389" stroke-miterlimit="10" stroke-linecap="round" stroke-linejoin="round"/><path d="M155.929 425.748s8.315 10.878 6.18 17.64l-6.18-17.64z" fill="#fff"/><path d="M155.929 425.748s8.315 10.878 6.18 17.64" stroke="#1B1918" stroke-width="1.389" stroke-miterlimit="10" stroke-linecap="round" stroke-linejoin="round"/><path d="M180.344 464.363l-78.34 1.757 1.244 7.026h76.129l.967-8.783z" fill="#fff"/><path d="M180.344 464.363l-78.34 1.757 1.244 7.026h76.129l.967-8.783z" stroke="#1B1918" stroke-width="1.389" stroke-miterlimit="10" stroke-linecap="round" stroke-linejoin="round"/><path d="M103.991 477.339l11.069 62.554h56.973l6.884-62.554h-74.926z" fill="#fff"/><path d="M103.991 477.339l11.069 62.554h56.973l6.884-62.554h-74.926z" stroke="#1B1918" stroke-width="1.389" stroke-miterlimit="10" stroke-linecap="round" stroke-linejoin="round"/><path d="M179.378 473.145h-76.13l.742 4.194h74.926l.462-4.194z" fill="#1D1316"/><path d="M179.378 473.145h-76.13l.742 4.194h74.926l.462-4.194z" stroke="#1B1918" stroke-width=".695" stroke-miterlimit="10" stroke-linecap="round" stroke-linejoin="round"/><path d="M115.06 539.893l6.969 39.388h45.669l4.334-39.388H115.06z" fill="#1D1316"/><path d="M115.06 539.893l6.969 39.388h45.669l4.334-39.388H115.06z" stroke="#1B1918" stroke-width=".695" stroke-miterlimit="10" stroke-linecap="round" stroke-linejoin="round"/><path d="M145.198 55.103H136.8a2.83 2.83 0 01-2.826-2.827v-4.89a2.83 2.83 0 012.826-2.827h8.398a2.83 2.83 0 012.827 2.828v4.889a2.83 2.83 0 01-2.827 2.827z" fill="#fff"/><path d="M145.198 55.103H136.8a2.83 2.83 0 01-2.826-2.827v-4.89a2.83 2.83 0 012.826-2.827h8.398a2.83 2.83 0 012.827 2.828v4.889a2.83 2.83 0 01-2.827 2.827z" stroke="#1B1918" stroke-width="1.389" stroke-miterlimit="10" stroke-linecap="round" stroke-linejoin="round"/><path d="M257.147 55.103h-85.979a2.592 2.592 0 01-2.592-2.593v-4.478a2.592 2.592 0 012.592-2.593h85.979a2.592 2.592 0 012.591 2.593v4.478a2.592 2.592 0 01-2.591 2.593z" fill="#fff"/><path d="M257.147 55.103h-85.979a2.592 2.592 0 01-2.592-2.593v-4.478a2.592 2.592 0 012.592-2.593h85.979a2.592 2.592 0 012.591 2.593v4.478a2.592 2.592 0 01-2.591 2.593z" stroke="#1B1918" stroke-width="1.389" stroke-miterlimit="10" stroke-linecap="round" stroke-linejoin="round"/><path d="M97.812 272.476c0 11.142-9.033 20.175-20.175 20.175-11.142 0-20.175-9.033-20.175-20.175 0-11.143 9.032-20.175 20.175-20.175 11.142 0 20.175 9.032 20.175 20.175z" fill="#fff"/><path d="M97.812 272.476c0 11.142-9.033 20.175-20.175 20.175-11.142 0-20.175-9.033-20.175-20.175 0-11.143 9.032-20.175 20.175-20.175 11.142 0 20.175 9.032 20.175 20.175z" stroke="#1B1918" stroke-width="1.389" stroke-miterlimit="10" stroke-linecap="round" stroke-linejoin="round"/><path d="M73.23 212.168a8.9 8.9 0 11-17.798 0 8.9 8.9 0 0117.798 0z" fill="#fff"/><path d="M73.23 212.168a8.9 8.9 0 11-17.798 0 8.9 8.9 0 0117.798 0z" stroke="#1B1918" stroke-width="1.389" stroke-miterlimit="10" stroke-linecap="round" stroke-linejoin="round"/><path d="M541.489 49.828c0 10.596-8.591 19.182-19.182 19.182-10.595 0-19.181-8.586-19.181-19.182 0-10.59 8.586-19.181 19.181-19.181 10.591 0 19.182 8.591 19.182 19.181z" fill="#fff"/><path d="M541.489 49.828c0 10.596-8.591 19.182-19.182 19.182-10.595 0-19.181-8.586-19.181-19.182 0-10.59 8.586-19.181 19.181-19.181 10.591 0 19.182 8.591 19.182 19.181z" stroke="#1B1918" stroke-width="1.389" stroke-miterlimit="10" stroke-linecap="round" stroke-linejoin="round"/><path d="M532.606 58.388h-20.603s-.193-2.384 1.047-2.957c1.244-.573 2.197-12.304 5.727-13.735.552-.224 1.015-.412 1.406-.573a2.29 2.29 0 012.119-3.15 2.291 2.291 0 012.124 3.15c.391.161.859.349 1.406.573 3.53 1.431 4.488 13.162 5.727 13.735 1.24.573 1.047 2.957 1.047 2.957z" fill="#1B1918"/><path d="M532.606 58.388h-20.603s-.193-2.384 1.047-2.957c1.244-.573 2.197-12.304 5.727-13.735.552-.224 1.015-.412 1.406-.573a2.29 2.29 0 012.119-3.15 2.291 2.291 0 012.124 3.15c.391.161.859.349 1.406.573 3.53 1.431 4.488 13.162 5.727 13.735 1.24.573 1.047 2.957 1.047 2.957v0z" stroke="#1B1918" stroke-width="1.389" stroke-miterlimit="10" stroke-linecap="round" stroke-linejoin="round"/><path d="M525.604 58.389a3.298 3.298 0 01-3.301 3.295 3.297 3.297 0 01-3.296-3.295h6.597z" fill="#1B1918"/><path d="M525.604 58.389a3.298 3.298 0 01-3.301 3.295 3.297 3.297 0 01-3.296-3.295h6.597z" stroke="#1B1918" stroke-width="1.389" stroke-miterlimit="10" stroke-linecap="round" stroke-linejoin="round"/><path d="M376.838 256.737v54.429" stroke="#1B1918" stroke-width="1.389" stroke-miterlimit="10" stroke-linecap="round" stroke-linejoin="round" stroke-dasharray="8.34 8.34"/><path d="M52.338 138.999l-3.998 5.706c-9.624-6.751-22.865-6.887-32.77.57l-4.19-5.566c12.38-9.323 28.93-9.153 40.958-.71z" fill="#fff"/><path d="M52.338 138.999l-3.998 5.706c-9.624-6.751-22.865-6.887-32.77.57l-4.19-5.566c12.38-9.323 28.93-9.153 40.958-.71v0z" stroke="#1B1918" stroke-width="1.389" stroke-miterlimit="10" stroke-linecap="round" stroke-linejoin="round"/><path d="M62.715 123.892l-6.025 8.597c-14.5-10.172-34.451-10.376-49.375.859L1 124.961c18.654-14.048 43.591-13.79 61.715-1.069z" fill="#fff"/><path d="M62.715 123.892l-6.025 8.597c-14.5-10.172-34.451-10.376-49.375.859L1 124.961c18.654-14.048 43.591-13.79 61.715-1.069z" stroke="#1B1918" stroke-width="1.389" stroke-miterlimit="10" stroke-linecap="round" stroke-linejoin="round"/><path d="M44.338 150.415l-4.002 5.711a13.926 13.926 0 00-16.383.284l-4.19-5.569c7.428-5.594 17.358-5.49 24.575-.426z" fill="#fff"/><path d="M44.338 150.415l-4.002 5.711a13.926 13.926 0 00-16.383.284l-4.19-5.569c7.428-5.594 17.358-5.49 24.575-.426v0z" stroke="#1B1918" stroke-width="1.389" stroke-miterlimit="10" stroke-linecap="round" stroke-linejoin="round"/><path d="M39 169.582a6.932 6.932 0 01-2.472 3.527 6.92 6.92 0 01-4.071 1.4 6.946 6.946 0 01-5.686-2.776 6.965 6.965 0 011.373-9.757h.002a6.965 6.965 0 019.758 1.373 6.952 6.952 0 011.095 6.233z" fill="#fff"/><path d="M39 169.582a6.932 6.932 0 01-2.472 3.527 6.92 6.92 0 01-4.071 1.4 6.946 6.946 0 01-5.686-2.776 6.965 6.965 0 011.373-9.757h.002a6.965 6.965 0 019.758 1.373 6.952 6.952 0 011.095 6.233v0z" stroke="#1B1918" stroke-width="1.389" stroke-miterlimit="10" stroke-linecap="round" stroke-linejoin="round"/></svg>