<svg width="40" height="40" viewBox="0 0 40 40" fill="none" xmlns="http://www.w3.org/2000/svg">
<path d="M2.5 13.1251H1.25V10.6251C1.25093 9.79663 1.58047 9.00231 2.16632 8.41646C2.75217 7.83061 3.54648 7.50108 4.375 7.50014H25.625V6.25014H24.375C24.2514 6.25015 24.1305 6.2135 24.0278 6.14482C23.925 6.07614 23.8449 5.97853 23.7976 5.86433C23.7502 5.75012 23.7379 5.62445 23.762 5.50321C23.7861 5.38197 23.8456 5.2706 23.933 5.18319L27.683 1.43319C27.7411 1.37515 27.81 1.32911 27.8858 1.2977C27.9616 1.26629 28.0429 1.25012 28.125 1.25012C28.2071 1.25012 28.2884 1.26629 28.3642 1.2977C28.44 1.32911 28.5089 1.37515 28.567 1.43319L32.317 5.18319C32.4044 5.2706 32.4639 5.38197 32.488 5.50321C32.5121 5.62445 32.4998 5.75012 32.4524 5.86433C32.4051 5.97853 32.325 6.07614 32.2222 6.14482C32.1195 6.2135 31.9986 6.25015 31.875 6.25014H30.625V7.50014H33.125C33.9535 7.50108 34.7478 7.83061 35.3337 8.41646C35.9195 9.00231 36.2491 9.79663 36.25 10.6251V23.1251H35V10.6251C34.9994 10.128 34.8017 9.65146 34.4502 9.29996C34.0987 8.94845 33.6221 8.75072 33.125 8.75014H30.625V20.0001H29.375V5.62514C29.375 5.45938 29.4408 5.30041 29.5581 5.1832C29.6753 5.06599 29.8342 5.00014 30 5.00014H30.3662L28.125 2.75897L25.8838 5.00014H26.25C26.4158 5.00014 26.5747 5.06599 26.6919 5.1832C26.8092 5.30041 26.875 5.45938 26.875 5.62514V20.6251H25.625V8.75014H4.375C3.8779 8.75072 3.40132 8.94845 3.04981 9.29996C2.69831 9.65146 2.50058 10.128 2.5 10.6251V13.1251ZM4.375 32.5001H14.7849L13.2849 37.5001H11.875V38.7501H25.625V37.5001H24.2151L23.4112 34.8205L22.2138 35.1798L22.91 37.5001H14.5897L16.0897 32.5001H20.625V31.2501H4.375C3.8779 31.2496 3.40132 31.0518 3.04981 30.7003C2.69831 30.3488 2.50058 29.8722 2.5 29.3751V28.7501H20V27.5001H2.5V14.3751H1.25V29.3751C1.25093 30.2037 1.58047 30.998 2.16632 31.5838C2.75217 32.1697 3.54648 32.4992 4.375 32.5001ZM23.125 21.8751V11.8751H20.625V26.2501H4.375V25.0001H6.875V20.0001C6.875 19.8344 6.94085 19.6754 7.05806 19.5582C7.17527 19.441 7.33424 19.3751 7.5 19.3751H11.25C11.4158 19.3751 11.5747 19.441 11.6919 19.5582C11.8092 19.6754 11.875 19.8344 11.875 20.0001V25.0001H13.125V15.6251C13.125 15.4594 13.1908 15.3004 13.3081 15.1832C13.4253 15.066 13.5842 15.0001 13.75 15.0001H17.5C17.6658 15.0001 17.8247 15.066 17.9419 15.1832C18.0592 15.3004 18.125 15.4594 18.125 15.6251V25.0001H19.375V11.2501C19.375 11.0844 19.4408 10.9254 19.5581 10.8082C19.6753 10.691 19.8342 10.6251 20 10.6251H23.75C23.9158 10.6251 24.0747 10.691 24.1919 10.8082C24.3092 10.9254 24.375 11.0844 24.375 11.2501V21.8751H23.125ZM10.625 20.6251H8.125V25.0001H10.625V20.6251ZM16.875 16.2501H14.375V25.0001H16.875V16.2501ZM4.375 10.0001V11.2501H5.625V10.0001H4.375ZM8.125 10.0001H6.875V11.2501H8.125V10.0001ZM9.375 10.0001V11.2501H10.625V10.0001H9.375ZM38.2005 35.5496C38.551 35.9019 38.7484 36.3782 38.75 36.8751C38.7502 37.1214 38.7019 37.3654 38.6077 37.5929C38.5136 37.8205 38.3755 38.0273 38.2013 38.2015C38.0272 38.3756 37.8204 38.5137 37.5928 38.6079C37.3652 38.702 37.1213 38.7504 36.875 38.7501C36.3786 38.7458 35.9033 38.5488 35.5495 38.2007L32.5578 35.2091C30.9842 36.1374 29.126 36.4599 27.3316 36.116C25.5373 35.7722 23.9299 34.7857 22.8109 33.3414C21.6919 31.8972 21.1382 30.0944 21.2534 28.271C21.3686 26.4476 22.1449 24.7289 23.4368 23.437C24.7287 22.1451 26.4475 21.3687 28.2709 21.2535C30.0942 21.1383 31.897 21.6921 33.3413 22.8111C34.7855 23.9301 35.772 25.5374 36.1159 27.3318C36.4597 29.1262 36.1373 30.9843 35.209 32.558L38.2005 35.5496ZM35 28.7501C35 27.514 34.6334 26.3056 33.9467 25.2778C33.2599 24.25 32.2838 23.4489 31.1418 22.9759C29.9997 22.5029 28.7431 22.3791 27.5307 22.6202C26.3183 22.8614 25.2047 23.4566 24.3306 24.3307C23.4565 25.2048 22.8612 26.3184 22.6201 27.5308C22.3789 28.7432 22.5027 29.9999 22.9758 31.1419C23.4488 32.284 24.2499 33.2601 25.2777 33.9468C26.3055 34.6336 27.5139 35.0001 28.75 35.0001C30.407 34.9983 31.9956 34.3392 33.1673 33.1675C34.339 31.9958 34.9981 30.4072 35 28.7501ZM37.3166 36.4336L34.4738 33.5907C34.2042 33.909 33.9088 34.2044 33.5905 34.474L36.4334 37.3167C36.4908 37.3772 36.5598 37.4255 36.6362 37.4589C36.7125 37.4923 36.7948 37.5101 36.8782 37.5112C36.9616 37.5122 37.0443 37.4966 37.1215 37.4652C37.1988 37.4338 37.2689 37.3873 37.3279 37.3283C37.3868 37.2694 37.4334 37.1992 37.4648 37.122C37.4962 37.0448 37.5118 36.962 37.5107 36.8787C37.5096 36.7953 37.4919 36.713 37.4585 36.6366C37.4251 36.5602 37.3767 36.4913 37.3162 36.4339L37.3166 36.4336ZM33.75 28.7501C33.75 29.7391 33.4568 30.7058 32.9073 31.528C32.3579 32.3502 31.577 32.9911 30.6634 33.3695C29.7498 33.748 28.7445 33.847 27.7745 33.6541C26.8046 33.4611 25.9137 32.9849 25.2145 32.2857C24.5152 31.5864 24.039 30.6955 23.8461 29.7256C23.6531 28.7557 23.7522 27.7504 24.1306 26.8367C24.509 25.9231 25.1499 25.1422 25.9721 24.5928C26.7944 24.0434 27.7611 23.7501 28.75 23.7501C30.0756 23.7516 31.3465 24.2789 32.2839 25.2163C33.2212 26.1536 33.7485 27.4245 33.75 28.7501ZM32.5 28.7501C32.5 28.0085 32.2801 27.2834 31.868 26.6668C31.456 26.0501 30.8703 25.5694 30.1851 25.2856C29.4998 25.0018 28.7458 24.9275 28.0184 25.0722C27.291 25.2169 26.6228 25.574 26.0983 26.0985C25.5739 26.6229 25.2167 27.2911 25.0721 28.0186C24.9274 28.746 25.0016 29.5 25.2855 30.1852C25.5693 30.8704 26.0499 31.4561 26.6666 31.8682C27.2833 32.2802 28.0083 32.5001 28.75 32.5001C29.7442 32.4991 30.6974 32.1036 31.4004 31.4006C32.1035 30.6976 32.4989 29.7444 32.5 28.7501ZM26.25 28.7501H27.5C27.5004 28.4187 27.6322 28.101 27.8666 27.8667C28.1009 27.6324 28.4186 27.5005 28.75 27.5001V26.2501C28.0872 26.2509 27.4517 26.5145 26.9831 26.9832C26.5144 27.4519 26.2507 28.0873 26.25 28.7501ZM34.375 5.00014H35.625C35.6239 4.00592 35.2285 3.05273 34.5254 2.3497C33.8224 1.64668 32.8692 1.25124 31.875 1.25014V2.50014C32.5378 2.50089 33.1733 2.76452 33.6419 3.2332C34.1106 3.70188 34.3743 4.33733 34.375 5.00014Z" fill="white"/>
</svg>
