<svg width="40" height="40" viewBox="0 0 40 40" fill="none" xmlns="http://www.w3.org/2000/svg">
<g clip-path="url(#clip0_22:380)">
<path d="M34.8171 14.6733C35.1918 14.6733 35.5531 14.5246 35.8195 14.258L39.7467 10.3309C40.2715 9.8061 39.9298 8.90548 39.1904 8.85908L37.1006 8.7279L38.4642 7.36423C38.693 7.13541 38.693 6.76439 38.4642 6.53564C38.2353 6.30681 37.8644 6.30681 37.6355 6.53564L36.2719 7.89931L36.1407 5.80947C36.0942 5.06877 35.1927 4.7294 34.6689 5.25314L30.7417 9.18032C30.4541 9.4679 30.3038 9.86564 30.3293 10.2715L30.4643 12.4221C27.1867 9.62743 22.9624 8.02478 18.4875 8.02478C8.26959 8.02478 0 16.2934 0 26.5122C0 31.124 1.70781 35.5411 4.80897 38.9497C5.02687 39.189 5.39741 39.2065 5.63671 38.9888C5.87608 38.771 5.89358 38.4004 5.67585 38.161C2.7714 34.9687 1.17187 30.8318 1.17187 26.5122C1.17187 16.9644 8.93967 9.19657 18.4875 9.19657C22.9619 9.19657 27.1722 10.9114 30.3215 13.8496L27.6479 16.5231C25.23 14.3037 22.0107 12.9455 18.4875 12.9455C11.0069 12.9455 4.92085 19.0315 4.92085 26.5122C4.92085 28.6651 5.44022 30.8096 6.42303 32.7138C6.42311 32.7139 6.42311 32.7139 6.42319 32.714C8.70045 37.1266 13.2868 40.0789 18.4876 40.0789C24.8961 40.0789 30.4698 35.5524 31.7724 29.2706C31.8381 28.9537 31.6345 28.6436 31.3177 28.5779C31.0009 28.5122 30.6907 28.7158 30.625 29.0326C29.4385 34.7542 24.334 38.907 18.4877 38.907C13.8308 38.907 9.60686 36.328 7.46459 32.1766C7.46459 32.1765 7.46452 32.1764 7.46452 32.1764C6.55436 30.4127 6.0928 28.507 6.0928 26.5122C6.0928 19.6776 11.6531 14.1173 18.4876 14.1173C21.6884 14.1173 24.6148 15.3441 26.8196 17.3515L24.1698 20.0012C22.6492 18.6725 20.6609 17.8662 18.4876 17.8662C13.7203 17.8662 9.84178 21.7448 9.84178 26.5121C9.84178 31.2794 13.7203 35.1579 18.4876 35.1579C23.255 35.1579 27.1335 31.2794 27.1335 26.5121C27.1335 24.3388 26.3273 22.3505 24.9985 20.8299L27.6484 18.18C29.6403 20.367 30.8641 23.2651 30.8822 26.44C30.884 26.7624 31.146 27.0226 31.4681 27.0226H31.4715C31.7951 27.0207 32.0559 26.7569 32.0541 26.4333C32.0341 22.9383 30.6793 19.7498 28.4771 17.3512L31.1508 14.6775C34.0763 17.8055 35.8032 21.9908 35.8032 26.512C35.8031 36.0601 28.0354 43.8279 18.4875 43.8279C14.5322 43.8279 10.6645 42.4596 7.59709 39.9752C7.34545 39.7716 6.97678 39.8103 6.77296 40.0617C6.56928 40.3132 6.60803 40.6821 6.85944 40.8858C10.1349 43.5388 14.2645 44.9998 18.4875 44.9998C28.7055 44.9998 36.9751 36.7312 36.9751 26.5122C36.9751 22.5112 35.7177 18.7034 33.3392 15.5004C33.0929 15.1687 32.8364 14.8473 32.5713 14.535C34.8683 14.6793 34.7445 14.6733 34.8171 14.6733ZM25.9616 26.5122C25.9616 30.6334 22.6088 33.9862 18.4875 33.9862C14.3664 33.9862 11.0136 30.6334 11.0136 26.5122C11.0136 22.3911 14.3664 19.0383 18.4875 19.0383C20.3377 19.0383 22.0327 19.7143 23.3393 20.8319L20.6728 23.4983C20.0585 23.0516 19.3035 22.7872 18.4875 22.7872C16.4336 22.7872 14.7625 24.4583 14.7625 26.5122C14.7625 28.5662 16.4336 30.2373 18.4875 30.2373C20.5416 30.2373 22.2127 28.5662 22.2127 26.5122C22.2127 25.6962 21.9482 24.9412 21.5016 24.3269L24.168 21.6605C25.2855 22.9671 25.9616 24.6621 25.9616 26.5122ZM18.0732 26.9266C18.3021 27.1554 18.673 27.1554 18.9018 26.9266L20.6582 25.1702C20.9004 25.5604 21.0407 26.0202 21.0407 26.5123C21.0407 27.9202 19.8954 29.0655 18.4875 29.0655C17.0796 29.0655 15.9343 27.9201 15.9343 26.5123C15.9343 25.1045 17.0796 23.9591 18.4875 23.9591C18.9796 23.9591 19.4393 24.0994 19.8296 24.3415L18.0731 26.098C17.8443 26.3268 17.8443 26.6978 18.0732 26.9266ZM31.4989 10.1981C31.4945 10.1277 31.5206 10.0587 31.5704 10.0089L35.014 6.56541L35.167 9.00415L31.645 12.5262L31.4989 10.1981ZM32.4737 13.3548L35.9957 9.83275L38.4345 9.98579L34.9909 13.4294C34.9411 13.4792 34.8716 13.5057 34.8017 13.5009L32.4737 13.3548Z" fill="white"/>
</g>
<defs>
<clipPath id="clip0_22:380">
<rect width="40" height="40" fill="white"/>
</clipPath>
</defs>
</svg>
