<svg width="40" height="40" viewBox="0 0 40 40" fill="none" xmlns="http://www.w3.org/2000/svg">
<g clip-path="url(#clip0_22:346)">
<path d="M34.2839 5.32141C33.7609 5.32141 33.3369 5.7454 33.3369 6.26844C33.3369 6.79149 33.7609 7.21547 34.2839 7.21547C34.807 7.21547 35.231 6.79149 35.231 6.26844C35.231 5.7454 34.807 5.32141 34.2839 5.32141Z" fill="white"/>
<path d="M31.0486 7.21547C31.5716 7.21547 31.9956 6.79147 31.9956 6.26844C31.9956 5.74541 31.5716 5.32141 31.0486 5.32141C30.5256 5.32141 30.1016 5.74541 30.1016 6.26844C30.1016 6.79147 30.5256 7.21547 31.0486 7.21547Z" fill="white"/>
<path d="M27.8132 7.21547C28.3363 7.21547 28.7603 6.79147 28.7603 6.26844C28.7603 5.74541 28.3363 5.32141 27.8132 5.32141C27.2902 5.32141 26.8662 5.74541 26.8662 6.26844C26.8662 6.79147 27.2902 7.21547 27.8132 7.21547Z" fill="white"/>
<path d="M40 4.61113C40 3.41778 39.0291 2.44684 37.8357 2.44684H2.1643C0.970937 2.44676 0 3.4177 0 4.61113V30.2863C0 30.6099 0.262266 30.8722 0.585938 30.8722C0.909609 30.8722 1.17188 30.6099 1.17188 30.2863V10.0902H38.8281V13.1879C38.8281 13.5114 39.0904 13.7738 39.4141 13.7738C39.7377 13.7738 40 13.5114 40 13.1879V4.61113ZM1.17188 8.91824V4.61113C1.17188 4.06395 1.61703 3.61871 2.1643 3.61871H37.8357C38.383 3.61871 38.8281 4.06395 38.8281 4.61113V8.91832H1.17188V8.91824Z" fill="white"/>
<path d="M39.4141 15.3363C39.0904 15.3363 38.8281 15.5986 38.8281 15.9222V35.3894C38.8281 35.9365 38.383 36.3816 37.8359 36.3816H2.16406C1.61695 36.3816 1.17188 35.9365 1.17188 35.3894V33.0207C1.17188 32.6971 0.909609 32.4347 0.585938 32.4347C0.262266 32.4347 0 32.6971 0 33.0207V35.3894C0 36.5827 0.970781 37.5535 2.16406 37.5535H37.8359C39.0292 37.5535 40 36.5827 40 35.3894V15.9222C40 15.5986 39.7377 15.3363 39.4141 15.3363Z" fill="white"/>
<path d="M20.4975 22.6504H13.292C12.9683 22.6504 12.7061 22.9127 12.7061 23.2363V34.4426C12.7061 34.7661 12.9683 35.0285 13.292 35.0285H33.4951C33.8188 35.0285 34.0811 34.7661 34.0811 34.4426V27.5678C36.0857 27.2822 37.6322 25.5551 37.6322 23.4728C37.6322 21.1915 35.7762 19.3354 33.495 19.3354C31.4952 19.3354 29.8225 20.7617 29.44 22.6503H23.2318C22.9082 22.6503 22.6459 22.9126 22.6459 23.2362C22.6459 23.5598 22.9082 23.8222 23.2318 23.8222H29.3735C29.5353 25.7457 31.0178 27.2984 32.9092 27.5678V33.8565H13.8779V23.8222H20.4975C20.8211 23.8222 21.0834 23.5598 21.0834 23.2362C21.0834 22.9126 20.8211 22.6504 20.4975 22.6504ZM30.5295 23.4729C30.5295 21.8377 31.8598 20.5074 33.495 20.5074C35.1301 20.5074 36.4604 21.8377 36.4604 23.4729C36.4604 25.1065 35.1326 26.4356 33.4996 26.4382C33.4981 26.4382 33.4966 26.4379 33.4951 26.4379C33.4936 26.4379 33.4921 26.4382 33.4905 26.4382C31.8575 26.4357 30.5295 25.1065 30.5295 23.4729Z" fill="white"/>
<path d="M18.834 25.8496C18.7224 25.5785 18.4611 25.4033 18.1679 25.4033C18.1676 25.4033 18.1675 25.4033 18.1673 25.4033C17.8738 25.4036 17.6123 25.5791 17.5012 25.8507C17.4994 25.8552 17.4976 25.8597 17.4959 25.8642L15.27 31.7087C15.1548 32.0111 15.3066 32.3496 15.6091 32.4648C15.6776 32.491 15.7481 32.5033 15.8175 32.5033C16.0535 32.5033 16.2761 32.3596 16.3651 32.1257L16.7758 31.0475H19.5434L19.9497 32.1241C20.0639 32.4268 20.4021 32.5798 20.7047 32.4654C21.0075 32.3511 21.1603 32.0131 21.046 31.7104L18.8403 25.8656C18.8383 25.8602 18.8362 25.8549 18.834 25.8496ZM17.222 29.8757L18.1658 27.3975L19.1011 29.8757H17.222Z" fill="white"/>
<path d="M29.8533 31.3221C29.5186 31.3221 29.1976 31.1885 28.9947 30.9646C28.7775 30.7248 28.4069 30.7066 28.1671 30.9239C27.9273 31.1411 27.909 31.5117 28.1264 31.7515C28.554 32.2234 29.1833 32.4939 29.8533 32.4939C30.6945 32.4939 31.4016 31.9527 31.5348 31.2069C31.6358 30.6409 31.3851 29.9039 30.3783 29.5325C29.9442 29.3724 29.5387 29.1985 29.3923 29.1346C29.3542 29.0971 29.3509 29.0501 29.3559 29.0148C29.3687 28.9254 29.4451 28.8535 29.5653 28.8172C30.0223 28.6796 30.4586 29.0189 30.474 29.0311C30.7218 29.2357 31.0886 29.2027 31.2957 28.9563C31.5039 28.7086 31.4719 28.3389 31.2242 28.1307C30.8868 27.8472 30.0865 27.4363 29.2273 27.6951C28.669 27.8632 28.274 28.3052 28.196 28.8482C28.1224 29.3608 28.3447 29.8539 28.7762 30.1353C28.8021 30.1521 28.8293 30.1669 28.8575 30.1795C28.879 30.1892 29.3936 30.4182 29.9727 30.6318C30.1879 30.7112 30.4081 30.8498 30.3812 31.0008C30.358 31.1304 30.1743 31.3221 29.8533 31.3221Z" fill="white"/>
<path d="M25.605 32.1083C25.6869 32.3332 25.9019 32.494 26.1552 32.494C26.4788 32.494 26.7411 32.2317 26.7411 31.9081V26.3354C26.7411 26.0119 26.4788 25.7495 26.1552 25.7495C25.8315 25.7495 25.5692 26.0119 25.5692 26.3354V27.9478C25.1957 27.7179 24.7564 27.585 24.2866 27.585C22.9331 27.585 21.832 28.6861 21.832 30.0394C21.832 31.3928 22.9331 32.494 24.2866 32.494C24.7716 32.494 25.2239 32.352 25.605 32.1083ZM23.0039 30.0395C23.0039 29.3322 23.5793 28.7569 24.2866 28.7569C24.9938 28.7569 25.5692 29.3323 25.5692 30.0395C25.5692 30.7467 24.9938 31.3222 24.2866 31.3222C23.5793 31.3222 23.0039 30.7468 23.0039 30.0395Z" fill="white"/>
<path d="M33.4949 24.3014L33.806 24.6125C33.9205 24.7269 34.0704 24.7841 34.2204 24.7841C34.3703 24.7841 34.5203 24.7269 34.6347 24.6125C34.8636 24.3837 34.8636 24.0127 34.6347 23.7839L34.3236 23.4727L34.6347 23.1615C34.8636 22.9327 34.8636 22.5617 34.6347 22.3329C34.4059 22.104 34.0349 22.1041 33.8061 22.3329L33.495 22.644L33.1839 22.3329C32.955 22.104 32.584 22.104 32.3552 22.3329C32.1264 22.5617 32.1264 22.9327 32.3552 23.1615L32.6664 23.4726L32.3553 23.7837C32.1264 24.0126 32.1264 24.3835 32.3552 24.6123C32.4697 24.7268 32.6196 24.784 32.7696 24.784C32.9195 24.784 33.0695 24.7268 33.1839 24.6123L33.4949 24.3014Z" fill="white"/>
<path d="M31.7592 11.4434H8.24121C7.91754 11.4434 7.65527 11.7058 7.65527 12.0294V14.5547C7.65527 14.8783 7.91754 15.1407 8.24121 15.1407H31.7591C32.0828 15.1407 32.345 14.8783 32.345 14.5547V12.0294C32.3451 11.7058 32.0828 11.4434 31.7592 11.4434ZM31.1732 13.9688H8.82715V12.6153H31.1732V13.9688H31.1732Z" fill="white"/>
<path d="M8.63574 17.5991C8.31207 17.5991 8.0498 17.8615 8.0498 18.1851C8.0498 18.5087 8.31207 18.771 8.63574 18.771H23.6304C23.9541 18.771 24.2164 18.5087 24.2164 18.1851C24.2164 17.8615 23.9541 17.5991 23.6304 17.5991H8.63574Z" fill="white"/>
</g>
<defs>
<clipPath id="clip0_22:346">
<rect width="40" height="40" fill="white"/>
</clipPath>
</defs>
</svg>
