<svg width="34" height="33" viewBox="0 0 34 33" fill="none" xmlns="http://www.w3.org/2000/svg">
<path d="M23.6111 3.65186H10.3889C9.88792 3.65186 9.40748 3.84423 9.05324 4.18666C8.69901 4.52908 8.5 4.99352 8.5 5.47778V27.3889C8.5 27.8732 8.69901 28.3376 9.05324 28.68C9.40748 29.0224 9.88792 29.2148 10.3889 29.2148H23.6111C24.1121 29.2148 24.5925 29.0224 24.9468 28.68C25.301 28.3376 25.5 27.8732 25.5 27.3889V5.47778C25.5 4.99352 25.301 4.52908 24.9468 4.18666C24.5925 3.84423 24.1121 3.65186 23.6111 3.65186ZM17.9444 27.3889H16.0556V25.563H17.9444V27.3889ZM10.3889 23.737V5.47778H23.6111V23.737H10.3889Z" fill="#333333"/>
</svg>
