<svg width="9" height="17" viewBox="0 0 9 17" fill="none" xmlns="http://www.w3.org/2000/svg">
<mask id="path-1-inside-1_2:259" fill="white">
<path d="M0.933908 16.8C0.749834 16.8004 0.60035 16.6371 0.600007 16.4354C0.59985 16.3382 0.635096 16.2449 0.697933 16.1762L7.79516 8.40021L0.697933 0.624239C0.567604 0.481432 0.567604 0.249913 0.697933 0.107106C0.828263 -0.0357019 1.03955 -0.0357019 1.16988 0.107106L8.50242 8.14168C8.63253 8.28428 8.63253 8.51545 8.50242 8.65809L1.16988 16.6926C1.10736 16.7613 1.02246 16.8 0.933908 16.8Z"/>
</mask>
<path d="M0.933908 16.8C0.749834 16.8004 0.60035 16.6371 0.600007 16.4354C0.59985 16.3382 0.635096 16.2449 0.697933 16.1762L7.79516 8.40021L0.697933 0.624239C0.567604 0.481432 0.567604 0.249913 0.697933 0.107106C0.828263 -0.0357019 1.03955 -0.0357019 1.16988 0.107106L8.50242 8.14168C8.63253 8.28428 8.63253 8.51545 8.50242 8.65809L1.16988 16.6926C1.10736 16.7613 1.02246 16.8 0.933908 16.8Z" fill="url(#paint0_linear_2:259)"/>
<path d="M0.933908 16.8V15.8L0.931862 15.8L0.933908 16.8ZM0.600007 16.4354L-0.399992 16.437L-0.399992 16.4371L0.600007 16.4354ZM0.697933 16.1762L1.43574 16.8512L1.43654 16.8503L0.697933 16.1762ZM7.79516 8.40021L8.53377 9.07434L9.14905 8.40021L8.53376 7.72607L7.79516 8.40021ZM0.697933 0.624239L-0.0407065 1.29834L-0.0406739 1.29838L0.697933 0.624239ZM1.16988 0.107106L0.431242 0.781206L0.431242 0.781206L1.16988 0.107106ZM8.50242 8.14168L9.24114 7.46766L9.24106 7.46758L8.50242 8.14168ZM8.50242 8.65809L9.24106 9.33219L9.24122 9.33201L8.50242 8.65809ZM1.16988 16.6926L0.431243 16.0185L0.430238 16.0196L1.16988 16.6926ZM0.931862 15.8C1.38455 15.7991 1.59956 16.1713 1.60001 16.4337L-0.399992 16.4371C-0.398857 17.103 0.115122 17.8017 0.935954 17.8L0.931862 15.8ZM1.60001 16.4338C1.60023 16.5747 1.55004 16.7263 1.43574 16.8512L-0.0398702 15.5012C-0.279848 15.7635 -0.400531 16.1017 -0.399992 16.437L1.60001 16.4338ZM1.43654 16.8503L8.53377 9.07434L7.05655 7.72607L-0.0406754 15.5021L1.43654 16.8503ZM8.53376 7.72607L1.43654 -0.049897L-0.0406739 1.29838L7.05655 9.07434L8.53376 7.72607ZM1.43657 -0.0498613C1.55411 0.0789253 1.60019 0.232291 1.60019 0.365672C1.60019 0.499054 1.55411 0.652419 1.43657 0.781206L-0.0407064 -0.566995C-0.519516 -0.042343 -0.519516 0.773688 -0.0407064 1.29834L1.43657 -0.0498613ZM1.43657 0.781206C1.17034 1.07293 0.697478 1.07293 0.431242 0.781206L1.90852 -0.566995C1.38163 -1.14434 0.486188 -1.14434 -0.0407064 -0.566995L1.43657 0.781206ZM0.431242 0.781206L7.76378 8.81578L9.24106 7.46758L1.90852 -0.566995L0.431242 0.781206ZM7.7637 8.81569C7.6461 8.68679 7.60001 8.53332 7.60001 8.39987C7.60001 8.26642 7.64609 8.11301 7.76362 7.98417L9.24122 9.33201C9.71956 8.80763 9.71967 7.99213 9.24114 7.46766L7.7637 8.81569ZM7.76378 7.98399L0.431243 16.0185L1.90852 17.3667L9.24106 9.33219L7.76378 7.98399ZM0.430238 16.0196C0.546492 15.8919 0.725306 15.8 0.933908 15.8V17.8C1.31961 17.8 1.66822 17.6308 1.90953 17.3656L0.430238 16.0196Z" fill="#FF0000" mask="url(#path-1-inside-1_2:259)"/>
<defs>
<linearGradient id="paint0_linear_2:259" x1="0.600006" y1="7" x2="8.60004" y2="6.99816" gradientUnits="userSpaceOnUse">
<stop stop-color="#F23801"/>
<stop offset="0.942708" stop-color="#F45223"/>
</linearGradient>
</defs>
</svg>
