<svg width="32" height="32" viewBox="0 0 32 32" fill="none" xmlns="http://www.w3.org/2000/svg">
<g clip-path="url(#clip0_2:205)">
<path d="M26.4817 10.3947L25.1844 11.692C27.5195 14.0272 27.5195 17.6596 25.1844 20.1245L26.4817 21.4218C29.7249 18.438 29.7249 13.5082 26.4817 10.3947V10.3947ZM23.7573 13.1191L22.46 14.4164C23.1087 15.3245 23.1087 16.492 22.46 17.4002L23.7573 18.6975C25.3141 17.1407 25.3141 14.8055 23.7573 13.1191ZM18.5681 1.70276H5.59504C4.168 1.70276 3.00043 2.87033 3.00043 4.29737V27.6489C3.00043 29.0759 4.168 30.2435 5.59504 30.2435H18.5681C19.9951 30.2435 21.1627 29.0759 21.1627 27.6489V4.29737C21.1627 2.87033 19.9951 1.70276 18.5681 1.70276ZM18.5681 26.3516H5.59504V5.59468H18.5681V26.3516Z" fill="#FF4A19"/>
</g>
<defs>
<clipPath id="clip0_2:205">
<rect width="31.1353" height="31.1353" fill="white" transform="translate(0.405579 0.405579)"/>
</clipPath>
</defs>
</svg>
