<svg width="9" height="17" viewBox="0 0 9 17" fill="none" xmlns="http://www.w3.org/2000/svg">
<mask id="path-1-inside-1_2:262" fill="white">
<path d="M8.06609 16.8C8.25017 16.8004 8.39965 16.6371 8.39999 16.4354C8.40015 16.3382 8.3649 16.2449 8.30207 16.1762L1.20484 8.40021L8.30207 0.624239C8.4324 0.481432 8.4324 0.249913 8.30207 0.107106C8.17174 -0.0357019 7.96045 -0.0357019 7.83012 0.107106L0.497577 8.14168C0.367466 8.28428 0.367466 8.51545 0.497577 8.65809L7.83012 16.6926C7.89264 16.7613 7.97754 16.8 8.06609 16.8Z"/>
</mask>
<path d="M8.06609 16.8C8.25017 16.8004 8.39965 16.6371 8.39999 16.4354C8.40015 16.3382 8.3649 16.2449 8.30207 16.1762L1.20484 8.40021L8.30207 0.624239C8.4324 0.481432 8.4324 0.249913 8.30207 0.107106C8.17174 -0.0357019 7.96045 -0.0357019 7.83012 0.107106L0.497577 8.14168C0.367466 8.28428 0.367466 8.51545 0.497577 8.65809L7.83012 16.6926C7.89264 16.7613 7.97754 16.8 8.06609 16.8Z" fill="url(#paint0_linear_2:262)"/>
<path d="M8.06609 16.8V15.8L8.06814 15.8L8.06609 16.8ZM8.39999 16.4354L9.39999 16.437L9.39999 16.4371L8.39999 16.4354ZM8.30207 16.1762L7.56426 16.8512L7.56346 16.8503L8.30207 16.1762ZM1.20484 8.40021L0.466235 9.07434L-0.149055 8.40021L0.466236 7.72607L1.20484 8.40021ZM8.30207 0.624239L9.04071 1.29834L9.04067 1.29838L8.30207 0.624239ZM7.83012 0.107106L8.56876 0.781206L8.56876 0.781206L7.83012 0.107106ZM0.497577 8.14168L-0.241144 7.46766L-0.241063 7.46758L0.497577 8.14168ZM0.497577 8.65809L-0.241062 9.33219L-0.241224 9.33201L0.497577 8.65809ZM7.83012 16.6926L8.56876 16.0185L8.56976 16.0196L7.83012 16.6926ZM8.06814 15.8C7.61545 15.7991 7.40044 16.1713 7.39999 16.4337L9.39999 16.4371C9.39886 17.103 8.88488 17.8017 8.06405 17.8L8.06814 15.8ZM7.39999 16.4338C7.39977 16.5747 7.44996 16.7263 7.56426 16.8512L9.03987 15.5012C9.27985 15.7635 9.40053 16.1017 9.39999 16.437L7.39999 16.4338ZM7.56346 16.8503L0.466235 9.07434L1.94345 7.72607L9.04068 15.5021L7.56346 16.8503ZM0.466236 7.72607L7.56346 -0.049897L9.04067 1.29838L1.94345 9.07434L0.466236 7.72607ZM7.56343 -0.0498613C7.44589 0.0789253 7.39981 0.232291 7.39981 0.365672C7.39981 0.499054 7.44589 0.652419 7.56343 0.781206L9.04071 -0.566995C9.51952 -0.042343 9.51952 0.773688 9.04071 1.29834L7.56343 -0.0498613ZM7.56343 0.781206C7.82966 1.07293 8.30252 1.07293 8.56876 0.781206L7.09148 -0.566995C7.61837 -1.14434 8.51381 -1.14434 9.04071 -0.566995L7.56343 0.781206ZM8.56876 0.781206L1.23622 8.81578L-0.241063 7.46758L7.09148 -0.566995L8.56876 0.781206ZM1.2363 8.81569C1.3539 8.68679 1.39999 8.53332 1.39999 8.39987C1.39999 8.26642 1.35391 8.11301 1.23638 7.98417L-0.241224 9.33201C-0.719559 8.80763 -0.719669 7.99213 -0.241144 7.46766L1.2363 8.81569ZM1.23622 7.98399L8.56876 16.0185L7.09148 17.3667L-0.241062 9.33219L1.23622 7.98399ZM8.56976 16.0196C8.45351 15.8919 8.27469 15.8 8.06609 15.8V17.8C7.68039 17.8 7.33178 17.6308 7.09047 17.3656L8.56976 16.0196Z" fill="#FF0000" mask="url(#path-1-inside-1_2:262)"/>
<defs>
<linearGradient id="paint0_linear_2:262" x1="8.39999" y1="7" x2="0.399959" y2="6.99816" gradientUnits="userSpaceOnUse">
<stop stop-color="#F23801"/>
<stop offset="0.942708" stop-color="#F45223"/>
</linearGradient>
</defs>
</svg>
