<svg width="658" height="626" viewBox="0 0 658 626" fill="none" xmlns="http://www.w3.org/2000/svg">
<path d="M45.4028 570.987C45.4028 570.987 90.7151 615.395 197.953 604.581C305.191 593.767 318.547 580.448 385.444 610.178C394.972 614.411 405.235 617.166 415.544 619.207C427.613 621.596 439.911 622.987 452.225 623.752C465.445 624.58 478.722 624.679 491.958 624.174C505.089 623.669 518.205 622.575 531.211 620.81C543.082 619.201 554.891 617.046 566.439 614.021C575.942 611.537 585.397 608.491 594.118 604.159C600.356 601.061 606.739 597.146 610.707 591.575C613.05 588.284 614.471 584.145 613.602 580.203C612.888 576.965 610.483 573.898 608.843 570.987H45.4028Z" fill="white"/>
<path d="M45.4028 570.987C45.4028 570.987 90.7151 615.395 197.953 604.581C305.191 593.767 318.547 580.448 385.444 610.178C394.972 614.411 405.235 617.166 415.544 619.207C427.613 621.596 439.911 622.987 452.225 623.752C465.445 624.58 478.722 624.679 491.958 624.174C505.089 623.669 518.205 622.575 531.211 620.81C543.082 619.201 554.891 617.046 566.439 614.021C575.942 611.537 585.397 608.491 594.118 604.159C600.356 601.061 606.739 597.146 610.707 591.575C613.05 588.284 614.471 584.145 613.602 580.203C612.888 576.965 610.483 573.898 608.843 570.987H45.4028Z" stroke="#1B1918" stroke-width="1.38945" stroke-miterlimit="10" stroke-linecap="round" stroke-linejoin="round"/>
<path d="M348.44 570.503C449.633 570.503 550.83 570.503 652.022 570.503C652.475 565.177 655.24 526.095 629.675 504.743C600.908 480.72 545.087 486.489 507.838 529.974C454.704 543.486 401.57 556.997 348.44 570.503V570.503Z" stroke="#1B1918" stroke-width="2.08419" stroke-miterlimit="10" stroke-linecap="round" stroke-linejoin="round"/>
<path d="M44.1865 570.987C232.248 570.987 420.308 570.987 608.369 570.987C600.049 554.415 585.173 529.485 559.895 505.605C544.821 491.369 491.848 442.868 411.644 442.371C356.375 442.029 315.23 464.648 296.419 476.798C278.018 460.289 251.13 457.522 230.375 469.772C211.145 481.122 200.541 503.378 203.676 525.981C191.56 515.085 166.463 495.74 129.903 489.445C107.711 485.624 74.3681 479.882 54.0225 501.39C30.3507 526.413 43.2883 568.223 44.1865 570.987Z" fill="white"/>
<path d="M44.1865 570.987C232.248 570.987 420.308 570.987 608.369 570.987C600.049 554.415 585.173 529.485 559.895 505.605C544.821 491.369 491.848 442.868 411.644 442.371C356.375 442.029 315.23 464.648 296.419 476.798C278.018 460.289 251.13 457.522 230.375 469.772C211.145 481.122 200.541 503.378 203.676 525.981C191.56 515.085 166.463 495.74 129.903 489.445C107.711 485.624 74.3681 479.882 54.0225 501.39C30.3507 526.413 43.2883 568.223 44.1865 570.987Z" stroke="#1B1918" stroke-width="1.38945" stroke-miterlimit="10" stroke-linecap="round" stroke-linejoin="round"/>
<path d="M479.301 21.2856V34.1982H109.911V21.2856C109.911 13.283 116.396 6.80061 124.399 6.80061H464.805C472.813 6.80061 479.301 13.283 479.301 21.2856Z" fill="#1D1316"/>
<path d="M479.301 21.2856V34.1982H109.911V21.2856C109.911 13.283 116.396 6.80061 124.399 6.80061H464.805C472.813 6.80061 479.301 13.283 479.301 21.2856Z" stroke="#1B1918" stroke-width="0.694728" stroke-miterlimit="10" stroke-linecap="round" stroke-linejoin="round"/>
<path d="M479.301 34.198V209.41C479.301 217.413 472.813 223.898 464.805 223.898H124.399C116.396 223.898 109.911 217.413 109.911 209.41V34.198H479.301Z" fill="white"/>
<path d="M479.301 34.198V209.41C479.301 217.413 472.813 223.898 464.805 223.898H124.399C116.396 223.898 109.911 217.413 109.911 209.41V34.198H479.301Z" stroke="#1B1918" stroke-width="1.38945" stroke-miterlimit="10" stroke-linecap="round" stroke-linejoin="round"/>
<path d="M492.473 15.23H89.3579V1.00009H492.473V15.23Z" fill="white"/>
<path d="M492.473 15.23H89.3579V1.00009H492.473V15.23Z" stroke="#1B1918" stroke-width="1.38945" stroke-miterlimit="10" stroke-linecap="round" stroke-linejoin="round"/>
<path d="M109.909 63.7095H479.301" stroke="#1B1918" stroke-width="1.38945" stroke-miterlimit="10" stroke-linecap="round" stroke-linejoin="round" stroke-dasharray="8.34 8.34"/>
<path d="M350.106 122.198H131.514V80.043H350.106V122.198Z" stroke="#1B1918" stroke-width="1.38945" stroke-miterlimit="10" stroke-linecap="round" stroke-linejoin="round" stroke-dasharray="8.34 8.34"/>
<path d="M350.106 209.145H131.514V133.265H350.106V209.145Z" stroke="#1B1918" stroke-width="1.38945" stroke-miterlimit="10" stroke-linecap="round" stroke-linejoin="round" stroke-dasharray="8.34 8.34"/>
<path d="M376.838 36.3068V312.714" stroke="#1B1918" stroke-width="1.38945" stroke-miterlimit="10" stroke-linecap="round" stroke-linejoin="round" stroke-dasharray="8.34 8.34"/>
<path d="M383.044 69.5046H370.746V58.9663H383.044V69.5046Z" fill="#1D1316"/>
<path d="M383.044 69.5046H370.746V58.9663H383.044V69.5046Z" stroke="#1B1918" stroke-width="0.694728" stroke-miterlimit="10" stroke-linecap="round" stroke-linejoin="round"/>
<path d="M18.0449 570.987H656" stroke="#1B1918" stroke-width="2.08419" stroke-miterlimit="10" stroke-linecap="round" stroke-linejoin="round"/>
<path d="M537.991 552.462L544.296 570.503H550.445L557.646 552.462H537.991Z" fill="#1D1316"/>
<path d="M537.991 552.462L544.296 570.503H550.445L557.646 552.462H537.991Z" stroke="#1B1918" stroke-width="0.694728" stroke-miterlimit="10" stroke-linecap="round" stroke-linejoin="round"/>
<path d="M456.588 552.462L462.899 570.503H469.043L476.244 552.462H456.588Z" fill="#1D1316"/>
<path d="M456.588 552.462L462.899 570.503H469.043L476.244 552.462H456.588Z" stroke="#1B1918" stroke-width="0.694728" stroke-miterlimit="10" stroke-linecap="round" stroke-linejoin="round"/>
<path d="M504.241 444.977C504.241 444.977 555.532 434.617 575.906 454.992C596.28 475.366 592.771 518.877 590.662 529.584C588.553 540.289 586.096 553.68 564.316 554.925C542.531 556.174 480.707 562.391 448.212 549.958C426.958 527.168 423.209 457.429 423.209 457.429C423.209 457.429 437.028 438.098 467.003 442.343C496.983 446.589 504.241 444.977 504.241 444.977Z" fill="white"/>
<path d="M504.241 444.977C504.241 444.977 555.532 434.617 575.906 454.992C596.28 475.366 592.771 518.877 590.662 529.584C588.553 540.289 586.096 553.68 564.316 554.925C542.531 556.174 480.707 562.391 448.212 549.958C426.958 527.168 423.209 457.429 423.209 457.429C423.209 457.429 437.028 438.098 467.003 442.343C496.983 446.589 504.241 444.977 504.241 444.977Z" stroke="#1B1918" stroke-width="1.38945" stroke-miterlimit="10" stroke-linecap="round" stroke-linejoin="round"/>
<path d="M514.374 444.492C514.374 444.492 529.187 449.837 530.238 458.026L514.374 444.492Z" fill="white"/>
<path d="M514.374 444.492C514.374 444.492 529.187 449.837 530.238 458.026" stroke="#1B1918" stroke-width="1.38945" stroke-miterlimit="10" stroke-linecap="round" stroke-linejoin="round"/>
<path d="M481.055 448.949C481.055 448.949 474.203 451.711 474.031 458.963L481.055 448.949Z" fill="white"/>
<path d="M481.055 448.949C481.055 448.949 474.203 451.711 474.031 458.963" stroke="#1B1918" stroke-width="1.38945" stroke-miterlimit="10" stroke-linecap="round" stroke-linejoin="round"/>
<path d="M430.998 458.963C430.998 459.481 446.457 470.455 467.705 465.179C488.954 459.903 501.606 467.769 505.121 470.532C508.63 473.294 550.611 478.302 562.03 469.323C573.448 460.345 573.448 460.345 573.448 460.345" fill="white"/>
<path d="M430.998 458.963C430.998 459.481 446.457 470.455 467.705 465.179C488.954 459.903 501.606 467.769 505.121 470.532C508.63 473.294 550.611 478.302 562.03 469.323C573.448 460.345 573.448 460.345 573.448 460.345" stroke="#1B1918" stroke-width="1.38945" stroke-miterlimit="10" stroke-linecap="round" stroke-linejoin="round"/>
<path d="M528.363 285.552C513.373 278.293 513.373 278.293 513.373 278.293C513.373 278.293 503.465 270.743 494.03 263.637C494.634 262.962 495.171 262.302 495.634 261.666C487.225 254.654 484.471 244.191 483.596 238.244C480.202 234.71 481.993 227.826 484.127 222.671C488.959 222.494 492.739 220.562 492.12 215.994C491.505 211.431 486.944 210.637 485.273 211.953C483.602 210.11 484.565 208.444 486.148 203.699C478.582 202.536 476.729 194.533 476.281 191.068C475.849 190.832 475.614 190.704 475.614 190.704C475.614 190.704 470.694 189.649 465.071 196.671C463.738 198.342 461.9 200.722 459.953 203.477C457.761 200.974 454.532 195.593 459.51 189.181C466.419 180.281 476.723 185.318 478.015 186.254C487.611 184.844 503.538 186.954 507.755 210.376C511.973 233.794 525.791 248.784 534.69 255.339C543.588 261.898 541.011 279.229 528.363 285.552Z" fill="#1D1316"/>
<path d="M528.363 285.552C513.373 278.293 513.373 278.293 513.373 278.293C513.373 278.293 503.465 270.743 494.03 263.637C494.634 262.962 495.171 262.302 495.634 261.666C487.225 254.654 484.471 244.191 483.596 238.244C480.202 234.71 481.993 227.826 484.127 222.671C488.959 222.494 492.739 220.562 492.12 215.994C491.505 211.431 486.944 210.637 485.273 211.953C483.602 210.11 484.565 208.444 486.148 203.699C478.582 202.536 476.729 194.533 476.281 191.068C475.849 190.832 475.614 190.704 475.614 190.704C475.614 190.704 470.694 189.649 465.071 196.671C463.738 198.342 461.9 200.722 459.953 203.477C457.761 200.974 454.532 195.593 459.51 189.181C466.419 180.281 476.723 185.318 478.015 186.254C487.611 184.844 503.538 186.954 507.755 210.376C511.973 233.794 525.791 248.784 534.69 255.339C543.588 261.898 541.011 279.229 528.363 285.552V285.552Z" stroke="#1B1918" stroke-width="0.694728" stroke-miterlimit="10" stroke-linecap="round" stroke-linejoin="round"/>
<path d="M448.211 272.379C448.211 272.379 419.226 294.797 403.069 322.845C399.904 302.063 389.016 253.233 385.502 254.99C377.775 262.015 371.803 260.61 370.746 264.123C369.694 267.636 369.694 349.137 384.45 353.704C399.206 358.271 451.549 355.812 451.549 355.812L456.88 334.383" fill="#FF0000"/>
<path d="M448.211 272.379C448.211 272.379 419.226 294.797 403.069 322.845C399.904 302.063 389.016 253.233 385.502 254.99C377.775 262.015 371.803 260.61 370.746 264.123C369.694 267.636 369.694 349.137 384.45 353.704C399.206 358.271 451.549 355.812 451.549 355.812L456.88 334.383" stroke="#1B1918" stroke-width="1.38945" stroke-miterlimit="10" stroke-linecap="round" stroke-linejoin="round"/>
<path d="M372.084 265.21C372.084 265.21 371.996 267.641 377.312 267.055C382.628 266.469 386.819 261.468 386.278 257.773C385.736 254.078 382.175 253.357 379.697 254.168C377.218 254.979 370.866 259.309 372.084 265.21Z" fill="#1D1316"/>
<path d="M372.084 265.21C372.084 265.21 371.996 267.641 377.312 267.055C382.628 266.469 386.819 261.468 386.278 257.773C385.736 254.078 382.175 253.357 379.697 254.168C377.218 254.979 370.866 259.309 372.084 265.21Z" stroke="#1B1918" stroke-width="0.694728" stroke-miterlimit="10" stroke-linecap="round" stroke-linejoin="round"/>
<path d="M447.894 541.512C446.691 539.268 445.811 537.784 445.811 537.784C445.811 537.784 427.426 540.362 426.651 540.71C426.255 540.893 426.562 542.824 426.828 544.985C433.513 548.104 442.333 546.047 447.894 541.512Z" fill="#1D1316"/>
<path d="M447.894 541.512C446.691 539.268 445.811 537.784 445.811 537.784C445.811 537.784 427.426 540.362 426.651 540.71C426.255 540.893 426.562 542.824 426.828 544.985C433.513 548.104 442.333 546.047 447.894 541.512Z" stroke="#1B1918" stroke-width="0.694728" stroke-miterlimit="10" stroke-linecap="round" stroke-linejoin="round"/>
<path d="M447.893 541.512C442.332 546.047 433.512 548.104 426.827 544.985C427.077 547.037 427.295 549.291 426.837 550.431C420.631 551.952 404.709 561.089 400.257 563.896C396.576 566.223 390.734 571.196 414.133 570.982C419.017 570.935 454.823 566.005 454.589 559.095C454.433 554.404 450.439 546.256 447.893 541.512Z" fill="white"/>
<path d="M447.893 541.512C442.332 546.047 433.512 548.104 426.827 544.985C427.077 547.037 427.295 549.291 426.837 550.431C420.631 551.952 404.709 561.089 400.257 563.896C396.576 566.223 390.734 571.196 414.133 570.982C419.017 570.935 454.823 566.005 454.589 559.095C454.433 554.404 450.439 546.256 447.893 541.512V541.512Z" stroke="#1B1918" stroke-width="1.38945" stroke-miterlimit="10" stroke-linecap="round" stroke-linejoin="round"/>
<path d="M316.292 545.303C322.598 548.739 329.391 550.228 336.116 549.952C335.521 546.943 334.564 543.991 334.564 543.991C334.564 543.991 324.26 539.893 319.107 540.242C318.872 541.221 317.602 542.851 315.667 544.72C315.823 544.928 316.024 545.126 316.292 545.303Z" fill="#1D1316"/>
<path d="M316.292 545.303C322.598 548.739 329.391 550.228 336.116 549.952C335.521 546.943 334.564 543.991 334.564 543.991C334.564 543.991 324.26 539.893 319.107 540.242C318.872 541.221 317.602 542.851 315.667 544.72C315.823 544.928 316.024 545.126 316.292 545.303Z" stroke="#1B1918" stroke-width="0.694728" stroke-miterlimit="10" stroke-linecap="round" stroke-linejoin="round"/>
<path d="M336.116 549.952C329.391 550.228 322.598 548.739 316.292 545.303C316.024 545.126 315.823 544.928 315.667 544.72C311.806 548.448 305.284 553.129 298.966 555.466C289.481 558.981 279.879 565.77 283.743 570.337C287.607 574.903 300.84 573.851 308.685 571.862C316.531 569.868 325.196 569.519 332.222 567.765C339.245 566.005 336.908 555.352 336.439 551.837C336.356 551.223 336.246 550.588 336.116 549.952Z" fill="white"/>
<path d="M336.116 549.952C329.391 550.228 322.598 548.739 316.292 545.303C316.024 545.126 315.823 544.928 315.667 544.72C311.806 548.448 305.284 553.129 298.966 555.466C289.481 558.981 279.879 565.77 283.743 570.337C287.607 574.903 300.84 573.851 308.685 571.862C316.531 569.868 325.196 569.519 332.222 567.765C339.245 566.005 336.908 555.352 336.439 551.837C336.356 551.223 336.246 550.588 336.116 549.952V549.952Z" stroke="#1B1918" stroke-width="1.38945" stroke-miterlimit="10" stroke-linecap="round" stroke-linejoin="round"/>
<path d="M449.44 371.035C449.44 371.035 388.314 366.117 365.362 396.797C342.411 427.477 321.801 489.774 316.648 538.253C315.477 544.574 331.871 546.448 334.915 545.745C342.646 539.893 380.821 466.588 392.76 453.473C404.709 440.358 420.283 403.062 420.283 403.062L470.725 395.684L463.498 370.745" fill="white"/>
<path d="M449.44 371.035C449.44 371.035 388.314 366.117 365.362 396.797C342.411 427.477 321.801 489.774 316.648 538.253C315.477 544.574 331.871 546.448 334.915 545.745C342.646 539.893 380.821 466.588 392.76 453.473C404.709 440.358 420.283 403.062 420.283 403.062L470.725 395.684L463.498 370.745" stroke="#1B1918" stroke-width="1.38945" stroke-miterlimit="10" stroke-linecap="round" stroke-linejoin="round"/>
<path d="M543.588 386.023C543.588 386.023 562.556 420.217 520.168 441.997C477.775 463.777 417.82 422.09 417.82 422.09C417.82 422.09 451.549 490.008 448.212 538.133C445.577 542.705 425.901 544.105 423.443 541.299C420.986 538.487 363.368 441.88 383.393 408.155C403.418 374.431 458.573 372.674 458.573 372.674L543.588 386.023Z" fill="white"/>
<path d="M543.588 386.023C543.588 386.023 562.556 420.217 520.168 441.997C477.775 463.777 417.82 422.09 417.82 422.09C417.82 422.09 451.549 490.008 448.212 538.133C445.577 542.705 425.901 544.105 423.443 541.299C420.986 538.487 363.368 441.88 383.393 408.155C403.418 374.431 458.573 372.674 458.573 372.674L543.588 386.023Z" stroke="#1B1918" stroke-width="1.38945" stroke-miterlimit="10" stroke-linecap="round" stroke-linejoin="round"/>
<path d="M450.632 376.771C450.632 376.771 492.671 395.652 517.32 393.112C541.968 390.571 538.225 384.22 538.225 384.22L450.632 370.283L445.655 374.036L450.632 376.771Z" fill="#1D1316"/>
<path d="M450.632 376.771C450.632 376.771 492.671 395.652 517.32 393.112C541.968 390.571 538.225 384.22 538.225 384.22L450.632 370.283L445.655 374.036L450.632 376.771Z" stroke="#1B1918" stroke-width="0.694728" stroke-miterlimit="10" stroke-linecap="round" stroke-linejoin="round"/>
<path d="M443.816 280.985C443.816 280.985 425.551 299.604 430.118 337.193C432.929 362.838 443.816 372.674 443.816 372.674C443.816 372.674 511.972 392.698 527.426 390.239C542.884 387.78 539.474 374.782 539.948 363.541C540.427 352.299 529.357 275.716 512.498 268.69C495.633 261.664 488.781 260.258 488.781 260.258L461.733 267.987L448.929 272.729" fill="#FF0000"/>
<path d="M443.816 280.985C443.816 280.985 425.551 299.604 430.118 337.193C432.929 362.838 443.816 372.674 443.816 372.674C443.816 372.674 511.972 392.698 527.426 390.239C542.884 387.78 539.474 374.782 539.948 363.541C540.427 352.299 529.357 275.716 512.498 268.69C495.633 261.664 488.781 260.258 488.781 260.258L461.733 267.987L448.929 272.729" stroke="#1B1918" stroke-width="1.38945" stroke-miterlimit="10" stroke-linecap="round" stroke-linejoin="round"/>
<path d="M494.691 260.841C494.691 260.841 520.047 264.65 539.546 291.876C559.046 319.101 559.394 373.377 546.399 386.726C533.397 400.075 497.039 413.6 471.396 365.999C468.584 355.636 475.259 347.908 479.826 348.259C486.147 348.61 503.537 352.123 515.835 366.878C524.088 365.121 529.768 356.391 524.145 322.845" fill="#FF0000"/>
<path d="M494.691 260.841C494.691 260.841 520.047 264.65 539.546 291.876C559.046 319.101 559.394 373.377 546.399 386.726C533.397 400.075 497.039 413.6 471.396 365.999C468.584 355.636 475.259 347.908 479.826 348.259C486.147 348.61 503.537 352.123 515.835 366.878C524.088 365.121 529.768 356.391 524.145 322.845" stroke="#1B1918" stroke-width="1.38945" stroke-miterlimit="10" stroke-linecap="round" stroke-linejoin="round"/>
<path d="M481.847 350.455C481.847 350.455 476.151 344.834 463.499 350.015C455.762 353.177 455.939 357.656 455.939 357.656L485.096 358.008C485.096 358.008 483.868 352.65 481.847 350.455Z" fill="white"/>
<path d="M481.847 350.455C481.847 350.455 476.151 344.834 463.499 350.015C455.762 353.177 455.939 357.656 455.939 357.656L485.096 358.008C485.096 358.008 483.868 352.65 481.847 350.455Z" stroke="#1B1918" stroke-width="1.38945" stroke-miterlimit="10" stroke-linecap="round" stroke-linejoin="round"/>
<path d="M368.643 349.328H443.583V356.501H368.643V349.328Z" fill="white"/>
<path d="M368.643 349.328H443.583V356.501H368.643V349.328Z" stroke="#1B1918" stroke-width="1.38945" stroke-miterlimit="10" stroke-linecap="round" stroke-linejoin="round"/>
<path d="M376.838 356.474H372.824L350.107 301.242H354.121L376.838 356.474Z" fill="#1D1316"/>
<path d="M376.838 356.474H372.824L350.107 301.242H354.121L376.838 356.474Z" stroke="#1B1918" stroke-width="0.694728" stroke-miterlimit="10" stroke-linecap="round" stroke-linejoin="round"/>
<path d="M372.824 356.474H283.597L260.174 301.242H350.108L372.824 356.474Z" fill="white"/>
<path d="M372.824 356.474H283.597L260.174 301.242H350.108L372.824 356.474Z" stroke="#1B1918" stroke-width="1.38945" stroke-miterlimit="10" stroke-linecap="round" stroke-linejoin="round"/>
<path d="M496.16 367.229H225.311V356.501H496.16V367.229Z" fill="#1D1316"/>
<path d="M496.16 367.229H225.311V356.501H496.16V367.229Z" stroke="#1B1918" stroke-width="0.694728" stroke-miterlimit="10" stroke-linecap="round" stroke-linejoin="round"/>
<path d="M384.274 257.624C384.274 257.624 387.434 241.64 384.711 237.688C381.988 233.736 378.65 230.75 376.458 230.75C374.261 230.75 367.763 236.019 367.763 240.059C367.763 244.099 367.237 252.087 369.169 254.943C371.101 257.799 373.381 261.4 373.381 263.86C373.381 266.319 382.253 266.055 384.274 257.624Z" fill="white"/>
<path d="M384.274 257.624C384.274 257.624 387.434 241.64 384.711 237.688C381.988 233.736 378.65 230.75 376.458 230.75C374.261 230.75 367.763 236.019 367.763 240.059C367.763 244.099 367.237 252.087 369.169 254.943C371.101 257.799 373.381 261.4 373.381 263.86C373.381 266.319 382.253 266.055 384.274 257.624Z" stroke="#1B1918" stroke-width="1.38945" stroke-miterlimit="10" stroke-linecap="round" stroke-linejoin="round"/>
<path d="M380.587 240.515C380.587 240.515 383.737 254.201 379.156 255.048C374.579 255.895 372.824 254.454 372.824 254.454" fill="white"/>
<path d="M380.587 240.515C380.587 240.515 383.737 254.201 379.156 255.048C374.579 255.895 372.824 254.454 372.824 254.454" stroke="#1B1918" stroke-width="1.38945" stroke-miterlimit="10" stroke-linecap="round" stroke-linejoin="round"/>
<path d="M483.595 238.243C480.201 234.71 481.992 227.825 484.127 222.671C488.958 222.494 492.738 220.562 492.119 215.994C491.504 211.431 486.943 210.637 485.272 211.953C483.601 210.11 484.564 208.444 486.147 203.699C478.581 202.535 476.728 194.532 476.28 191.068C475.848 190.832 475.614 190.703 475.614 190.703C475.614 190.703 470.693 189.649 465.07 196.671C463.737 198.341 461.899 200.722 459.952 203.477C453.704 212.317 446.373 224.997 451.194 230.22C454.547 233.853 458.692 235.557 462.55 236.05L462.961 241.993C463.487 253.762 455.412 266.057 448.206 272.379C468.517 282.451 486.563 271.941 494.03 263.637C494.634 262.962 495.17 262.302 495.633 261.666C487.225 254.653 484.47 244.191 483.595 238.243Z" fill="white"/>
<path d="M483.595 238.243C480.201 234.71 481.992 227.825 484.127 222.671C488.958 222.494 492.738 220.562 492.119 215.994C491.504 211.431 486.943 210.637 485.272 211.953C483.601 210.11 484.564 208.444 486.147 203.699C478.581 202.535 476.728 194.532 476.28 191.068C475.848 190.832 475.614 190.703 475.614 190.703C475.614 190.703 470.693 189.649 465.07 196.671C463.737 198.341 461.899 200.722 459.952 203.477C453.704 212.317 446.373 224.997 451.194 230.22C454.547 233.853 458.692 235.557 462.55 236.05L462.961 241.993C463.487 253.762 455.412 266.057 448.206 272.379C468.517 282.451 486.563 271.941 494.03 263.637C494.634 262.962 495.17 262.302 495.633 261.666C487.225 254.653 484.47 244.191 483.595 238.243V238.243Z" stroke="#1B1918" stroke-width="1.38945" stroke-miterlimit="10" stroke-linecap="round" stroke-linejoin="round"/>
<path d="M469.194 235.101C469.194 235.101 464.206 239.494 462.644 238.773C462.644 236.491 462.644 236.491 462.644 236.491L469.194 235.101Z" fill="#1D1316"/>
<path d="M469.194 235.101C469.194 235.101 464.206 239.494 462.644 238.773C462.644 236.491 462.644 236.491 462.644 236.491L469.194 235.101Z" stroke="#1B1918" stroke-width="0.694728" stroke-miterlimit="10" stroke-linecap="round" stroke-linejoin="round"/>
<path d="M469.288 234.77C469.288 234.77 466.289 236.199 462.551 236.05L469.288 234.77Z" fill="white"/>
<path d="M469.288 234.77C469.288 234.77 466.289 236.199 462.551 236.05" stroke="#1B1918" stroke-width="1.38945" stroke-miterlimit="10" stroke-linecap="round" stroke-linejoin="round"/>
<path d="M102.144 455.113C98.5764 450.06 92.9182 446.07 86.7327 446.127C78.9435 446.199 72.6096 452.353 65.1296 454.527C55.0739 457.449 43.4125 452.073 38.6697 442.737C33.9269 433.402 36.2387 421.146 43.7155 413.815C47.5955 410.011 53.0272 406.799 53.6926 401.405C54.2367 397 51.1944 392.916 47.6992 390.18C44.2044 387.443 40.089 385.481 36.9859 382.308C30.7571 375.937 30.1099 364.9 35.5509 357.846C40.9919 350.791 51.8312 348.614 59.5746 353.02C63.6743 355.352 66.8385 359.203 71.1756 361.056C77.4752 363.749 84.712 361.668 91.1391 359.294C97.5658 356.92 104.404 354.225 111.071 355.802C116.255 357.029 120.721 360.957 122.598 365.943C124.476 370.929 123.71 376.827 120.622 381.168C117.712 385.26 112.725 388.487 112.505 393.504C112.281 398.616 117.439 402.469 122.461 403.452C127.483 404.435 132.707 403.557 137.767 404.322C142.827 405.087 148.212 408.373 148.652 413.471C149.336 421.419 138.003 426.686 138.938 434.608C139.372 438.293 142.383 441.036 144.669 443.96C147.372 447.419 149.251 451.633 149.392 456.022C149.532 460.41 147.779 464.947 144.329 467.664C139.98 471.089 133.955 471.142 128.42 471.039C123.66 470.95 114.402 472.679 110.128 470.251C105.969 467.888 105.08 459.026 102.144 455.113Z" fill="white"/>
<path d="M102.144 455.113C98.5764 450.06 92.9182 446.07 86.7327 446.127C78.9435 446.199 72.6096 452.353 65.1296 454.527C55.0739 457.449 43.4125 452.073 38.6697 442.737C33.9269 433.402 36.2387 421.146 43.7155 413.815C47.5955 410.011 53.0272 406.799 53.6926 401.405C54.2367 397 51.1944 392.916 47.6992 390.18C44.2044 387.443 40.089 385.481 36.9859 382.308C30.7571 375.937 30.1099 364.9 35.5509 357.846C40.9919 350.791 51.8312 348.614 59.5746 353.02C63.6743 355.352 66.8385 359.203 71.1756 361.056C77.4752 363.749 84.712 361.668 91.1391 359.294C97.5658 356.92 104.404 354.225 111.071 355.802C116.255 357.029 120.721 360.957 122.598 365.943C124.476 370.929 123.71 376.827 120.622 381.168C117.712 385.26 112.725 388.487 112.505 393.504C112.281 398.616 117.439 402.469 122.461 403.452C127.483 404.435 132.707 403.557 137.767 404.322C142.827 405.087 148.212 408.373 148.652 413.471C149.336 421.419 138.003 426.686 138.938 434.608C139.372 438.293 142.383 441.036 144.669 443.96C147.372 447.419 149.251 451.633 149.392 456.022C149.532 460.41 147.779 464.947 144.329 467.664C139.98 471.089 133.955 471.142 128.42 471.039C123.66 470.95 114.402 472.679 110.128 470.251C105.969 467.888 105.08 459.026 102.144 455.113V455.113Z" stroke="#1B1918" stroke-width="1.38945" stroke-miterlimit="10" stroke-linecap="round" stroke-linejoin="round"/>
<path d="M96.0303 328.583C95.4831 321.899 98.958 314.371 105.427 312.601C109.797 311.407 115.251 312.732 118.336 309.415C122.035 305.441 118.733 298.939 119.868 293.63C120.586 290.268 123.192 287.491 126.318 286.061C129.445 284.631 133.029 284.434 136.427 284.956C143.449 286.035 149.936 290.217 153.819 296.167C157.702 302.116 158.918 309.738 157.079 316.6C155.415 322.808 151.365 328.839 152.744 335.115C154.279 342.098 162.006 346.34 163.766 353.269C164.924 357.833 163.236 362.62 161.153 366.841C159.07 371.062 156.525 375.192 155.818 379.846C154.922 385.755 157.099 391.633 158.785 397.366C160.47 403.101 161.627 409.534 158.894 414.85C156.765 418.994 152.505 421.764 147.989 422.911C143.474 424.057 138.706 423.742 134.118 422.933C127.523 421.77 121.023 419.558 115.545 415.707C110.067 411.855 105.665 406.261 104.008 399.772C102.286 393.026 103.667 386.069 106.077 379.677C107.987 374.608 111.827 369.226 111.584 363.596C111.334 357.831 106.864 352.432 104.016 347.699C100.463 341.795 96.6067 335.624 96.0303 328.583Z" fill="white"/>
<path d="M96.0303 328.583C95.4831 321.899 98.958 314.371 105.427 312.601C109.797 311.407 115.251 312.732 118.336 309.415C122.035 305.441 118.733 298.939 119.868 293.63C120.586 290.268 123.192 287.491 126.318 286.061C129.445 284.631 133.029 284.434 136.427 284.956C143.449 286.035 149.936 290.217 153.819 296.167C157.702 302.116 158.918 309.738 157.079 316.6C155.415 322.808 151.365 328.839 152.744 335.115C154.279 342.098 162.006 346.34 163.766 353.269C164.924 357.833 163.236 362.62 161.153 366.841C159.07 371.062 156.525 375.192 155.818 379.846C154.922 385.755 157.099 391.633 158.785 397.366C160.47 403.101 161.627 409.534 158.894 414.85C156.765 418.994 152.505 421.764 147.989 422.911C143.474 424.057 138.706 423.742 134.118 422.933C127.523 421.77 121.023 419.558 115.545 415.707C110.067 411.855 105.665 406.261 104.008 399.772C102.286 393.026 103.667 386.069 106.077 379.677C107.987 374.608 111.827 369.226 111.584 363.596C111.334 357.831 106.864 352.432 104.016 347.699C100.463 341.795 96.6067 335.624 96.0303 328.583V328.583Z" stroke="#1B1918" stroke-width="1.38945" stroke-miterlimit="10" stroke-linecap="round" stroke-linejoin="round"/>
<path d="M58.3276 374.548C58.3276 374.548 93.9258 386.258 103.528 414.83C113.13 443.402 122.643 469.209 137.298 470.589" fill="white"/>
<path d="M58.3276 374.548C58.3276 374.548 93.9258 386.258 103.528 414.83C113.13 443.402 122.643 469.209 137.298 470.589" stroke="#1B1918" stroke-width="1.38945" stroke-miterlimit="10" stroke-linecap="round" stroke-linejoin="round"/>
<path d="M94.3944 377.944C94.3944 378.529 90.1905 386.69 93.4634 397.657L94.3944 377.944Z" fill="white"/>
<path d="M94.3944 377.944C94.3944 378.529 90.1905 386.69 93.4634 397.657" stroke="#1B1918" stroke-width="1.38945" stroke-miterlimit="10" stroke-linecap="round" stroke-linejoin="round"/>
<path d="M83.98 425.018C83.98 425.018 102.789 438.849 110.477 434.568L83.98 425.018Z" fill="white"/>
<path d="M83.98 425.018C83.98 425.018 102.789 438.849 110.477 434.568" stroke="#1B1918" stroke-width="1.38945" stroke-miterlimit="10" stroke-linecap="round" stroke-linejoin="round"/>
<path d="M63.8306 389.068C63.8306 389.068 79.3038 396.659 83.9799 388.707L63.8306 389.068Z" fill="white"/>
<path d="M63.8306 389.068C63.8306 389.068 79.3038 396.659 83.9799 388.707" stroke="#1B1918" stroke-width="1.38945" stroke-miterlimit="10" stroke-linecap="round" stroke-linejoin="round"/>
<path d="M135.612 312.714C135.612 312.714 121.795 378.997 133.973 410.146L135.612 312.714Z" fill="white"/>
<path d="M135.612 312.714C135.612 312.714 121.795 378.997 133.973 410.146" stroke="#1B1918" stroke-width="1.38945" stroke-miterlimit="10" stroke-linecap="round" stroke-linejoin="round"/>
<path d="M141.467 328.858C141.467 328.858 136.556 339.283 130.932 342.98L141.467 328.858Z" fill="white"/>
<path d="M141.467 328.858C141.467 328.858 136.556 339.283 130.932 342.98" stroke="#1B1918" stroke-width="1.38945" stroke-miterlimit="10" stroke-linecap="round" stroke-linejoin="round"/>
<path d="M115.94 345.039C116.175 345.975 120.424 359.554 128.956 361.43L115.94 345.039Z" fill="white"/>
<path d="M115.94 345.039C116.175 345.975 120.424 359.554 128.956 361.43" stroke="#1B1918" stroke-width="1.38945" stroke-miterlimit="10" stroke-linecap="round" stroke-linejoin="round"/>
<path d="M128.955 316.466C128.955 316.466 128.85 324.743 133.115 326.851L128.955 316.466Z" fill="white"/>
<path d="M128.955 316.466C128.955 316.466 128.85 324.743 133.115 326.851" stroke="#1B1918" stroke-width="1.38945" stroke-miterlimit="10" stroke-linecap="round" stroke-linejoin="round"/>
<path d="M169.882 475.252C168.552 467.593 174.56 460.387 181.46 456.808C188.361 453.229 196.257 452.087 203.457 449.158C217.718 443.356 228.727 430.157 231.875 415.087C233.314 408.202 232.852 400.177 227.766 395.318C225.975 393.607 223.743 392.425 221.863 390.812C219.982 389.199 218.395 386.906 218.622 384.438C218.858 381.874 220.962 379.88 223.162 378.541C225.362 377.202 227.831 376.222 229.664 374.413C233.164 370.963 233.461 365.306 232.08 360.59C228.977 349.986 217.953 342.29 206.93 343.029C195.907 343.769 186.011 352.87 184.353 363.792C183.901 366.762 183.909 370.038 182.002 372.358C179.168 375.806 173.702 375.263 169.591 373.527C165.479 371.792 161.481 369.136 157.022 369.324C150.014 369.619 145.423 376.541 142.031 382.68C137.109 391.589 132.153 400.573 129.102 410.283C126.051 419.994 124.999 430.602 127.974 440.337C131.89 453.148 142.122 462.87 151.953 471.97C157.848 471.031 164.744 472.214 169.882 475.252Z" fill="white"/>
<path d="M169.882 475.252C168.552 467.593 174.56 460.387 181.46 456.808C188.361 453.229 196.257 452.087 203.457 449.158C217.718 443.356 228.727 430.157 231.875 415.087C233.314 408.202 232.852 400.177 227.766 395.318C225.975 393.607 223.743 392.425 221.863 390.812C219.982 389.199 218.395 386.906 218.622 384.438C218.858 381.874 220.962 379.88 223.162 378.541C225.362 377.202 227.831 376.222 229.664 374.413C233.164 370.963 233.461 365.306 232.08 360.59C228.977 349.986 217.953 342.29 206.93 343.03C195.907 343.769 186.011 352.87 184.353 363.792C183.901 366.762 183.909 370.038 182.002 372.358C179.168 375.806 173.702 375.263 169.591 373.527C165.479 371.792 161.481 369.136 157.022 369.324C150.014 369.619 145.423 376.541 142.031 382.68C137.109 391.589 132.153 400.573 129.102 410.283C126.051 419.994 124.999 430.602 127.974 440.337C131.89 453.148 142.122 462.87 151.953 471.97C157.848 471.031 164.744 472.214 169.882 475.252V475.252Z" stroke="#1B1918" stroke-width="1.38945" stroke-miterlimit="10" stroke-linecap="round" stroke-linejoin="round"/>
<path d="M156.807 468.227C156.807 468.227 156.807 428.882 200.368 384.267L156.807 468.227Z" fill="white"/>
<path d="M156.807 468.227C156.807 468.227 156.807 428.882 200.368 384.267" stroke="#1B1918" stroke-width="1.38945" stroke-miterlimit="10" stroke-linecap="round" stroke-linejoin="round"/>
<path d="M212.313 387.341C212.313 387.341 213.275 393.913 192.857 392.384L212.313 387.341Z" fill="white"/>
<path d="M212.313 387.341C212.313 387.341 213.275 393.913 192.857 392.384" stroke="#1B1918" stroke-width="1.38945" stroke-miterlimit="10" stroke-linecap="round" stroke-linejoin="round"/>
<path d="M178.148 390.679C178.148 390.679 172.86 403.224 180.598 407.973L178.148 390.679Z" fill="white"/>
<path d="M178.148 390.679C178.148 390.679 172.86 403.224 180.598 407.973" stroke="#1B1918" stroke-width="1.38945" stroke-miterlimit="10" stroke-linecap="round" stroke-linejoin="round"/>
<path d="M198.172 418.431C198.172 418.431 176.428 427.087 169.867 425.569L198.172 418.431Z" fill="white"/>
<path d="M198.172 418.431C198.172 418.431 176.428 427.087 169.867 425.569" stroke="#1B1918" stroke-width="1.38945" stroke-miterlimit="10" stroke-linecap="round" stroke-linejoin="round"/>
<path d="M155.929 425.748C155.929 425.748 164.244 436.626 162.109 443.388L155.929 425.748Z" fill="white"/>
<path d="M155.929 425.748C155.929 425.748 164.244 436.626 162.109 443.388" stroke="#1B1918" stroke-width="1.38945" stroke-miterlimit="10" stroke-linecap="round" stroke-linejoin="round"/>
<path d="M180.344 464.363L102.004 466.12L103.248 473.146H179.377L180.344 464.363Z" fill="white"/>
<path d="M180.344 464.363L102.004 466.12L103.248 473.146H179.377L180.344 464.363Z" stroke="#1B1918" stroke-width="1.38945" stroke-miterlimit="10" stroke-linecap="round" stroke-linejoin="round"/>
<path d="M103.991 477.339L115.06 539.893H172.033L178.917 477.339H103.991Z" fill="white"/>
<path d="M103.991 477.339L115.06 539.893H172.033L178.917 477.339H103.991Z" stroke="#1B1918" stroke-width="1.38945" stroke-miterlimit="10" stroke-linecap="round" stroke-linejoin="round"/>
<path d="M179.378 473.145H103.248L103.99 477.339H178.916L179.378 473.145Z" fill="#1D1316"/>
<path d="M179.378 473.145H103.248L103.99 477.339H178.916L179.378 473.145Z" stroke="#1B1918" stroke-width="0.694728" stroke-miterlimit="10" stroke-linecap="round" stroke-linejoin="round"/>
<path d="M115.06 539.893L122.029 579.281H167.698L172.032 539.893H115.06Z" fill="#1D1316"/>
<path d="M115.06 539.893L122.029 579.281H167.698L172.032 539.893H115.06Z" stroke="#1B1918" stroke-width="0.694728" stroke-miterlimit="10" stroke-linecap="round" stroke-linejoin="round"/>
<path d="M145.198 55.103H136.8C135.239 55.103 133.974 53.8326 133.974 52.2758V47.3867C133.974 45.8299 135.239 44.5595 136.8 44.5595H145.198C146.76 44.5595 148.025 45.8299 148.025 47.3867V52.2758C148.025 53.8326 146.76 55.103 145.198 55.103Z" fill="white"/>
<path d="M145.198 55.103H136.8C135.239 55.103 133.974 53.8326 133.974 52.2758V47.3867C133.974 45.8299 135.239 44.5595 136.8 44.5595H145.198C146.76 44.5595 148.025 45.8299 148.025 47.3867V52.2758C148.025 53.8326 146.76 55.103 145.198 55.103Z" stroke="#1B1918" stroke-width="1.38945" stroke-miterlimit="10" stroke-linecap="round" stroke-linejoin="round"/>
<path d="M257.147 55.103H171.168C169.736 55.103 168.576 53.9419 168.576 52.5101V48.0323C168.576 46.6005 169.736 45.4394 171.168 45.4394H257.147C258.578 45.4394 259.738 46.6005 259.738 48.0323V52.5101C259.738 53.9419 258.578 55.103 257.147 55.103Z" fill="white"/>
<path d="M257.147 55.103H171.168C169.736 55.103 168.576 53.9419 168.576 52.5101V48.0323C168.576 46.6005 169.736 45.4394 171.168 45.4394H257.147C258.578 45.4394 259.738 46.6005 259.738 48.0323V52.5101C259.738 53.9419 258.578 55.103 257.147 55.103Z" stroke="#1B1918" stroke-width="1.38945" stroke-miterlimit="10" stroke-linecap="round" stroke-linejoin="round"/>
<path d="M97.8122 272.476C97.8122 283.618 88.7791 292.651 77.6368 292.651C66.4945 292.651 57.4619 283.618 57.4619 272.476C57.4619 261.333 66.4945 252.301 77.6368 252.301C88.7791 252.301 97.8122 261.333 97.8122 272.476Z" fill="white"/>
<path d="M97.8122 272.476C97.8122 283.618 88.7791 292.651 77.6368 292.651C66.4945 292.651 57.4619 283.618 57.4619 272.476C57.4619 261.333 66.4945 252.301 77.6368 252.301C88.7791 252.301 97.8122 261.333 97.8122 272.476Z" stroke="#1B1918" stroke-width="1.38945" stroke-miterlimit="10" stroke-linecap="round" stroke-linejoin="round"/>
<path d="M73.2302 212.168C73.2302 217.083 69.2455 221.067 64.3309 221.067C59.4163 221.067 55.4321 217.083 55.4321 212.168C55.4321 207.254 59.4163 203.27 64.3309 203.27C69.2455 203.27 73.2302 207.254 73.2302 212.168Z" fill="white"/>
<path d="M73.2302 212.168C73.2302 217.083 69.2455 221.067 64.3309 221.067C59.4163 221.067 55.4321 217.083 55.4321 212.168C55.4321 207.254 59.4163 203.27 64.3309 203.27C69.2455 203.27 73.2302 207.254 73.2302 212.168Z" stroke="#1B1918" stroke-width="1.38945" stroke-miterlimit="10" stroke-linecap="round" stroke-linejoin="round"/>
<path d="M541.489 49.8285C541.489 60.4242 532.898 69.01 522.307 69.01C511.712 69.01 503.126 60.4242 503.126 49.8285C503.126 39.2381 511.712 30.647 522.307 30.647C532.898 30.647 541.489 39.2381 541.489 49.8285Z" fill="white"/>
<path d="M541.489 49.8285C541.489 60.4242 532.898 69.01 522.307 69.01C511.712 69.01 503.126 60.4242 503.126 49.8285C503.126 39.2381 511.712 30.647 522.307 30.647C532.898 30.647 541.489 39.2381 541.489 49.8285Z" stroke="#1B1918" stroke-width="1.38945" stroke-miterlimit="10" stroke-linecap="round" stroke-linejoin="round"/>
<path d="M532.606 58.3882H512.003C512.003 58.3882 511.81 56.0035 513.05 55.4307C514.294 54.858 515.247 43.1273 518.777 41.6955C519.329 41.4716 519.792 41.2842 520.183 41.1228C520.073 40.8572 520.016 40.5708 520.016 40.2636C520.016 38.9984 521.042 37.9727 522.302 37.9727C523.567 37.9727 524.593 38.9984 524.593 40.2636C524.593 40.5708 524.536 40.8572 524.426 41.1228C524.817 41.2842 525.285 41.4716 525.832 41.6955C529.362 43.1273 530.32 54.858 531.559 55.4307C532.799 56.0035 532.606 58.3882 532.606 58.3882Z" fill="#1B1918"/>
<path d="M532.606 58.3882H512.003C512.003 58.3882 511.81 56.0035 513.05 55.4307C514.294 54.858 515.247 43.1273 518.777 41.6955C519.329 41.4716 519.792 41.2842 520.183 41.1228C520.073 40.8572 520.016 40.5708 520.016 40.2636C520.016 38.9984 521.042 37.9727 522.302 37.9727C523.567 37.9727 524.593 38.9984 524.593 40.2636C524.593 40.5708 524.536 40.8572 524.426 41.1228C524.817 41.2842 525.285 41.4716 525.832 41.6955C529.362 43.1273 530.32 54.858 531.559 55.4307C532.799 56.0035 532.606 58.3882 532.606 58.3882V58.3882Z" stroke="#1B1918" stroke-width="1.38945" stroke-miterlimit="10" stroke-linecap="round" stroke-linejoin="round"/>
<path d="M525.604 58.3885C525.604 60.2108 524.125 61.6843 522.303 61.6843C520.486 61.6843 519.007 60.2108 519.007 58.3885H525.604Z" fill="#1B1918"/>
<path d="M525.604 58.3885C525.604 60.2108 524.125 61.6843 522.303 61.6843C520.486 61.6843 519.007 60.2108 519.007 58.3885H525.604Z" stroke="#1B1918" stroke-width="1.38945" stroke-miterlimit="10" stroke-linecap="round" stroke-linejoin="round"/>
<path d="M376.838 256.737V311.166" stroke="#1B1918" stroke-width="1.38945" stroke-miterlimit="10" stroke-linecap="round" stroke-linejoin="round" stroke-dasharray="8.34 8.34"/>
<path d="M52.3379 138.999L48.3396 144.705C38.7161 137.954 25.475 137.818 15.5703 145.275L11.3794 139.709C23.7594 130.386 40.3093 130.556 52.3379 138.999Z" fill="white"/>
<path d="M52.3379 138.999L48.3396 144.705C38.7161 137.954 25.475 137.818 15.5703 145.275L11.3794 139.709C23.7594 130.386 40.3093 130.556 52.3379 138.999V138.999Z" stroke="#1B1918" stroke-width="1.38945" stroke-miterlimit="10" stroke-linecap="round" stroke-linejoin="round"/>
<path d="M62.7155 123.892L56.6903 132.489C42.1896 122.317 22.2386 122.113 7.31468 133.348L1 124.961C19.6545 110.913 44.591 111.171 62.7155 123.892Z" fill="white"/>
<path d="M62.7155 123.892L56.6903 132.489C42.1896 122.317 22.2386 122.113 7.31468 133.348L1 124.961C19.6545 110.913 44.591 111.171 62.7155 123.892Z" stroke="#1B1918" stroke-width="1.38945" stroke-miterlimit="10" stroke-linecap="round" stroke-linejoin="round"/>
<path d="M44.3378 150.415L40.3359 156.126C35.526 152.747 28.9046 152.68 23.9531 156.41L19.7622 150.841C27.1911 145.247 37.1213 145.351 44.3378 150.415Z" fill="white"/>
<path d="M44.3378 150.415L40.3359 156.126C35.526 152.747 28.9046 152.68 23.9531 156.41L19.7622 150.841C27.1911 145.247 37.1213 145.351 44.3378 150.415V150.415Z" stroke="#1B1918" stroke-width="1.38945" stroke-miterlimit="10" stroke-linecap="round" stroke-linejoin="round"/>
<path d="M38.9995 169.582C38.5856 170.941 37.752 172.187 36.5279 173.109C35.3038 174.03 33.8777 174.488 32.4568 174.509C30.3033 174.547 28.1659 173.586 26.7711 171.733C26.3186 171.132 25.9791 170.483 25.7469 169.81C24.7884 167.031 25.6683 163.841 28.1441 161.976H28.1462C30.622 160.111 33.9324 160.147 36.3373 161.835C36.921 162.243 37.4516 162.748 37.9035 163.349C39.2984 165.202 39.6306 167.523 38.9995 169.582Z" fill="white"/>
<path d="M38.9995 169.582C38.5856 170.941 37.752 172.187 36.5279 173.109C35.3038 174.03 33.8777 174.488 32.4568 174.509C30.3033 174.547 28.1659 173.586 26.7711 171.733C26.3186 171.132 25.9791 170.483 25.7469 169.81C24.7884 167.031 25.6683 163.841 28.1441 161.976H28.1462C30.622 160.111 33.9324 160.147 36.3373 161.835C36.921 162.243 37.4516 162.748 37.9035 163.349C39.2984 165.202 39.6306 167.523 38.9995 169.582V169.582Z" stroke="#1B1918" stroke-width="1.38945" stroke-miterlimit="10" stroke-linecap="round" stroke-linejoin="round"/>
</svg>
