<?xml version="1.0" standalone="no"?>
<!DOCTYPE svg PUBLIC "-//W3C//DTD SVG 20010904//EN"
 "http://www.w3.org/TR/2001/REC-SVG-20010904/DTD/svg10.dtd">
<svg version="1.0" xmlns="http://www.w3.org/2000/svg"
 width="180.000000pt" height="180.000000pt" viewBox="0 0 180.000000 180.000000"
 preserveAspectRatio="xMidYMid meet">
<metadata>
Created by potrace 1.14, written by Peter Selinger 2001-2017
</metadata>
<g transform="translate(0.000000,180.000000) scale(0.100000,-0.100000)"
fill="#000000" stroke="none">
<path d="M21 1788 c-1 -10 -5 -18 -9 -18 -4 0 -9 -13 -10 -30 -1 -17 3 -30 9
-30 8 0 8 -4 0 -14 -14 -17 -11 -105 4 -125 7 -11 7 -13 -1 -8 -6 3 -11 0 -11
-8 0 -8 5 -11 11 -8 6 3 5 0 -1 -8 -20 -21 -17 -42 5 -30 14 7 19 6 19 -4 0
-7 -6 -11 -13 -8 -18 7 -29 -18 -13 -28 11 -7 11 -9 1 -9 -8 0 -11 -10 -9 -27
3 -16 9 -27 14 -26 5 1 10 -4 10 -12 0 -7 -6 -11 -12 -9 -16 6 -17 -193 -2
-203 6 -4 7 -1 2 7 -6 9 -4 11 4 6 9 -6 9 -12 -3 -25 -11 -13 -15 -41 -14
-119 1 -60 4 -98 9 -90 6 9 9 9 9 1 0 -6 -5 -15 -10 -18 -14 -8 -10 -106 4
-124 9 -12 8 -13 -4 -6 -13 7 -13 6 -2 -7 9 -11 10 -18 2 -23 -5 -3 -10 -13
-10 -21 0 -10 5 -12 12 -8 8 5 7 0 -2 -11 -14 -17 -13 -18 5 -12 19 7 19 6 2
-7 -21 -16 -22 -32 -2 -40 8 -3 15 -11 14 -18 0 -10 -2 -10 -6 0 -7 17 -23 15
-23 -3 0 -8 6 -15 13 -15 9 0 9 -2 0 -8 -8 -5 -12 -26 -11 -54 2 -30 6 -44 13
-39 5 4 24 8 40 9 23 0 26 -1 11 -7 -14 -5 -16 -10 -8 -15 15 -9 16 -26 2 -26
-5 0 -9 6 -7 13 1 6 -4 11 -11 9 -8 -1 -11 2 -7 8 10 16 -11 12 -25 -5 -13
-15 -10 -71 6 -109 5 -14 4 -17 -4 -12 -7 4 -12 1 -12 -8 0 -9 5 -16 10 -16 6
0 10 -7 10 -16 0 -8 -4 -12 -10 -9 -14 9 -12 -9 2 -24 7 -6 13 -17 13 -23 0
-6 11 -13 24 -15 14 -2 32 -10 41 -18 9 -8 22 -15 28 -15 7 0 11 -10 11 -22
-1 -17 -2 -19 -6 -5 -2 9 -9 17 -14 17 -6 0 -8 -8 -4 -19 3 -10 0 -23 -7 -28
-15 -12 -42 -3 -46 15 -2 9 2 11 10 6 25 -16 36 -12 34 12 -1 25 -10 31 -21
14 -8 -13 -25 -3 -25 13 0 7 4 6 10 -3 8 -13 10 -12 10 3 0 16 -10 21 -37 18
-12 -2 -17 11 -14 32 0 4 -3 7 -8 7 -6 0 -10 -29 -10 -65 0 -36 4 -65 10 -65
5 0 9 5 9 11 0 8 5 8 15 -1 8 -7 13 -16 10 -20 -3 -5 -1 -11 5 -15 6 -4 5 -12
-5 -21 -8 -9 -12 -20 -9 -26 4 -7 2 -8 -5 -4 -6 4 -8 12 -5 18 4 6 1 9 -7 6
-9 -3 -14 -22 -15 -56 -2 -42 1 -52 17 -57 21 -7 42 2 34 15 -3 5 -1 11 5 15
11 7 13 -25 2 -40 -8 -12 -53 -15 -46 -3 3 4 0 8 -5 8 -6 0 -11 -7 -11 -15 0
-13 29 -15 210 -13 143 1 209 5 207 12 -3 7 9 11 28 11 18 0 31 -4 28 -8 -2
-4 21 -7 51 -6 31 1 56 7 56 13 0 6 5 5 12 -2 15 -15 53 -15 80 -1 15 8 19 8
14 0 -4 -6 0 -11 9 -11 9 0 14 4 11 9 -3 5 5 9 19 9 14 0 22 -4 20 -9 -3 -4 3
-7 14 -6 11 0 18 4 16 7 -2 3 8 10 21 17 13 6 24 7 24 2 0 -5 -5 -9 -11 -9 -5
0 -7 -4 -4 -10 9 -14 48 -13 63 2 9 9 12 9 12 0 0 -8 12 -11 30 -10 17 1 30 7
30 13 0 6 3 6 8 -1 9 -14 173 -14 165 0 -4 5 0 6 7 1 19 -12 111 -15 105 -4
-4 5 -2 9 4 9 5 0 11 -6 14 -12 3 -10 8 -10 18 1 12 12 12 13 0 6 -10 -5 -12
-4 -7 4 4 6 12 9 17 5 5 -3 7 -10 4 -15 -9 -14 19 -11 34 4 9 7 11 8 7 0 -4
-7 6 -11 33 -10 34 2 39 5 37 25 -2 12 -11 29 -22 37 -17 13 -17 14 -1 9 12
-4 17 -2 15 7 -2 8 7 15 20 17 12 2 20 8 17 13 -4 5 -2 9 3 9 6 0 12 -7 16
-15 3 -9 0 -15 -9 -15 -8 0 -15 -6 -15 -12 0 -9 -4 -8 -10 2 -7 11 -9 2 -6
-28 2 -23 7 -46 11 -50 5 -4 5 1 2 10 -3 10 -2 20 3 23 6 4 11 -4 11 -17 1
-17 3 -18 6 -5 5 18 25 24 21 6 -2 -6 7 -12 20 -14 12 -1 22 2 22 7 0 4 -4 8
-10 8 -5 0 -10 5 -10 10 0 6 8 5 19 -2 11 -7 17 -16 15 -20 -7 -11 4 -10 28 3
12 7 18 7 14 1 -8 -14 146 -11 156 3 5 6 8 5 8 -2 0 -8 16 -12 43 -11 l43 0 1
62 c0 40 -2 54 -7 41 -7 -16 -9 -17 -9 -3 -1 9 3 19 8 22 5 3 9 101 9 217 0
116 -2 208 -5 205 -4 -3 -12 -1 -19 5 -8 7 -14 7 -19 -1 -8 -13 -25 -13 -25 0
0 6 6 9 13 8 6 -2 11 3 9 10 -3 16 3 15 22 -4 15 -14 17 -14 22 1 4 9 2 28 -5
41 -6 14 -8 23 -3 20 4 -2 8 20 8 49 0 30 -2 52 -6 50 -3 -2 -7 6 -7 18 -2 15
0 18 6 9 5 -8 8 30 7 85 -1 76 -4 97 -14 95 -8 -1 -11 2 -7 8 3 6 11 8 16 5 5
-4 8 72 7 189 -1 153 -4 192 -13 179 -9 -12 -14 -13 -19 -4 -5 7 -5 15 -2 18
3 4 6 0 6 -7 0 -9 5 -7 15 6 18 24 20 114 3 114 -8 0 -9 3 -3 8 16 11 18 44 3
53 -11 7 -11 9 1 9 10 0 11 3 2 14 -8 10 -9 16 -2 21 13 8 11 195 -2 195 -5 0
-11 -9 -14 -20 -3 -11 -9 -20 -14 -20 -5 0 -6 7 -3 15 4 10 1 14 -7 12 -8 -2
-11 -2 -6 0 4 3 4 10 1 16 -5 9 -4 9 6 0 9 -8 17 -6 31 8 29 29 24 35 -35 34
-33 0 -52 -4 -48 -10 3 -5 -1 -5 -9 1 -9 8 -81 12 -221 12 -205 0 -214 -2
-209 -32 1 -5 -5 -6 -13 -3 -8 3 -20 -1 -26 -9 -7 -8 -16 -14 -21 -14 -4 0 2
10 14 23 12 13 25 22 30 20 4 -2 7 0 7 6 0 11 -74 10 -85 -1 -4 -4 -4 -12 0
-18 6 -9 10 -9 17 1 8 12 9 12 6 0 -2 -8 -15 -16 -29 -18 -19 -2 -21 -1 -9 7
10 6 11 10 3 10 -7 0 -10 6 -8 13 4 8 -10 13 -46 15 -31 2 -49 -1 -45 -7 4 -5
-6 -5 -24 2 -34 13 -49 4 -30 -18 7 -9 10 -18 6 -22 -3 -3 -6 -1 -6 5 0 6 -8
9 -18 6 -13 -5 -14 -4 -3 4 15 11 5 19 -24 18 -11 -1 -23 4 -27 9 -5 6 -8 5
-8 -2 0 -7 -5 -13 -11 -13 -5 0 -8 3 -6 8 6 9 -60 9 -69 -1 -4 -4 -12 -7 -18
-7 -6 0 -4 5 4 10 12 8 11 10 -7 10 -13 0 -23 -5 -23 -11 0 -6 -5 -7 -12 -2
-19 12 -161 12 -175 1 -9 -7 -13 -7 -13 1 0 9 -5 9 -21 0 -16 -8 -20 -8 -14 0
8 14 -31 11 -54 -3 -10 -6 -12 -5 -7 2 10 16 -66 16 -82 0 -8 -8 -12 -8 -12
-1 0 14 -53 14 -62 -1 -6 -8 -8 -8 -8 1 0 9 -27 12 -100 11 -73 0 -100 -4
-100 -13 0 -7 -9 -15 -20 -18 -11 -3 -20 -1 -20 4 0 5 7 9 15 9 8 0 15 4 15
10 0 5 -11 9 -25 8 -18 -2 -24 -7 -20 -18 4 -11 1 -10 -9 3 -7 9 -16 17 -20
17 -3 0 -6 -8 -7 -17 0 -15 -2 -15 -9 2 -7 17 -9 17 -9 3z m153 -6 c2 -4 -4
-9 -15 -9 -11 -1 -17 2 -14 8 7 11 22 12 29 1z m306 4 c0 -2 -7 -9 -15 -16
-12 -10 -15 -10 -15 4 0 9 7 16 15 16 8 0 15 -2 15 -4z m820 -4 c0 -5 -7 -17
-16 -28 -14 -17 -15 -17 -10 -1 3 10 6 23 6 28 0 5 5 9 10 9 6 0 10 -4 10 -8z
m321 -9 c7 -10 10 -15 5 -11 -5 4 -17 3 -28 -3 -16 -8 -17 -13 -7 -25 8 -10 9
-18 2 -25 -6 -6 -10 -5 -11 3 -1 7 -3 24 -4 38 -2 16 2 24 10 23 6 -2 12 2 12
7 0 14 6 12 21 -7z m-1413 -18 c-3 -3 -9 2 -12 12 -6 14 -5 15 5 6 7 -7 10
-15 7 -18z m42 15 c0 -5 -5 -10 -11 -10 -5 0 -7 5 -4 10 3 6 8 10 11 10 2 0 4
-4 4 -10z m462 -4 c-4 -6 -7 -14 -7 -18 0 -19 -11 -14 -11 6 0 12 6 23 13 23
6 0 9 -5 5 -11z m153 4 c-3 -5 1 -10 10 -10 9 0 14 -4 10 -10 -8 -13 -35 -1
-35 16 0 8 5 14 11 14 5 0 7 -4 4 -10z m465 -10 c6 -11 8 -20 6 -20 -3 0 -10
9 -16 20 -6 11 -8 20 -6 20 3 0 10 -9 16 -20z m117 -3 c2 -19 2 -19 -12 -1
-13 17 -16 17 -25 4 -8 -13 -10 -13 -10 2 0 26 46 20 47 -5z m83 16 c0 -5 -5
-15 -11 -23 -9 -13 -10 -13 -6 2 3 9 1 19 -6 22 -7 2 -4 5 6 5 9 1 17 -2 17
-6z m163 -4 c7 0 3 -4 -8 -9 -29 -13 -35 -12 -35 6 0 11 5 14 16 10 9 -3 21
-6 27 -7z m-1298 -9 c3 -5 1 -10 -4 -10 -6 0 -11 5 -11 10 0 6 2 10 4 10 3 0
8 -4 11 -10z m36 3 c6 -46 4 -82 -4 -74 -13 13 -18 81 -6 81 5 0 9 -3 10 -7z
m74 -11 c-3 -3 -14 -6 -25 -7 -15 -1 -17 1 -9 11 6 7 17 10 25 7 8 -3 12 -8 9
-11z m59 10 c2 -4 -5 -9 -17 -9 -17 -2 -19 0 -7 7 18 12 18 12 24 2z m196 -6
c-7 -7 -13 -7 -20 0 -6 6 -3 10 10 10 13 0 16 -4 10 -10z m194 2 c-3 -4 -11
-5 -19 -1 -21 7 -19 12 4 10 11 0 18 -5 15 -9z m120 -40 c-3 -5 -11 -8 -17 -8
-8 0 -7 3 2 9 11 7 10 10 -6 15 -11 3 -20 13 -20 21 0 10 7 8 23 -8 12 -12 20
-25 18 -29z m27 20 c8 -15 8 -18 0 -14 -6 4 -16 16 -22 28 -8 15 -8 18 0 14 6
-4 16 -16 22 -28z m-983 11 c-10 -5 -15 -17 -12 -27 5 -14 4 -14 -4 -2 -12 16
2 40 22 40 6 0 3 -5 -6 -11z m24 -21 c-8 -8 -9 -4 -5 13 4 13 8 18 11 10 2 -7
-1 -18 -6 -23z m504 20 c3 -4 -1 -5 -10 -4 -8 1 -18 5 -22 8 -3 4 1 5 10 4 8
-1 18 -5 22 -8z m661 -8 c-2 -11 -6 -23 -10 -26 -4 -4 1 -13 11 -21 15 -13 15
-14 0 -9 -9 3 -19 0 -22 -7 -2 -7 -3 -1 -1 13 2 14 4 26 6 28 2 3 6 19 8 32 0
6 3 10 6 10 3 0 4 -9 2 -20z m83 16 c0 -2 -7 -9 -15 -16 -13 -11 -14 -10 -9 4
5 14 24 23 24 12z m322 -19 c-7 -8 -10 -17 -7 -20 3 -4 2 -5 -2 -2 -11 8 -13
36 -2 29 5 -3 9 0 9 7 0 7 3 9 6 6 4 -4 2 -13 -4 -20z m-1462 9 c0 -3 -4 -8
-10 -11 -5 -3 -10 -1 -10 4 0 6 5 11 10 11 6 0 10 -2 10 -4z m54 -11 c3 -8 2
-14 -2 -14 -22 4 -23 -4 -2 -26 13 -14 29 -25 36 -25 8 0 11 -6 8 -15 -7 -17
-34 -21 -34 -5 0 6 1 12 3 14 5 8 -36 45 -44 40 -15 -9 -10 5 9 25 9 11 18 20
18 20 1 1 4 -6 8 -14z m290 0 c3 -8 1 -15 -4 -15 -6 0 -10 7 -10 15 0 8 2 15
4 15 2 0 6 -7 10 -15z m247 -9 c6 16 8 15 8 -8 1 -25 3 -27 27 -18 32 12 34
12 34 -1 0 -5 -4 -7 -10 -4 -5 3 -10 2 -10 -4 0 -6 -7 -7 -17 -4 -10 4 -14 2
-10 -4 4 -7 0 -10 -10 -9 -10 2 -18 9 -18 17 0 8 -9 13 -22 12 -15 -2 -20 3
-20 21 l0 24 20 -21 c20 -20 21 -20 28 -1z m409 20 c0 -2 -7 -7 -16 -10 -8 -3
-12 -2 -9 4 6 10 25 14 25 6z m-1171 -31 c15 -17 18 -23 7 -19 -12 5 -15 2
-10 -10 3 -9 1 -16 -6 -16 -6 0 -9 4 -5 9 3 5 1 12 -5 16 -6 4 -7 11 -4 17 4
6 0 14 -7 19 -8 5 -9 9 -4 9 6 0 21 -12 34 -25z m831 15 c0 -5 -2 -10 -4 -10
-3 0 -8 5 -11 10 -3 6 -1 10 4 10 6 0 11 -4 11 -10z m550 -21 c0 8 2 12 5 9 3
-3 2 -13 -1 -23 -6 -16 -8 -16 -16 -1 -5 9 -13 14 -18 11 -5 -3 -12 0 -16 6
-5 8 -3 9 6 4 10 -6 12 -3 7 11 -5 14 -2 12 13 -6 12 -15 20 -20 20 -11z
m-1120 17 c0 -3 -4 -8 -10 -11 -5 -3 -10 -1 -10 4 0 6 5 11 10 11 6 0 10 -2
10 -4z m437 -15 c0 -11 -5 -18 -9 -15 -4 3 -5 11 -1 19 7 21 12 19 10 -4z
m286 -13 c6 2 4 -5 -6 -16 -9 -10 -14 -23 -10 -27 5 -5 0 -3 -9 4 -19 14 -23
22 -10 20 20 -3 21 3 6 29 -15 25 -15 26 1 7 9 -11 22 -19 28 -17z m127 2 c8
-5 7 -9 -5 -13 -9 -4 -14 -3 -10 3 3 6 -1 13 -9 16 -9 3 -13 11 -10 16 4 6 9
6 14 -2 4 -7 13 -16 20 -20z m65 10 c3 -5 1 -10 -4 -10 -6 0 -11 5 -11 10 0 6
2 10 4 10 3 0 8 -4 11 -10z m123 -8 c8 8 12 9 12 1 0 -22 -30 -22 -40 0 -10
20 -10 20 3 5 10 -13 16 -15 25 -6z m-1197 -1 c-11 -7 -10 -11 5 -20 11 -6 14
-11 8 -11 -6 0 -18 8 -27 18 -15 17 -15 18 6 19 15 2 18 0 8 -6z m319 -1 c0
-5 8 -7 18 -4 14 5 15 4 2 -5 -9 -6 -18 -7 -24 -1 -5 5 -16 5 -27 -1 -14 -7
-17 -6 -14 4 6 15 45 21 45 7z m177 -11 c-9 -6 -15 -14 -13 -18 3 -4 -1 -8 -9
-8 -18 0 -28 24 -13 33 7 4 8 3 4 -4 -11 -18 9 -14 24 3 7 9 16 13 19 9 3 -3
-2 -10 -12 -15z m1050 -1 c-3 -8 -6 -5 -6 6 -1 11 2 17 5 13 3 -3 4 -12 1 -19z
m-1117 -9 l25 -21 -28 16 c-15 9 -33 14 -39 10 -7 -4 -8 -3 -4 4 10 16 17 15
46 -9z m355 11 c3 -5 1 -10 -4 -10 -6 0 -11 5 -11 10 0 6 2 10 4 10 3 0 8 -4
11 -10z m598 4 c3 -4 2 -16 -4 -26 -8 -15 -14 -17 -22 -9 -12 12 -37 -3 -37
-23 0 -7 -7 -21 -16 -32 -14 -18 -14 -18 -3 6 14 29 14 31 1 39 -5 3 0 15 10
26 19 20 19 20 12 0 -7 -18 -6 -19 10 -6 14 12 19 12 25 2 6 -10 10 -9 14 3 4
10 -1 16 -16 19 -21 4 -21 4 -1 6 11 0 24 -2 27 -5z m134 -9 c0 -8 -4 -12 -9
-9 -5 3 -6 10 -3 15 9 13 12 11 12 -6z m-352 -5 c3 -5 1 -10 -4 -10 -6 0 -11
5 -11 10 0 6 2 10 4 10 3 0 8 -4 11 -10z m258 -5 c4 -8 1 -17 -5 -21 -7 -4 -8
-3 -4 4 4 7 2 12 -4 12 -6 0 -8 5 -5 10 8 14 12 13 18 -5z m-1334 -12 c12 3
19 2 16 -3 -3 -4 -16 -10 -30 -12 -20 -4 -25 -1 -25 16 0 16 2 18 9 7 5 -8 18
-12 30 -8z m126 -4 c-4 -5 -12 -9 -18 -8 -9 0 -8 2 1 6 6 2 9 10 6 15 -4 7 -2
8 5 4 6 -4 9 -12 6 -17z m324 8 c13 4 13 3 2 -5 -16 -12 -41 -5 -41 11 0 8 3
8 11 0 6 -6 19 -9 28 -6z m291 -13 c6 -15 14 -22 22 -18 7 4 8 3 4 -5 -10 -15
-32 1 -39 29 -7 29 2 25 13 -6z m100 22 c0 -3 -4 -8 -10 -11 -5 -3 -10 -1 -10
4 0 6 5 11 10 11 6 0 10 -2 10 -4z m330 -6 c0 -5 -5 -10 -11 -10 -5 0 -7 5 -4
10 3 6 8 10 11 10 2 0 4 -4 4 -10z m334 -14 c-3 -9 -10 -13 -15 -10 -5 3 -3
11 4 19 15 16 19 13 11 -9z m-1327 -17 c2 -12 -1 -18 -7 -14 -5 3 -10 16 -10
27 0 26 13 16 17 -13z m317 23 c3 -5 -1 -9 -9 -9 -8 0 -12 4 -9 9 3 4 7 8 9 8
2 0 6 -4 9 -8z m188 -18 c-3 -19 -1 -25 7 -20 6 4 9 11 7 15 -3 4 1 8 9 8 10
0 12 -4 5 -12 -5 -7 -7 -15 -4 -18 4 -3 -6 -4 -22 -1 -16 3 -33 10 -39 15 -7
7 -5 8 6 4 11 -4 18 0 22 14 8 30 15 26 9 -5z m303 18 c12 -9 16 -44 4 -36 -5
3 -9 0 -9 -7 0 -7 -8 -5 -22 7 -21 19 -21 19 -14 0 5 -15 4 -17 -7 -8 -8 7
-17 9 -21 5 -4 -4 -4 0 0 10 7 19 29 23 39 7 3 -5 10 -10 16 -10 14 0 11 28
-3 33 -7 3 -8 6 -3 6 6 0 15 -3 20 -7z m477 1 c-9 -3 -10 -9 -3 -17 8 -9 7
-13 -2 -14 -6 0 -26 -4 -44 -7 -20 -4 -34 -1 -39 6 -5 9 -2 10 11 5 11 -4 22
-2 27 6 6 10 8 10 8 1 0 -7 6 -10 14 -7 8 3 12 12 9 20 -3 9 1 14 13 13 12 0
14 -3 6 -6z m-1541 -17 c6 16 8 14 8 -8 1 -15 -4 -30 -11 -34 -7 -4 -8 -3 -4
4 10 16 -6 15 -24 0 -12 -11 -12 -10 -2 3 16 22 3 33 -18 14 -15 -13 -19 -13
-36 1 -18 14 -18 15 3 4 18 -8 24 -7 33 10 10 19 12 19 27 4 16 -15 17 -15 24
2z m326 -12 c0 -19 -13 -18 -21 2 -4 9 -9 15 -12 12 -2 -3 0 -17 5 -32 14 -35
5 -33 -14 3 -11 23 -12 30 -2 34 20 6 44 -3 44 -19z m339 18 c-2 -4 -1 -14 5
-22 7 -12 9 -11 9 5 0 16 2 17 9 6 6 -9 5 -19 -2 -26 -10 -10 -14 -8 -24 8
-10 20 -9 37 3 37 3 0 3 -4 0 -8z m217 -8 c-5 -14 -3 -15 18 -5 21 11 22 11 7
-2 -22 -17 -23 -28 -3 -21 10 4 15 0 16 -12 0 -18 1 -17 10 1 8 19 9 19 6 1
-3 -24 -27 -34 -27 -11 0 15 -2 16 -17 4 -11 -10 -14 -10 -9 -1 5 8 0 12 -16
13 -22 0 -22 1 -3 9 11 5 15 9 8 9 -14 1 -6 31 8 31 4 0 6 -7 2 -16z m499 -16
c-8 -8 -9 -4 -5 13 4 13 8 18 11 10 2 -7 -1 -18 -6 -23z m55 17 c0 -8 -4 -12
-9 -9 -5 3 -6 10 -3 15 9 13 12 11 12 -6z m-1597 -10 c0 -8 -4 -15 -10 -15 -5
0 -7 7 -4 15 4 8 8 15 10 15 2 0 4 -7 4 -15z m668 -10 c-3 -3 -9 2 -12 12 -6
14 -5 15 5 6 7 -7 10 -15 7 -18z m32 15 c0 -5 -5 -10 -11 -10 -5 0 -7 5 -4 10
3 6 8 10 11 10 2 0 4 -4 4 -10z m710 -1 c0 -5 5 -7 12 -3 7 4 8 3 4 -4 -10
-17 -33 -15 -33 3 0 8 4 15 9 15 4 0 8 -5 8 -11z m-1174 -28 c0 -20 -5 -27
-14 -23 -11 4 -11 6 0 13 13 9 12 9 -19 9 -5 0 -9 -4 -9 -10 -3 -20 -4 -21
-15 -15 -16 10 20 45 39 38 10 -4 13 -2 8 5 -4 7 -3 12 2 12 5 0 9 -13 8 -29z
m109 1 c-8 -8 -25 10 -19 20 4 6 9 5 15 -3 4 -7 6 -15 4 -17z m26 11 c13 -16
12 -17 -3 -4 -10 7 -18 15 -18 17 0 8 8 3 21 -13z m414 8 c3 -5 2 -12 -3 -15
-5 -3 -9 1 -9 9 0 17 3 19 12 6z m-725 -16 c11 -13 10 -14 -4 -9 -9 3 -16 1
-16 -5 0 -6 8 -11 18 -11 9 0 23 -9 30 -21 7 -12 16 -18 19 -15 3 3 1 11 -5
19 -9 10 -5 13 16 14 24 1 24 1 7 -7 -11 -5 -14 -9 -7 -9 9 -1 10 -5 0 -20
-10 -16 -14 -17 -25 -5 -8 8 -17 14 -19 14 -8 0 1 -35 11 -42 5 -4 0 -6 -11
-6 -16 2 -21 8 -20 25 0 13 5 23 9 23 5 0 5 5 2 11 -4 6 -12 8 -19 6 -8 -3
-12 5 -12 24 0 32 7 36 26 14z m230 6 c0 -5 9 -11 21 -14 24 -6 17 -27 -9 -27
-13 0 -14 2 -4 9 11 6 10 10 -5 16 -10 5 -21 7 -25 7 -5 -1 -8 3 -8 8 0 6 7
10 15 10 8 0 15 -4 15 -9z m233 -11 c-3 -12 -8 -19 -11 -16 -5 6 5 36 12 36 2
0 2 -9 -1 -20z m52 11 c3 -5 1 -12 -5 -16 -5 -3 -10 1 -10 9 0 18 6 21 15 7z
m72 -4 c0 -8 -6 -14 -14 -14 -9 0 -10 4 -2 14 6 7 12 13 14 13 1 0 2 -6 2 -13z
m160 -9 c-3 -8 -6 -5 -6 6 -1 11 2 17 5 13 3 -3 4 -12 1 -19z m566 2 c-3 -12
-8 -18 -11 -15 -3 2 -11 0 -18 -6 -8 -7 -14 -7 -19 1 -4 6 -2 9 3 8 6 -2 10 1
10 7 0 5 9 12 19 16 10 4 19 8 20 8 0 1 -1 -8 -4 -19z m-378 -8 c-3 -3 -11 0
-18 7 -9 10 -8 11 6 5 10 -3 15 -9 12 -12z m275 3 c0 -8 -2 -15 -4 -15 -2 0
-6 7 -10 15 -3 8 -1 15 4 15 6 0 10 -7 10 -15z m430 -10 c0 -8 -4 -16 -8 -19
-4 -2 -8 6 -8 19 0 13 4 21 8 19 4 -3 8 -11 8 -19z m-797 0 c-3 -9 -8 -14 -10
-11 -3 3 -2 9 2 15 9 16 15 13 8 -4z m507 5 c0 -5 -2 -10 -4 -10 -3 0 -8 5
-11 10 -3 6 -1 10 4 10 6 0 11 -4 11 -10z m-1026 -9 c4 -5 -3 -7 -14 -4 -23 6
-26 13 -6 13 8 0 17 -4 20 -9z m46 -8 c0 -9 -3 -13 -7 -10 -3 4 -13 1 -22 -5
-10 -8 -9 -4 3 10 23 26 26 27 26 5z m243 -3 c3 -11 1 -18 -4 -14 -5 3 -9 12
-9 20 0 20 7 17 13 -6z m127 -11 c0 -3 -7 -6 -15 -6 -8 0 -11 5 -8 10 4 6 0 8
-10 4 -11 -4 -14 -2 -11 8 5 11 10 12 25 2 10 -6 19 -14 19 -18z m135 -6 c1
-16 5 -38 9 -51 6 -17 3 -22 -11 -22 -14 0 -15 2 -4 9 9 6 10 11 2 15 -6 4 -9
12 -6 17 4 5 0 12 -8 15 -12 4 -12 10 -3 29 13 28 18 25 21 -12z m30 28 c3 -5
1 -12 -5 -16 -5 -3 -10 1 -10 9 0 18 6 21 15 7z m65 -1 c0 -5 -2 -10 -4 -10
-3 0 -8 5 -11 10 -3 6 -1 10 4 10 6 0 11 -4 11 -10z m527 -12 c-3 -8 -6 -5 -6
6 -1 11 2 17 5 13 3 -3 4 -12 1 -19z m189 10 c4 -7 4 -10 -1 -6 -4 4 -14 3
-22 -3 -8 -8 -13 -8 -13 -1 0 6 6 13 13 15 6 3 13 6 14 6 1 1 5 -5 9 -11z
m-1469 -9 c5 -5 26 -11 45 -12 19 -1 35 -7 35 -14 0 -7 -5 -9 -10 -6 -5 3 -13
-1 -18 -8 -5 -8 -3 -17 4 -21 9 -6 9 -8 0 -8 -7 0 -13 -8 -14 -17 0 -12 -2
-13 -6 -5 -4 10 -8 10 -19 1 -8 -6 -14 -8 -14 -4 0 4 -6 2 -13 -4 -10 -8 -14
-7 -14 4 0 8 4 12 8 9 4 -2 10 0 14 6 4 6 11 8 16 5 5 -4 9 1 9 9 0 9 5 16 10
16 6 0 10 7 10 15 0 9 -9 15 -24 15 -20 0 -23 -4 -19 -22 3 -13 3 -20 0 -17
-4 3 -8 14 -10 25 -1 10 -6 25 -10 32 -10 15 5 16 20 1z m215 -29 c-2 -3 -7 1
-9 8 -3 6 -9 12 -14 12 -4 0 -6 -8 -2 -17 5 -15 4 -16 -8 -5 -12 11 -11 16 6
28 17 13 20 13 26 -3 4 -10 4 -20 1 -23z m679 23 c13 -15 12 -15 -8 -4 -18 9
-23 9 -23 0 0 -7 -3 -10 -6 -6 -7 7 4 27 15 27 5 0 15 -7 22 -17z m74 7 c-3
-5 -12 -10 -18 -10 -7 0 -6 4 3 10 19 12 23 12 15 0z m-510 -20 c-4 -7 -18 -7
-43 -1 -2 1 -1 5 2 10 3 5 15 7 26 4 11 -3 18 -9 15 -13z m466 -3 c-10 -9 -11
-8 -5 6 3 10 9 15 12 12 3 -3 0 -11 -7 -18z m111 1 c-7 -7 -12 -8 -12 -2 0 6
3 14 7 17 3 4 9 5 12 2 2 -3 -1 -11 -7 -17z m68 10 c0 -4 -4 -8 -9 -8 -6 0
-12 4 -15 8 -3 5 1 9 9 9 8 0 15 -4 15 -9z m54 -4 c4 -10 2 -13 -6 -8 -8 5 -9
2 -5 -9 8 -22 4 -21 -18 3 -17 18 -17 20 -2 14 10 -3 17 -1 17 5 0 16 7 14 14
-5z m-1187 -19 c-1 -13 -7 -28 -12 -32 -4 -4 -5 -2 0 6 6 10 2 12 -14 6 -12
-4 -21 -2 -21 4 0 6 3 10 8 10 20 -3 32 2 32 16 0 8 2 15 5 15 3 0 4 -11 2
-25z m293 15 c0 -5 -8 -10 -17 -10 -15 0 -16 2 -3 10 19 12 20 12 20 0z m96
-2 c4 4 2 -1 -5 -10 -15 -20 -31 -15 -31 9 0 12 3 13 13 4 8 -6 18 -7 23 -3z
m481 -48 c2 -14 -14 -30 -31 -30 -5 0 -3 7 5 16 10 13 10 17 -2 25 -10 6 -11
9 -1 9 7 0 10 5 7 11 -4 6 -13 8 -21 5 -7 -3 -16 0 -20 6 -4 6 -3 8 4 4 6 -3
14 -1 17 5 8 11 38 -25 42 -51z m359 51 c-4 -5 0 -12 6 -14 8 -3 6 -6 -4 -6
-18 -1 -24 10 -11 22 9 10 15 8 9 -2z m181 3 c-3 -3 -12 -4 -19 -1 -8 3 -5 6
6 6 11 1 17 -2 13 -5z m-1472 -32 c-8 -8 -25 10 -19 20 4 6 9 5 15 -3 4 -7 6
-15 4 -17z m778 13 c4 -8 3 -16 -1 -19 -4 -3 -9 4 -9 15 -2 23 3 25 10 4z
m259 -7 c-7 -7 -12 -8 -12 -2 0 14 12 26 19 19 2 -3 -1 -11 -7 -17z m166 -5
c7 -7 9 -13 3 -13 -5 0 -13 5 -16 10 -4 6 -11 8 -16 5 -5 -4 -9 -2 -9 4 0 6
-8 8 -17 5 -14 -5 -15 -4 -4 4 16 11 39 5 59 -15z m152 23 c0 -3 -4 -8 -10
-11 -5 -3 -10 -1 -10 4 0 6 5 11 10 11 6 0 10 -2 10 -4z m-962 -19 c-1 -2 3
-11 10 -20 10 -12 10 -17 1 -23 -7 -4 -9 -3 -5 4 12 19 -17 26 -31 7 -14 -20
-17 -16 -7 9 3 9 13 16 21 16 8 0 11 5 7 13 -4 6 -4 9 0 5 4 -3 6 -8 4 -11z
m422 3 c0 -5 -2 -10 -4 -10 -3 0 -8 5 -11 10 -3 6 -1 10 4 10 6 0 11 -4 11
-10z m150 0 c0 -5 -5 -10 -11 -10 -5 0 -7 5 -4 10 3 6 8 10 11 10 2 0 4 -4 4
-10z m-743 -25 c0 -20 -4 -19 -17 5 -8 15 -8 18 3 14 8 -3 14 -11 14 -19z m33
15 c0 -5 -2 -10 -4 -10 -3 0 -8 5 -11 10 -3 6 -1 10 4 10 6 0 11 -4 11 -10z
m80 -2 c0 -4 -4 -8 -9 -8 -6 0 -12 4 -15 8 -3 5 1 9 9 9 8 0 15 -4 15 -9z
m337 -3 c0 -8 -4 -12 -9 -9 -5 3 -6 10 -3 15 9 13 12 11 12 -6z m-97 -10 c0
-8 -9 -19 -20 -25 -16 -9 -18 -8 -14 5 3 8 10 12 15 9 5 -3 9 2 9 10 0 9 2 16
5 16 3 0 5 -7 5 -15z m450 0 c10 -13 8 -21 -3 -12 -2 1 -11 -4 -21 -12 -9 -8
-19 -11 -23 -7 -3 3 -1 6 6 6 7 0 9 5 6 10 -4 6 -3 10 2 9 20 -3 27 2 13 11
-8 5 -10 10 -4 10 6 0 17 -7 24 -15z m498 -10 c-3 -3 -9 2 -12 12 -6 14 -5 15
5 6 7 -7 10 -15 7 -18z m-1568 6 c0 -6 -5 -13 -12 -17 -6 -4 -8 -3 -4 4 3 6
-2 13 -11 15 -14 4 -13 5 5 6 12 0 22 -3 22 -8z m244 -10 c16 -17 16 -19 -4
-24 -11 -3 -18 -1 -15 3 3 5 1 11 -5 15 -5 3 -10 1 -10 -4 0 -6 -5 -11 -10
-11 -6 0 -5 8 2 20 16 25 21 25 42 1z m107 2 c2 1 3 0 2 -2 -2 -2 1 -9 7 -15
6 -8 3 -12 -10 -12 -10 0 -17 3 -14 7 2 4 -3 9 -11 13 -8 3 -15 10 -15 16 0 7
6 8 19 1 10 -6 20 -9 22 -8z m202 0 c-3 -7 -9 -13 -14 -13 -5 0 -9 6 -9 13 0
8 6 14 14 14 8 0 12 -6 9 -14z m197 7 c-14 -9 -7 -14 13 -11 5 1 6 -3 2 -8 -6
-11 -35 -4 -35 8 0 11 12 21 24 21 6 0 4 -5 -4 -10z m120 -4 c-7 -7 -13 -7
-20 0 -6 6 -3 10 10 10 13 0 16 -4 10 -10z m132 -18 c-8 -8 -9 -4 -5 13 4 13
8 18 11 10 2 -7 -1 -18 -6 -23z m473 23 c3 -5 2 -12 -3 -15 -5 -3 -9 1 -9 9 0
17 3 19 12 6z m-229 -10 c-4 -5 6 -23 20 -40 29 -35 25 -42 -7 -10 -16 16 -23
18 -35 8 -8 -6 -14 -9 -14 -5 0 17 3 21 12 18 6 -2 8 4 5 12 -3 8 -1 17 6 20
18 7 19 7 13 -3z m48 -4 c4 4 4 0 1 -9 -8 -20 -32 -14 -32 7 0 10 4 12 12 5 7
-5 15 -7 19 -3z m240 4 c-8 -8 -34 -10 -38 -2 -3 4 6 7 19 7 14 0 22 -2 19 -5z
m-1644 -21 c-6 -11 -15 -20 -20 -20 -6 0 -2 9 7 20 10 11 19 20 21 20 1 0 -2
-9 -8 -20z m415 10 c3 -6 -1 -7 -9 -4 -18 7 -21 14 -7 14 6 0 13 -4 16 -10z
m195 -38 c0 -21 -26 8 -27 31 -2 19 -2 19 12 1 8 -11 15 -25 15 -32z m37 9
c-5 -2 -13 3 -18 10 -15 24 -10 30 9 12 10 -10 14 -20 9 -22z m830 9 c1 -11
-2 -20 -8 -20 -5 0 -9 5 -9 11 0 5 -4 7 -10 4 -11 -7 -14 18 -4 28 11 11 30
-3 31 -23z m53 19 c0 -4 -8 -9 -18 -11 -11 -3 -19 0 -19 8 0 7 9 12 19 11 10
-1 18 -4 18 -8z m-1410 -9 c0 -5 -5 -10 -11 -10 -5 0 -7 5 -4 10 3 6 8 10 11
10 2 0 4 -4 4 -10z m50 0 c-13 -8 -12 -10 4 -10 11 0 17 -3 13 -6 -3 -4 -13
-4 -22 0 -18 6 -11 26 8 26 7 0 6 -4 -3 -10z m350 -12 c0 -6 -6 -5 -15 2 -8 7
-15 14 -15 16 0 2 7 1 15 -2 8 -4 15 -11 15 -16z m247 4 c-5 15 -4 16 13 5 14
-8 16 -13 8 -16 -7 -2 -20 -7 -29 -12 -12 -6 -21 -3 -30 9 -13 15 -12 16 4 3
20 -15 23 -2 5 19 -7 8 -2 6 11 -5 21 -18 24 -18 18 -3z m60 12 c-3 -3 -12 -4
-19 -1 -8 3 -5 6 6 6 11 1 17 -2 13 -5z m413 2 c0 -3 -4 -8 -10 -11 -5 -3 -10
-1 -10 4 0 6 5 11 10 11 6 0 10 -2 10 -4z m-1173 -19 c0 -8 -6 -14 -13 -14 -7
0 -10 6 -7 14 3 7 8 13 12 13 4 0 8 -6 8 -13z m628 -5 c-3 -3 -11 0 -18 7 -9
10 -8 11 6 5 10 -3 15 -9 12 -12z m885 -3 c0 -5 -4 -9 -10 -9 -5 0 -10 7 -10
16 0 8 5 12 10 9 6 -3 10 -10 10 -16z m-1320 -17 c0 -15 -2 -15 -10 -2 -13 20
-13 33 0 25 6 -3 10 -14 10 -23z m50 6 c0 -18 -2 -20 -9 -8 -6 8 -7 18 -5 22
9 14 14 9 14 -14z m80 18 c0 -3 -4 -8 -10 -11 -5 -3 -10 -1 -10 4 0 6 5 11 10
11 6 0 10 -2 10 -4z m471 -23 c-12 -20 -14 -14 -5 12 4 9 9 14 11 11 3 -2 0
-13 -6 -23z m54 17 c4 -6 11 -7 17 -4 7 4 8 2 4 -5 -6 -9 -11 -9 -21 -1 -8 7
-20 8 -26 4 -8 -4 -9 -3 -5 4 9 15 23 15 31 2z m99 2 c3 -5 -1 -9 -9 -9 -8 0
-12 4 -9 9 3 4 7 8 9 8 2 0 6 -4 9 -8z m76 -12 c10 -16 3 -33 -10 -25 -5 3 -6
13 -3 22 4 9 2 14 -3 11 -5 -3 -18 -2 -29 3 -16 7 -15 8 8 6 16 -2 32 -9 37
-17z m46 -3 c1 -9 -2 -17 -8 -17 -6 0 -8 6 -5 14 3 8 2 17 -4 20 -5 2 -4 3 2
2 7 -1 13 -10 15 -19z m298 7 c3 -8 2 -12 -4 -9 -6 3 -10 10 -10 16 0 14 7 11
14 -7z m265 0 c4 3 8 -5 8 -16 2 -20 1 -20 -12 -2 -8 11 -14 24 -14 29 0 6 3
4 6 -3 2 -6 8 -10 12 -8z m-1269 -10 c0 -2 -7 -4 -15 -4 -8 0 -15 4 -15 10 0
5 7 7 15 4 8 -4 15 -8 15 -10z m34 0 c4 -10 2 -13 -6 -8 -8 5 -9 2 -5 -11 5
-11 0 -24 -14 -36 -26 -23 -26 -23 -26 -4 0 8 4 12 8 10 11 -7 25 18 23 43 -2
25 11 30 20 6z m122 -6 c12 -14 13 -18 3 -10 -9 6 -19 9 -22 5 -4 -3 -7 1 -7
10 0 22 3 21 26 -5z m250 4 c1 -7 0 -8 -3 -2 -8 17 -23 11 -17 -7 5 -15 4 -15
-4 -3 -6 8 -8 18 -5 23 7 11 26 4 29 -11z m820 4 c18 5 18 5 0 -6 -15 -10 -21
-9 -35 6 -14 16 -14 17 0 6 9 -7 25 -10 35 -6z m-1679 -3 c-9 -2 -14 -9 -11
-15 4 -7 2 -8 -5 -4 -15 10 -4 26 17 25 15 -1 15 -2 -1 -6z m223 -3 c0 -5 -5
-10 -11 -10 -5 0 -7 5 -4 10 3 6 8 10 11 10 2 0 4 -4 4 -10z m330 0 c0 -5 -5
-10 -11 -10 -5 0 -7 5 -4 10 3 6 8 10 11 10 2 0 4 -4 4 -10z m233 -31 c23 8
47 5 47 -8 0 -4 -13 -6 -30 -5 -20 1 -30 -3 -30 -12 0 -8 7 -11 18 -8 14 5 14
4 3 -4 -11 -8 -12 -14 -3 -25 9 -11 7 -13 -11 -11 -33 4 -33 4 -17 14 8 5 12
12 8 15 -3 4 -15 -3 -26 -15 -18 -19 -20 -20 -33 -3 -8 9 -9 14 -2 10 6 -4 18
-1 26 7 8 8 17 12 21 9 3 -4 6 1 6 10 0 9 -15 24 -32 32 -18 8 -23 12 -11 9
19 -4 22 -2 17 13 -3 10 2 6 11 -9 12 -22 19 -26 38 -19z m502 31 c-3 -5 -12
-10 -18 -10 -7 0 -6 4 3 10 19 12 23 12 15 0z m-875 -4 c0 -3 -4 -8 -10 -11
-5 -3 -10 -1 -10 4 0 6 5 11 10 11 6 0 10 -2 10 -4z m977 -2 c-3 -3 -12 -4
-19 -1 -8 3 -5 6 6 6 11 1 17 -2 13 -5z m-1027 -27 c0 -7 -4 -6 -10 3 -9 13
-10 13 -11 0 -1 -8 -1 -21 0 -27 1 -7 -3 -13 -9 -13 -6 0 -9 4 -5 9 3 5 -5 17
-17 25 -12 9 -17 16 -11 16 7 0 15 -5 19 -11 5 -8 10 -6 16 5 10 17 28 13 28
-7z m680 3 c6 -11 8 -20 6 -20 -3 0 -10 9 -16 20 -6 11 -8 20 -6 20 3 0 10 -9
16 -20z m-914 -7 c-1 -10 -8 -29 -15 -43 -11 -25 -11 -24 -6 5 3 17 6 36 7 43
1 6 5 12 10 12 4 0 6 -8 4 -17z m1562 -23 c9 7 9 7 2 -2 -5 -6 -17 -13 -26
-14 -9 -1 -13 0 -10 3 3 4 -2 16 -11 27 -16 18 -15 18 8 -1 17 -16 29 -20 37
-13z m-1588 10 c0 -5 -5 -10 -11 -10 -5 0 -7 5 -4 10 3 6 8 10 11 10 2 0 4 -4
4 -10z m620 5 c0 -2 -6 -8 -13 -14 -10 -8 -14 -7 -14 2 0 8 6 14 14 14 7 0 13
-1 13 -2z m-695 -15 c-3 -5 -1 -10 6 -10 7 0 10 -3 6 -6 -9 -9 -28 6 -22 17 4
5 8 9 11 9 3 0 2 -4 -1 -10z m360 -8 c-3 -3 -11 0 -18 7 -9 10 -8 11 6 5 10
-3 15 -9 12 -12z m26 -5 c-10 -9 -11 -8 -5 6 3 10 9 15 12 12 3 -3 0 -11 -7
-18z m-252 -14 c0 -11 -3 -13 -6 -5 -2 6 -9 10 -14 6 -5 -3 -9 0 -9 5 0 6 7
11 15 11 8 0 15 -8 14 -17z m181 -3 c-8 -5 -19 -10 -25 -10 -5 0 -3 5 5 10 8
5 20 10 25 10 6 0 3 -5 -5 -10z m109 -29 c-2 -6 -10 2 -17 17 -11 25 -11 25 4
10 9 -9 15 -21 13 -27z m1160 -2 c-24 -15 -34 -10 -13 7 18 15 18 15 0 10 -16
-6 -17 -4 -6 9 12 15 14 15 23 -1 6 -11 5 -19 -4 -25z m-1609 27 c0 -2 -7 -6
-15 -10 -8 -3 -15 -1 -15 4 0 6 7 10 15 10 8 0 15 -2 15 -4z m387 -2 c-3 -3
-12 -4 -19 -1 -8 3 -5 6 6 6 11 1 17 -2 13 -5z m-349 -28 c-1 -14 -5 -23 -9
-20 -7 4 0 44 7 44 2 0 3 -11 2 -24z m799 18 c-3 -3 -12 -4 -19 -1 -8 3 -5 6
6 6 11 1 17 -2 13 -5z m-661 -32 c2 -11 -1 -24 -6 -27 -7 -4 -9 3 -6 19 2 13
0 27 -5 30 -5 2 -4 3 2 2 7 -1 14 -12 15 -24z m229 18 c-3 -5 -14 -10 -23 -9
-14 0 -13 2 3 9 27 11 27 11 20 0z m607 -22 c-7 -7 -10 -5 -7 8 5 29 6 30 12
16 3 -8 1 -18 -5 -24z m659 15 c13 -16 12 -17 -3 -4 -10 7 -18 15 -18 17 0 8
8 3 21 -13z m-884 1 c-3 -3 -12 -4 -19 -1 -8 3 -5 6 6 6 11 1 17 -2 13 -5z
m349 -13 c-8 -12 -55 -20 -61 -11 -6 10 7 15 42 18 13 1 22 -2 19 -7z m48 -6
c3 -8 0 -15 -7 -15 -9 0 -9 -2 1 -8 9 -6 6 -14 -13 -30 -18 -16 -27 -19 -29
-10 -8 25 -3 46 11 41 12 -5 18 8 14 30 -2 13 17 7 23 -8z m276 11 c0 -2 -7
-9 -15 -16 -12 -10 -15 -10 -15 4 0 9 7 16 15 16 8 0 15 -2 15 -4z m65 -7 c4
-6 13 -8 20 -5 8 3 11 -2 8 -15 -3 -10 -11 -19 -18 -19 -13 0 -14 -37 -1 -58
7 -11 4 -11 -13 -1 -12 8 -16 16 -10 20 14 8 13 20 -1 29 -9 5 -6 10 9 15 l22
7 -22 19 c-12 10 -17 19 -11 19 6 0 14 -5 17 -11z m-1405 -9 c13 -9 13 -10 0
-10 -13 0 -13 -1 0 -10 12 -7 10 -11 -10 -19 l-25 -10 25 -2 c17 -1 20 -3 8
-6 -10 -2 -28 3 -40 11 l-22 16 27 0 c29 0 33 20 7 32 -13 6 -13 7 0 7 8 0 22
-4 30 -9z m644 -2 c-3 -4 -1 -8 5 -8 5 0 11 5 13 12 3 8 6 7 10 -3 5 -13 -1
-15 -30 -13 -45 3 -44 2 -38 12 2 4 14 8 25 8 11 0 17 -4 15 -8z m-611 -18 c3
-11 1 -18 -4 -14 -5 3 -9 12 -9 20 0 20 7 17 13 -6z m937 -1 c0 6 5 11 10 11
6 0 10 -6 9 -12 -1 -7 1 -21 6 -31 9 -22 -13 -53 -28 -38 -7 7 -15 7 -22 1 -8
-7 -12 -5 -12 4 0 7 11 12 26 12 15 -1 26 4 26 12 0 6 -4 12 -8 12 -4 -1 -15
6 -23 15 -9 8 -20 13 -25 10 -5 -4 -9 1 -9 10 0 14 2 14 25 -1 15 -10 25 -12
25 -5z m633 9 c-2 -5 -10 -8 -18 -8 -8 0 -16 3 -18 8 -3 4 5 7 18 7 13 0 21
-3 18 -7z m-1678 -35 c-3 -20 -10 -42 -15 -48 -5 -7 -7 -15 -3 -18 3 -4 1 -13
-6 -21 -9 -11 -9 -15 1 -19 8 -3 8 -6 2 -6 -6 -1 -17 6 -24 14 -10 12 -9 16 3
21 9 3 13 12 10 20 -3 8 0 14 6 14 6 0 11 7 11 15 0 8 -6 15 -14 15 -16 0 -16
31 -1 42 25 19 36 8 30 -29z m352 30 c-4 -3 -2 -12 5 -20 8 -11 7 -12 -6 -7
-9 3 -16 9 -16 13 0 9 11 21 18 21 3 0 2 -3 -1 -7z m627 -5 c-3 -5 -9 -6 -14
-3 -5 3 -18 -5 -29 -17 -12 -12 -21 -17 -21 -10 0 6 9 17 20 25 22 15 52 19
44 5z m226 -8 c0 -5 -6 -12 -12 -16 -7 -4 -10 -4 -6 1 4 4 3 14 -4 22 -8 11
-7 12 6 7 9 -3 16 -10 16 -14z m365 2 c-3 -3 -11 0 -18 7 -9 10 -8 11 6 5 10
-3 15 -9 12 -12z m72 -10 c14 -8 23 -8 26 -2 3 6 4 5 3 -2 -2 -7 -10 -11 -17
-10 -8 2 -18 4 -24 5 -12 2 -25 18 -25 32 0 6 3 5 8 -1 4 -6 17 -16 29 -22z
m-200 3 c4 -4 2 -5 -6 0 -11 6 -13 2 -7 -19 7 -28 -2 -33 -24 -13 -8 6 -6 1 5
-12 11 -14 14 -21 6 -16 -8 4 -16 2 -21 -5 -5 -7 -7 -2 -7 15 0 14 6 29 14 32
8 3 12 11 9 18 -5 14 19 14 31 0z m-692 -5 c3 -5 1 -10 -4 -10 -6 0 -11 5 -11
10 0 6 2 10 4 10 3 0 8 -4 11 -10z m799 2 c3 -5 -1 -9 -9 -9 -8 0 -12 4 -9 9
3 4 7 8 9 8 2 0 6 -4 9 -8z m50 0 c3 -5 -1 -9 -9 -9 -8 0 -12 4 -9 9 3 4 7 8
9 8 2 0 6 -4 9 -8z m-1454 -27 c10 -12 9 -15 -4 -15 -11 0 -14 5 -10 12 5 8 2
9 -10 5 -10 -4 -15 -3 -11 3 9 14 21 12 35 -5z m397 9 c-3 -3 -12 -4 -19 -1
-8 3 -5 6 6 6 11 1 17 -2 13 -5z m613 -9 c5 3 12 0 16 -6 4 -8 3 -9 -5 -5 -7
4 -14 -2 -19 -15 -7 -17 -11 -19 -17 -9 -5 8 -4 15 3 18 6 2 10 9 8 15 -1 7
-1 9 1 4 3 -4 9 -5 13 -2z m-1128 -7 c-7 -7 -12 -20 -12 -30 0 -10 -4 -18 -10
-18 -5 0 -7 8 -3 18 7 20 23 42 31 42 3 0 1 -5 -6 -12z m298 8 c0 -2 -7 -7
-16 -10 -8 -3 -12 -2 -9 4 6 10 25 14 25 6z m638 -9 c8 -10 6 -16 -9 -25 -19
-12 -19 -11 -9 8 11 20 10 21 -12 15 -18 -5 -20 -4 -8 4 20 14 25 14 38 -2z
m236 -2 c3 -8 1 -15 -4 -15 -6 0 -10 7 -10 15 0 8 2 15 4 15 2 0 6 -7 10 -15z
m171 -16 c-2 -17 -7 -34 -11 -38 -4 -3 -4 2 -1 11 3 10 2 20 -3 23 -6 4 -10
11 -10 16 0 6 5 7 10 4 6 -3 10 -1 10 4 0 6 2 11 5 11 2 0 2 -14 0 -31z m149
16 c-4 -8 -11 -12 -16 -9 -6 4 -5 10 3 15 19 12 19 11 13 -6z m39 -16 c-8 -16
-18 -31 -23 -34 -5 -3 -3 7 5 21 8 15 12 31 10 34 -2 4 2 7 9 7 10 0 10 -6 -1
-28z m50 10 c-8 -8 -13 -7 -18 2 -5 8 -4 10 3 5 7 -4 12 -2 12 5 0 7 3 9 7 6
4 -4 2 -12 -4 -18z m-1646 5 c-3 -3 -12 -4 -19 -1 -8 3 -5 6 6 6 11 1 17 -2
13 -5z m400 0 c-3 -3 -12 -4 -19 -1 -8 3 -5 6 6 6 11 1 17 -2 13 -5z m747 -15
c-3 -6 0 -15 7 -20 11 -7 11 -9 -2 -9 -20 0 -33 27 -16 34 18 7 19 7 11 -5z
m-949 -27 c-3 -3 -1 -10 5 -16 6 -8 3 -12 -11 -12 -12 0 -18 5 -15 13 3 7 0
13 -7 14 -9 0 -9 2 1 6 6 2 9 10 5 16 -4 7 1 6 10 -2 10 -8 15 -16 12 -19z
m348 13 c-3 -9 -8 -14 -10 -11 -3 3 -2 9 2 15 9 16 15 13 8 -4z m44 2 c0 -8
-6 -14 -14 -14 -9 0 -10 4 -2 14 6 7 12 13 14 13 1 0 2 -6 2 -13z m978 3 c-3
-5 -12 -10 -18 -10 -7 0 -6 4 3 10 19 12 23 12 15 0z m112 -42 c1 -24 -1 -35
-4 -25 -2 10 -9 14 -16 10 -9 -5 -8 -2 0 8 7 9 11 25 8 38 -2 12 -1 19 4 17 4
-3 8 -24 8 -48z m-880 36 c-3 -3 -12 -4 -19 -1 -8 3 -5 6 6 6 11 1 17 -2 13
-5z m413 -5 c0 -6 -7 -17 -15 -26 -8 -8 -12 -20 -8 -26 3 -7 3 -9 -2 -5 -4 4
-14 3 -22 -4 -7 -6 -17 -7 -21 -3 -4 4 -1 10 6 12 20 8 52 45 46 55 -3 4 0 8
5 8 6 0 11 -5 11 -11z m260 -11 c0 -4 5 -8 11 -8 5 0 7 6 3 13 -5 7 0 6 11 -3
10 -8 25 -14 34 -12 11 2 17 -5 18 -18 1 -13 -3 -20 -10 -17 -7 3 -11 11 -9
18 1 8 -5 5 -14 -6 l-16 -20 4 20 c4 26 -29 22 -54 -7 -10 -12 -18 -16 -18
-10 0 6 6 17 14 25 10 9 11 18 5 24 -6 6 -4 10 6 10 8 0 15 -4 15 -9z m135
-15 c-1 -16 2 -31 9 -35 7 -5 5 -8 -6 -8 -13 0 -18 8 -18 28 0 25 7 42 16 42
1 0 1 -12 -1 -27z m-1479 -8 c1 -8 -1 -17 -5 -19 -4 -3 -7 6 -7 19 0 25 8 25
12 0z m255 2 c-10 -9 -11 -8 -5 6 3 10 9 15 12 12 3 -3 0 -11 -7 -18z m629 10
c0 7 6 10 14 7 23 -9 8 -33 -16 -26 -16 4 -19 2 -13 -8 5 -8 4 -11 -3 -7 -5 4
-8 16 -5 28 4 16 8 17 14 7 6 -9 9 -10 9 -1z m227 -2 c0 -8 -4 -12 -9 -9 -5 3
-6 10 -3 15 9 13 12 11 12 -6z m-692 -25 c2 -12 1 -20 -2 -16 -4 4 -8 16 -10
28 -4 28 6 18 12 -12z m395 26 c0 -3 -4 -8 -10 -11 -5 -3 -10 -1 -10 4 0 6 5
11 10 11 6 0 10 -2 10 -4z m470 -20 c9 -12 8 -15 -8 -13 -12 0 -18 6 -15 14 6
16 8 16 23 -1z m307 8 c-3 -3 -12 -4 -19 -1 -8 3 -5 6 6 6 11 1 17 -2 13 -5z
m-1121 -30 c-4 -9 -9 -15 -11 -12 -3 3 -3 13 1 22 4 9 9 15 11 12 3 -3 3 -13
-1 -22z m1127 8 c4 9 6 9 6 1 2 -20 -16 -24 -30 -5 -13 15 -12 16 3 4 13 -10
17 -10 21 0z m-1698 -12 c3 -5 1 -10 -4 -10 -6 0 -11 5 -11 10 0 6 2 10 4 10
3 0 8 -4 11 -10z m190 -58 c3 -53 1 -60 -13 -55 -10 4 -12 8 -4 11 7 2 12 8
12 13 0 6 -6 7 -12 3 -10 -6 -10 -5 0 8 10 12 10 18 -2 27 -11 9 -17 8 -29 -4
-21 -20 -26 -19 -20 5 3 12 0 20 -6 20 -7 0 -10 -4 -6 -9 3 -5 1 -12 -5 -16
-6 -4 -8 -11 -5 -16 4 -5 -2 -6 -12 -2 -16 6 -16 5 -4 -10 12 -15 12 -17 -3
-11 -20 8 -21 23 -1 30 8 4 15 15 15 25 0 21 12 24 39 9 15 -7 20 -4 30 17 16
35 21 26 26 -45z m901 43 c-9 -9 -16 -13 -16 -8 0 12 22 34 28 28 2 -2 -3 -11
-12 -20z m104 15 c0 -5 -5 -10 -11 -10 -5 0 -7 5 -4 10 3 6 8 10 11 10 2 0 4
-4 4 -10z m260 -6 c0 -2 -7 -4 -15 -4 -8 0 -15 4 -15 10 0 5 7 7 15 4 8 -4 15
-8 15 -10z m-1360 2 c0 -2 -9 -6 -20 -9 -11 -3 -18 -1 -14 4 5 9 34 13 34 5z
m865 -16 c-3 -5 -1 -11 5 -15 5 -3 10 1 10 11 0 13 3 14 14 5 11 -9 15 -9 19
1 2 7 7 10 11 7 14 -13 -6 -37 -26 -31 -13 3 -19 1 -15 -5 3 -5 0 -10 -8 -10
-8 0 -14 3 -13 6 2 17 -3 21 -14 14 -7 -4 -22 -8 -33 -10 -11 -1 -14 1 -7 3 6
3 9 11 5 17 -4 7 -1 7 9 -1 17 -14 34 -1 23 18 -3 6 1 7 9 4 9 -3 14 -10 11
-14z m100 -10 c1 -10 -2 -17 -6 -14 -4 2 -7 13 -6 24 2 23 10 17 12 -10z m487
23 c-6 -2 -9 -9 -6 -15 3 -5 -2 -9 -12 -8 -34 4 -45 0 -38 -12 5 -7 3 -8 -6
-3 -10 6 -9 11 5 21 10 7 21 11 26 9 4 -3 10 -1 14 5 3 5 12 10 18 9 9 0 8 -2
-1 -6z m-1025 -28 c3 -19 3 -19 -5 -1 -6 14 -11 16 -16 8 -4 -7 -12 -10 -17
-6 -14 8 1 26 19 22 9 -2 18 -12 19 -23z m1066 -5 c-8 -29 -26 -40 -40 -25
-10 10 -9 14 3 19 9 3 12 1 9 -4 -3 -6 -1 -10 4 -10 10 0 16 22 12 43 -1 5 3
6 8 3 5 -3 7 -15 4 -26z m92 16 c7 3 16 -1 21 -8 4 -7 4 -10 -1 -6 -4 4 -15 3
-24 -2 -13 -7 -17 -4 -18 13 0 12 1 17 4 10 2 -7 10 -10 18 -7z m-224 -3 c-11
-5 -11 -7 0 -15 10 -6 7 -7 -10 -3 -16 5 -21 4 -17 -4 4 -6 13 -11 21 -11 23
0 23 -24 -1 -48 -13 -12 -24 -18 -24 -13 0 5 7 16 15 25 14 13 13 16 -5 29
-25 17 -18 42 13 44 12 0 16 -1 8 -4z m180 -10 c13 -16 12 -17 -3 -4 -17 13
-22 21 -14 21 2 0 10 -8 17 -17z m-1591 -8 c0 -8 -4 -15 -10 -15 -5 0 -7 7 -4
15 4 8 8 15 10 15 2 0 4 -7 4 -15z m1127 0 c0 -8 -4 -12 -8 -9 -4 2 -10 0 -14
-6 -4 -6 -11 -8 -16 -5 -10 7 11 34 27 35 6 0 11 -7 11 -15z m33 -5 c0 -5 -2
-10 -4 -10 -3 0 -8 5 -11 10 -3 6 -1 10 4 10 6 0 11 -4 11 -10z m-1253 -7 c-4
-3 -2 -12 4 -20 6 -7 8 -13 4 -13 -4 0 -1 -8 6 -17 13 -16 12 -17 -3 -4 -10 7
-16 17 -13 21 3 5 1 11 -5 15 -10 6 -5 25 7 25 4 0 3 -3 0 -7z m930 -8 c0 -8
-4 -12 -9 -9 -5 3 -6 10 -3 15 9 13 12 11 12 -6z m233 -5 c8 -15 8 -18 -3 -14
-8 3 -14 11 -14 19 0 20 4 19 17 -5z m280 0 c-6 -11 -16 -20 -22 -20 -6 0 -3
9 7 20 10 11 20 20 22 20 2 0 -1 -9 -7 -20z m-396 -4 c-4 -10 2 -12 22 -8 25
4 26 3 13 -10 -8 -9 -16 -14 -18 -12 -2 2 -10 -1 -18 -7 -7 -6 -13 -8 -13 -4
0 4 -9 -3 -21 -16 -11 -13 -18 -19 -15 -12 4 6 -4 21 -16 33 l-23 21 28 -10
c37 -14 36 -15 47 14 5 14 12 25 14 25 3 0 3 -6 0 -14z m63 -18 c-3 -7 -5 -2
-5 12 0 14 2 19 5 13 2 -7 2 -19 0 -25z m453 12 c13 0 13 1 0 10 -8 5 -10 10
-4 10 14 0 36 -25 29 -32 -3 -3 6 -10 20 -16 21 -10 25 -9 25 3 0 8 4 15 10
15 5 0 7 -7 4 -15 -6 -14 6 -20 29 -16 5 1 6 -3 3 -8 -4 -6 -18 -6 -34 -1 -61
18 -70 16 -47 -10 10 -11 15 -20 10 -20 -12 0 -34 33 -35 53 0 10 -4 16 -9 13
-4 -3 -17 4 -27 17 -10 12 -12 16 -4 10 8 -7 21 -13 30 -13z m-540 6 c0 -3 -4
-8 -10 -11 -5 -3 -10 -1 -10 4 0 6 5 11 10 11 6 0 10 -2 10 -4z m-470 -27 c0
-14 -16 -11 -29 5 -10 12 -8 13 8 9 12 -3 21 -9 21 -14z m30 17 c0 -3 -4 -8
-10 -11 -5 -3 -10 -1 -10 4 0 6 5 11 10 11 6 0 10 -2 10 -4z m1155 -6 c4 6 11
8 16 5 5 -4 3 -12 -4 -20 -8 -9 -16 -10 -25 -3 -10 8 -11 7 -5 -8 6 -16 5 -17
-8 -4 -22 20 -21 42 2 29 12 -6 20 -5 24 1z m-1680 -18 c-3 -3 -11 0 -18 7 -9
10 -8 11 6 5 10 -3 15 -9 12 -12z m110 9 c3 -5 1 -12 -5 -16 -5 -3 -10 1 -10
9 0 18 6 21 15 7z m753 -5 c-2 -8 6 -22 17 -30 17 -14 17 -15 2 -10 -12 4 -17
2 -15 -7 2 -7 -5 -15 -14 -17 -12 -2 -18 2 -17 15 0 10 3 13 6 6 9 -23 23 -14
14 10 -4 12 -6 28 -4 35 6 17 15 15 11 -2z m309 -1 c0 -8 -4 -12 -8 -9 -4 2
-10 0 -14 -6 -8 -12 -25 -13 -25 -2 0 5 10 14 23 20 12 6 22 11 23 11 0 1 1
-6 1 -14z m33 -10 c0 -14 -3 -25 -7 -25 -5 0 -8 11 -8 25 0 14 3 25 8 25 4 0
7 -11 7 -25z m-100 5 c0 -5 -2 -10 -4 -10 -3 0 -8 5 -11 10 -3 6 -1 10 4 10 6
0 11 -4 11 -10z m256 -5 c-1 -8 -5 -17 -8 -21 -5 -4 -4 16 1 34 3 9 9 -1 7
-13z m139 -3 c-3 -3 -11 0 -18 7 -9 10 -8 11 6 5 10 -3 15 -9 12 -12z m-1415
-3 c0 -6 9 -9 20 -6 11 3 23 1 26 -4 9 -15 -46 -10 -62 6 -14 13 -14 15 0 15
9 0 16 -5 16 -11z m450 7 c0 -3 -4 -8 -10 -11 -5 -3 -10 -1 -10 4 0 6 5 11 10
11 6 0 10 -2 10 -4z m44 -10 c-4 -11 0 -13 15 -9 12 3 21 1 21 -3 0 -5 -11
-10 -25 -10 -23 -2 -33 14 -18 29 10 11 13 8 7 -7z m501 4 c3 -5 2 -10 -4 -10
-5 0 -13 5 -16 10 -3 6 -2 10 4 10 5 0 13 -4 16 -10z m394 -33 c1 -5 -6 -1
-15 7 -8 9 -12 21 -8 28 5 8 10 6 15 -8 4 -10 8 -23 8 -27z m-1427 5 c-6 -2
-8 -11 -5 -20 3 -9 3 -14 -1 -10 -4 3 -9 18 -10 32 -3 22 -1 24 11 14 9 -7 11
-14 5 -16z m125 -4 c2 -17 0 -19 -7 -8 -5 8 -6 18 -4 22 8 12 10 10 11 -14z
m271 2 c-7 -10 -14 -17 -17 -15 -4 4 18 35 25 35 2 0 -1 -9 -8 -20z m965 -3
c7 4 6 -1 -2 -10 -11 -14 -11 -17 0 -18 8 -1 19 0 24 1 6 1 6 -2 2 -6 -12 -12
-37 -14 -37 -3 0 6 -4 8 -8 5 -4 -2 -7 8 -6 22 3 36 5 40 11 19 3 -10 9 -14
16 -10z m-393 2 c0 6 3 11 8 11 4 0 7 -10 7 -23 0 -20 -3 -21 -21 -13 -11 5
-21 16 -21 23 0 9 4 10 14 2 9 -8 13 -8 13 0z m60 7 c0 -3 -4 -8 -10 -11 -5
-3 -10 -1 -10 4 0 6 5 11 10 11 6 0 10 -2 10 -4z m395 -34 c-6 -6 -34 11 -39
24 -4 11 0 10 18 -3 13 -10 23 -19 21 -21z m-1498 14 c0 -8 -6 -12 -15 -9 -11
5 -11 7 0 14 7 5 13 9 14 9 0 0 1 -6 1 -14z m108 5 c3 -5 1 -12 -5 -16 -5 -3
-10 1 -10 9 0 18 6 21 15 7z m425 0 c0 -5 -8 -8 -17 -6 -10 1 -24 -2 -31 -8
-9 -7 -11 -6 -6 7 6 17 54 23 54 7z m44 -26 c-4 -8 -11 -15 -17 -15 -6 0 -7 3
-4 6 3 4 2 15 -4 26 -9 18 -8 18 10 9 12 -7 18 -17 15 -26z m196 23 c0 6 4 12
8 12 5 0 9 -7 9 -15 0 -8 -4 -12 -9 -9 -4 3 -8 -1 -9 -8 0 -10 -2 -10 -6 1 -5
11 -7 11 -14 0 -7 -12 -9 -11 -9 1 0 13 -1 13 -11 0 -9 -13 -10 -13 -6 0 2 8
10 14 16 13 6 -2 11 3 11 10 0 8 4 7 10 -3 6 -10 10 -11 10 -2z m445 2 c-3 -5
-14 -10 -23 -9 -14 0 -13 2 3 9 27 11 27 11 20 0z m465 4 c0 -8 -19 -13 -24
-6 -3 5 1 9 9 9 8 0 15 -2 15 -3z m26 -36 c-8 -6 -7 -8 2 -8 7 0 10 -5 7 -10
-4 -6 -1 -18 7 -27 7 -10 8 -14 1 -10 -6 4 -13 2 -15 -4 -2 -6 -9 1 -16 16 -7
15 -8 24 -2 20 7 -4 9 5 5 25 -5 27 -3 29 9 18 10 -9 11 -15 2 -20z m-1276 18
c0 -3 -4 -8 -10 -11 -5 -3 -10 -1 -10 4 0 6 5 11 10 11 6 0 10 -2 10 -4z m183
-11 c-3 -9 -8 -14 -10 -11 -3 3 -2 9 2 15 9 16 15 13 8 -4z m70 -3 c-4 -10 -9
-10 -22 0 -9 7 -17 13 -19 14 -2 1 8 1 21 0 15 0 23 -6 20 -14z m263 -15 c5
-9 4 -9 -7 1 -16 14 -33 16 -24 2 3 -5 1 -10 -6 -10 -8 0 -7 -5 2 -17 13 -16
12 -17 -3 -5 -10 8 -19 9 -22 3 -4 -5 1 -14 10 -19 9 -5 14 -14 10 -21 -10
-16 -29 -13 -23 4 4 8 1 17 -4 21 -8 4 -8 9 0 17 7 7 5 15 -7 24 -9 8 -11 12
-4 8 6 -3 12 -2 12 4 0 6 7 7 17 4 11 -5 14 -3 8 6 -6 10 -3 11 13 2 12 -6 24
-17 28 -24z m157 3 c-7 -27 -13 -25 -11 4 1 14 5 23 9 20 4 -2 5 -13 2 -24z
m42 20 c3 -5 1 -10 -4 -10 -6 0 -11 5 -11 10 0 6 2 10 4 10 3 0 8 -4 11 -10z
m35 -11 c0 -6 -4 -7 -10 -4 -5 3 -10 11 -10 16 0 6 5 7 10 4 6 -3 10 -11 10
-16z m58 4 c-2 -10 -8 -24 -15 -31 -7 -7 -10 -19 -7 -26 3 -8 1 -17 -5 -21 -7
-4 -8 1 -4 12 6 16 5 16 -10 4 -15 -12 -19 -12 -32 5 -8 10 -15 23 -15 27 0 5
-5 5 -12 1 -7 -5 -8 -3 -3 6 5 9 13 5 29 -14 18 -22 23 -23 34 -11 7 8 10 15
7 15 -4 0 1 7 9 16 9 8 14 20 11 25 -4 5 -1 9 5 9 6 0 10 -8 8 -17z m-1268 -3
c0 -5 -4 -10 -10 -10 -5 0 -10 5 -10 10 0 6 5 10 10 10 6 0 10 -4 10 -10z
m857 -12 c0 -13 -1 -18 -3 -12 -3 7 -13 11 -22 9 -9 -1 -11 0 -4 2 6 3 12 9
12 14 0 20 16 8 17 -13z m766 7 c7 -18 -8 -29 -25 -19 -9 5 -8 2 1 -9 15 -19
9 -33 -8 -23 -6 4 -10 18 -9 31 2 16 6 21 12 15 16 -16 30 -11 16 5 -7 9 -8
15 -2 15 5 0 12 -7 15 -15z m-1427 -2 c-7 -8 -115 -10 -111 -3 2 3 29 6 60 7
31 0 54 -2 51 -4z m199 -3 c3 -5 1 -10 -4 -10 -6 0 -11 5 -11 10 0 6 2 10 4
10 3 0 8 -4 11 -10z m285 0 c0 -5 -4 -10 -10 -10 -5 0 -10 5 -10 10 0 6 5 10
10 10 6 0 10 -4 10 -10z m703 -5 c-3 -11 -33 -16 -46 -8 -5 3 -4 9 3 13 16 10
46 6 43 -5z m149 0 c14 -19 8 -27 -9 -14 -17 13 -17 13 0 -13 10 -17 13 -29 7
-33 -6 -4 -9 -1 -8 7 2 8 -4 12 -16 10 -17 -3 -18 -1 -7 11 8 11 9 17 1 22
-13 8 -3 25 13 22 7 -1 15 -6 19 -12z m-1028 -10 c-4 -8 -8 -15 -10 -15 -2 0
-4 7 -4 15 0 8 4 15 10 15 5 0 7 -7 4 -15z m281 5 c3 -6 -1 -7 -9 -4 -18 7
-21 14 -7 14 6 0 13 -4 16 -10z m255 4 c0 -8 -19 -13 -24 -6 -3 5 1 9 9 9 8 0
15 -2 15 -3z m-513 -26 c-3 -8 -6 -5 -6 6 -1 11 2 17 5 13 3 -3 4 -12 1 -19z
m84 5 c10 -11 10 -14 2 -9 -8 4 -13 2 -13 -6 0 -10 -3 -9 -9 2 -6 8 -7 18 -5
22 7 11 10 10 25 -9z m704 5 c4 -3 2 -9 -3 -12 -5 -3 -15 1 -21 8 -10 11 -9
14 3 12 9 -1 18 -5 21 -8z m352 -25 c1 -21 -2 -31 -7 -24 -6 10 -12 10 -28 2
-14 -7 -23 -8 -27 -1 -4 6 -3 10 2 9 22 -4 34 3 45 26 6 14 12 25 13 25 0 0 2
-16 2 -37z m-1627 9 c0 -12 -3 -12 -17 -1 -10 7 -20 14 -22 16 -2 1 6 1 18 0
11 -1 21 -8 21 -15z m145 9 c3 -5 1 -12 -5 -16 -5 -3 -10 1 -10 9 0 18 6 21
15 7z m386 -8 c13 -16 12 -17 -3 -4 -10 7 -18 15 -18 17 0 8 8 3 21 -13z m89
-2 c-15 -28 -13 -33 10 -21 11 6 20 7 20 2 0 -10 -41 -24 -49 -17 -5 6 16 55
24 55 3 0 1 -9 -5 -19z m732 -8 c-3 -16 -7 -22 -10 -15 -4 13 4 42 11 42 2 0
2 -12 -1 -27z m98 23 c0 -2 -8 -10 -17 -17 -16 -13 -17 -12 -4 4 13 16 21 21
21 13z m-1020 -16 c0 -5 -4 -10 -10 -10 -5 0 -10 5 -10 10 0 6 5 10 10 10 6 0
10 -4 10 -10z m394 4 c19 -7 22 -25 4 -21 -7 1 -12 -3 -11 -9 1 -7 -7 -14 -19
-17 -15 -4 -18 -3 -10 5 9 9 8 16 -1 27 -11 14 -10 15 7 1 18 -14 19 -13 13 3
-7 19 -6 20 17 11z m-763 -27 c-10 -9 -11 -8 -5 6 3 10 9 15 12 12 3 -3 0 -11
-7 -18z m170 10 c-6 -8 -7 -18 -3 -22 4 -5 1 -5 -6 -1 -10 6 -10 11 -1 22 6 8
14 14 16 14 3 0 0 -6 -6 -13z m121 -19 c-8 -8 -9 -4 -5 13 4 13 8 18 11 10 2
-7 -1 -18 -6 -23z m939 9 c-10 -9 -11 -8 -5 6 3 10 9 15 12 12 3 -3 0 -11 -7
-18z m119 17 c0 -8 -19 -13 -24 -6 -3 5 1 9 9 9 8 0 15 -2 15 -3z m-1430 -8
c0 -2 -9 -6 -20 -9 -11 -3 -18 -1 -14 4 5 9 34 13 34 5z m187 -9 c3 -4 -5 -7
-20 -7 -14 0 -28 4 -31 8 -5 9 41 8 51 -1z m329 -30 c-2 -7 -5 -3 -5 7 -1 20
-1 20 -16 0 -14 -18 -14 -17 -3 9 10 23 13 25 21 12 4 -9 6 -21 3 -28z m184
29 c0 -8 -4 -17 -8 -20 -4 -2 -8 4 -8 15 0 10 4 19 8 19 4 0 8 -6 8 -14z m90
-26 l23 -35 -27 27 c-14 15 -26 33 -26 39 0 14 -1 15 30 -31z m230 36 c0 -2
-8 -10 -17 -17 -16 -13 -17 -12 -4 4 13 16 21 21 21 13z m60 -11 c7 -8 9 -15
6 -15 -4 0 -14 7 -22 15 -9 8 -11 15 -6 15 5 0 15 -7 22 -15z m170 0 c-10 -12
-10 -15 1 -15 11 0 11 -2 -1 -10 -8 -5 -22 -9 -30 -9 -10 0 -8 3 5 9 11 5 16
9 11 9 -9 1 12 31 21 31 3 0 0 -7 -7 -15z m-1239 -8 c-6 -8 -9 -16 -6 -19 3
-2 -2 -5 -10 -5 -13 0 -13 3 2 19 19 21 31 25 14 5z m944 -5 c-3 -3 -11 0 -18
7 -9 10 -8 11 6 5 10 -3 15 -9 12 -12z m606 4 c5 3 9 1 9 -4 0 -5 -11 -9 -25
-9 -14 0 -25 4 -25 9 0 5 5 6 10 3 6 -3 10 0 11 7 0 10 2 10 6 0 2 -6 9 -10
14 -6z m-1312 -23 c2 -2 -3 -3 -11 -3 -9 0 -19 7 -22 16 -6 15 -4 15 11 3 10
-7 20 -15 22 -16z m322 8 c-7 -5 -10 -14 -7 -20 4 -6 3 -11 -2 -11 -5 0 -12 9
-15 20 -3 11 -1 18 3 15 5 -3 12 0 15 6 4 5 10 8 13 4 4 -3 0 -10 -7 -14z
m503 -9 c19 -27 19 -27 0 -11 -17 13 -27 15 -49 10 -3 0 -1 -10 5 -20 7 -15 7
-22 -2 -27 -7 -4 -10 -3 -5 1 4 5 0 19 -9 33 -9 13 -12 22 -6 18 5 -3 15 1 22
9 17 20 22 19 44 -13z m52 8 c0 -12 -4 -16 -9 -11 -5 5 -6 14 -3 20 10 15 12
14 12 -9z m374 -1 c0 -6 -4 -7 -10 -4 -5 3 -10 11 -10 16 0 6 5 7 10 4 6 -3
10 -11 10 -16z m-1473 -11 c-3 -8 -6 -5 -6 6 -1 11 2 17 5 13 3 -3 4 -12 1
-19z m144 0 c-4 -12 -13 -23 -20 -24 -6 -1 -7 0 -1 3 5 2 10 13 10 24 0 10 4
19 10 19 5 0 6 -9 1 -22z m113 14 c3 -5 -1 -9 -9 -9 -8 0 -12 4 -9 9 3 4 7 8
9 8 2 0 6 -4 9 -8z m1090 -8 c3 -8 2 -12 -4 -9 -6 3 -10 10 -10 16 0 14 7 11
14 -7z m336 10 c0 -8 -19 -13 -24 -6 -3 5 1 9 9 9 8 0 15 -2 15 -3z m-1613
-26 c-3 -8 -6 -5 -6 6 -1 11 2 17 5 13 3 -3 4 -12 1 -19z m53 18 c0 -3 -4 -8
-10 -11 -5 -3 -10 -1 -10 4 0 6 5 11 10 11 6 0 10 -2 10 -4z m247 -2 c-3 -3
-12 -4 -19 -1 -8 3 -5 6 6 6 11 1 17 -2 13 -5z m440 0 c-4 -4 3 -15 15 -25 11
-11 17 -19 13 -19 -11 0 -45 31 -45 42 0 4 5 8 12 8 6 0 8 -3 5 -6z m88 -4
c13 -6 15 -9 5 -9 -8 0 -22 4 -30 9 -18 12 -2 12 25 0z m-281 -15 c-4 -8 -8
-15 -10 -15 -2 0 -4 7 -4 15 0 8 4 15 10 15 5 0 7 -7 4 -15z m63 -7 c2 -17 0
-19 -7 -8 -5 8 -6 18 -4 22 8 12 10 10 11 -14z m559 3 c0 -11 -4 -17 -8 -15
-4 3 -8 12 -8 20 0 8 4 14 8 14 4 0 8 -9 8 -19z m192 -16 c-1 -13 -5 -22 -9
-19 -4 2 -5 14 -1 26 4 16 2 19 -8 13 -9 -5 -11 -4 -6 4 11 18 26 3 24 -24z
m139 29 c-3 -3 -12 -4 -19 -1 -8 3 -5 6 6 6 11 1 17 -2 13 -5z m130 -16 c-3
-8 -6 -5 -6 6 -1 11 2 17 5 13 3 -3 4 -12 1 -19z m-1497 8 c0 -3 -4 -8 -10
-11 -5 -3 -10 -1 -10 4 0 6 5 11 10 11 6 0 10 -2 10 -4z m165 -5 c3 -5 1 -12
-5 -16 -5 -3 -10 1 -10 9 0 18 6 21 15 7z m506 -8 c13 -16 12 -17 -3 -4 -10 7
-18 15 -18 17 0 8 8 3 21 -13z m459 7 c0 -5 -2 -10 -4 -10 -3 0 -8 5 -11 10
-3 6 -1 10 4 10 6 0 11 -4 11 -10z m350 0 c0 -5 -2 -10 -4 -10 -3 0 -8 5 -11
10 -3 6 -1 10 4 10 6 0 11 -4 11 -10z m-1593 -14 c0 -8 -6 -12 -15 -9 -11 5
-11 7 0 14 7 5 13 9 14 9 0 0 1 -6 1 -14z m558 4 c3 -5 1 -10 -4 -10 -6 0 -11
5 -11 10 0 6 2 10 4 10 3 0 8 -4 11 -10z m710 1 c3 -5 1 -12 -5 -16 -5 -3 -10
1 -10 9 0 18 6 21 15 7z m139 -3 c-3 -4 0 -8 6 -8 6 0 8 -5 4 -11 -3 -6 -14
-9 -24 -6 -11 3 -21 -1 -24 -9 -3 -8 -11 -14 -18 -14 -7 0 -1 11 14 24 15 13
25 26 22 28 -2 3 3 5 11 5 8 0 12 -4 9 -9z m82 -29 c-2 -16 0 -32 5 -35 5 -3
9 -10 9 -17 0 -6 -6 -2 -14 8 -8 11 -11 26 -8 35 5 13 4 13 -12 1 -13 -11 -19
-12 -29 -2 -9 10 -8 11 6 6 16 -7 23 8 18 37 0 4 6 5 14 2 9 -4 13 -16 11 -35z
m-1566 -5 c0 -19 -37 -37 -46 -22 -4 6 -3 8 2 5 6 -3 16 -2 24 3 13 8 13 12 1
32 -13 21 -13 22 2 9 10 -7 17 -19 17 -27z m224 24 c-5 -8 -2 -9 10 -5 9 4 15
3 12 -2 -3 -5 -15 -11 -26 -14 -17 -4 -18 -2 -9 14 5 10 12 19 15 19 3 0 2 -5
-2 -12z m286 8 c0 -2 -7 -7 -16 -10 -8 -3 -12 -2 -9 4 6 10 25 14 25 6z m540
-18 c0 -18 -2 -20 -9 -8 -6 8 -7 18 -5 22 9 14 14 9 14 -14z m-26 -4 c3 -8 2
-12 -4 -9 -6 3 -10 10 -10 16 0 14 7 11 14 -7z m134 -4 c7 -11 11 -20 9 -20
-2 0 -12 9 -22 20 -10 11 -14 20 -9 20 5 0 15 -9 22 -20z m97 0 c-3 -5 -13 -6
-21 -3 -12 4 -13 8 -3 14 15 9 32 2 24 -11z m366 -9 c-10 -17 -41 -20 -41 -4
0 3 6 3 14 0 9 -4 16 3 20 16 3 12 8 18 11 15 4 -3 2 -16 -4 -27z m-1470 -3
c-12 -4 -19 -12 -16 -18 3 -5 1 -10 -4 -10 -16 0 -13 16 5 34 8 9 21 13 27 9
6 -4 1 -10 -12 -15z m169 16 c0 -8 -19 -13 -24 -6 -3 5 1 9 9 9 8 0 15 -2 15
-3z m50 0 c0 -8 -19 -13 -24 -6 -3 5 1 9 9 9 8 0 15 -2 15 -3z m160 -3 c0 -6
-4 -13 -10 -16 -5 -3 -10 1 -10 9 0 9 5 16 10 16 6 0 10 -4 10 -9z m95 -1 c-3
-5 -12 -10 -18 -10 -7 0 -6 4 3 10 19 12 23 12 15 0z m255 6 c0 -3 -4 -8 -10
-11 -5 -3 -10 -1 -10 4 0 6 5 11 10 11 6 0 10 -2 10 -4z m74 -5 c3 -5 -1 -14
-8 -20 -11 -9 -16 -9 -22 0 -4 8 -3 9 4 5 7 -4 12 -1 12 8 0 18 6 21 14 7z
m401 -1 c-3 -5 -14 -10 -23 -9 -14 0 -13 2 3 9 27 11 27 11 20 0z m-1345 -35
c-7 -8 -16 -15 -21 -15 -5 0 -1 8 9 18 20 22 31 19 12 -3z m1450 10 c-7 -9
-15 -13 -17 -11 -7 7 7 26 19 26 6 0 6 -6 -2 -15z m40 -6 c0 -5 -4 -9 -10 -9
-5 0 -10 7 -10 16 0 8 5 12 10 9 6 -3 10 -10 10 -16z m-893 -4 c0 -8 -4 -12
-9 -9 -5 3 -6 10 -3 15 9 13 12 11 12 -6z m923 -6 c0 -5 4 -8 8 -5 5 3 16 -4
25 -15 11 -13 13 -19 4 -19 -6 0 -1 -10 13 -21 16 -13 19 -19 8 -15 -10 3 -20
1 -23 -4 -4 -6 2 -10 12 -10 11 0 28 -7 39 -16 18 -14 18 -15 -4 -4 -13 7 -26
9 -29 6 -4 -3 -12 -1 -20 5 -9 8 -10 15 -3 24 7 8 7 16 2 19 -6 3 -15 -1 -22
-9 -16 -19 -46 -19 -54 0 -3 9 0 15 10 15 8 0 12 -4 9 -10 -3 -5 1 -10 10 -10
9 0 13 5 10 10 -3 6 1 10 9 10 9 0 16 7 16 15 0 8 -5 15 -11 15 -5 0 -8 -4 -5
-9 5 -8 -15 -8 -34 -1 -3 1 -11 3 -19 4 -8 0 -17 8 -19 16 -4 12 -3 13 10 2
13 -10 18 -9 28 3 14 17 30 20 30 4z m-979 -19 c-8 -4 -11 -15 -8 -25 4 -9 12
-13 18 -9 8 4 9 3 5 -4 -12 -20 -24 -14 -35 18 -5 17 -6 28 -1 25 5 -3 12 0
15 6 4 5 10 8 13 4 4 -3 0 -10 -7 -15z m474 10 c-3 -5 1 -10 9 -10 8 0 18 -4
21 -10 4 -7 -2 -7 -18 -1 -14 6 -29 7 -33 3 -5 -4 -2 1 5 11 14 18 26 24 16 7z
m-874 -22 c-4 -12 -13 -23 -20 -24 -6 -1 -7 0 -1 3 5 2 10 13 10 24 0 10 4 19
10 19 5 0 6 -9 1 -22z m1498 15 c-3 -19 2 -25 14 -14 10 8 14 7 14 -4 0 -17
-23 -20 -32 -5 -4 6 -12 7 -18 3 -7 -4 -6 0 2 10 14 18 22 22 20 10z m-1642
-29 c-3 -16 0 -28 9 -31 8 -3 11 -10 7 -16 -9 -15 -33 21 -26 40 3 8 0 19 -8
24 -11 7 -10 9 5 9 14 0 17 -5 13 -26z m593 16 c0 -5 -5 -10 -11 -10 -5 0 -7
5 -4 10 3 6 8 10 11 10 2 0 4 -4 4 -10z m-545 -9 c3 -5 1 -12 -5 -16 -5 -3
-10 1 -10 9 0 18 6 21 15 7z m-85 -16 c-7 -8 -18 -15 -24 -15 -6 0 -2 7 8 15
25 19 32 19 16 0z m126 -8 c1 -9 -3 -20 -8 -24 -7 -3 -8 -1 -4 5 4 7 0 12 -11
13 -11 0 -13 3 -5 6 6 2 9 9 6 15 -4 6 -1 9 6 6 7 -2 14 -12 16 -21z m918 -9
c-9 -14 -23 2 -17 18 4 12 8 13 14 3 4 -7 5 -17 3 -21z m-245 -9 c-13 -24 -14
-24 -14 5 0 14 5 22 12 19 9 -4 10 -10 2 -24z m81 21 c13 -8 13 -10 -2 -10 -9
0 -20 5 -23 10 -8 13 5 13 25 0z m395 0 c3 -5 1 -10 -4 -10 -6 0 -11 5 -11 10
0 6 2 10 4 10 3 0 8 -4 11 -10z m-959 -32 c-9 -12 -16 -19 -16 -15 0 11 24 47
28 42 2 -2 -3 -14 -12 -27z m121 26 c-3 -3 -12 -4 -19 -1 -8 3 -5 6 6 6 11 1
17 -2 13 -5z m928 -4 c3 -5 1 -10 -4 -10 -6 0 -11 5 -11 10 0 6 2 10 4 10 3 0
8 -4 11 -10z m-1355 -5 c0 -10 -45 -23 -55 -17 -5 4 3 10 20 13 17 4 31 7 33
8 1 0 2 -1 2 -4z m1213 -15 c-3 -11 -9 -17 -14 -15 -10 7 -1 35 11 35 5 0 6
-9 3 -20z m38 3 c13 -16 12 -17 -3 -4 -17 13 -22 21 -14 21 2 0 10 -8 17 -17z
m44 -4 c-4 -5 -12 -9 -18 -8 -9 0 -8 2 1 6 6 2 9 10 6 15 -4 7 -2 8 5 4 6 -4
9 -12 6 -17z m-1115 -3 c0 -8 -4 -17 -8 -20 -4 -2 -8 4 -8 15 0 10 4 19 8 19
4 0 8 -6 8 -14z m184 2 c-3 -4 -9 -8 -15 -8 -5 0 -9 4 -9 8 0 5 7 9 15 9 8 0
12 -4 9 -9z m69 -3 c-3 -9 -8 -14 -10 -11 -3 3 -2 9 2 15 9 16 15 13 8 -4z
m128 -8 c-10 -9 -11 -8 -5 6 3 10 9 15 12 12 3 -3 0 -11 -7 -18z m1112 9 c4
-10 1 -13 -9 -9 -15 6 -19 23 -5 23 5 0 11 -7 14 -14z m-1530 -16 c-3 -12 -8
-19 -11 -16 -5 6 5 36 12 36 2 0 2 -9 -1 -20z m477 14 c0 -8 -19 -13 -24 -6
-3 5 1 9 9 9 8 0 15 -2 15 -3z m250 -4 c8 -5 11 -10 5 -10 -5 0 -17 5 -25 10
-8 5 -10 10 -5 10 6 0 17 -5 25 -10z m364 -6 c3 -8 2 -12 -4 -9 -6 3 -10 10
-10 16 0 14 7 11 14 -7z m120 8 c3 -5 -1 -9 -9 -9 -8 0 -12 4 -9 9 3 4 7 8 9
8 2 0 6 -4 9 -8z m33 -12 c-1 -21 -10 -18 -13 5 -1 8 2 15 6 15 5 0 8 -9 7
-20z m147 -9 c-2 -3 -12 3 -22 13 -16 17 -16 18 5 5 12 -7 20 -15 17 -18z
m-1499 0 c3 -5 2 -12 -3 -15 -5 -3 -9 1 -9 9 0 17 3 19 12 6z m1245 5 c0 -3
-4 -8 -10 -11 -5 -3 -10 -1 -10 4 0 6 5 11 10 11 6 0 10 -2 10 -4z m-707 -22
c-5 -14 -2 -14 23 2 l29 19 -25 -32 c-27 -35 -43 -43 -33 -16 4 10 2 14 -4 10
-7 -5 -9 0 -6 13 3 11 9 20 14 20 5 0 6 -7 2 -16z m752 6 c-3 -5 -14 -10 -23
-10 -15 0 -15 2 -2 10 20 13 33 13 25 0z m39 2 c3 -5 -1 -9 -9 -9 -8 0 -12 4
-9 9 3 4 7 8 9 8 2 0 6 -4 9 -8z m241 -44 c-5 -4 -11 -1 -13 7 -2 8 -7 15 -11
15 -4 0 -8 7 -8 15 0 10 6 8 21 -8 13 -14 18 -25 11 -29z m10 42 c3 -5 1 -10
-4 -10 -6 0 -11 5 -11 10 0 6 2 10 4 10 3 0 8 -4 11 -10z m-60 -10 c3 -5 -1
-10 -10 -10 -9 0 -13 5 -10 10 3 6 8 10 10 10 2 0 7 -4 10 -10z m-1505 -16 c0
-8 -5 -12 -10 -9 -6 4 -8 11 -5 16 9 14 15 11 15 -7z m1227 10 c-3 -3 -2 -17
3 -30 6 -15 6 -24 0 -24 -6 0 -10 5 -10 11 0 6 -9 8 -22 4 -23 -6 -23 -6 -3
11 20 16 19 16 -8 11 -31 -5 -24 8 8 16 31 7 39 8 32 1z m-222 -40 c9 -15 12
-23 6 -20 -11 7 -35 46 -28 46 3 0 12 -12 22 -26z m146 9 c13 -16 12 -17 -3
-4 -10 7 -18 15 -18 17 0 8 8 3 21 -13z m359 6 c0 -5 -4 -7 -10 -4 -5 3 -10 2
-10 -4 0 -5 5 -13 10 -16 6 -3 10 -11 10 -18 0 -8 -3 -8 -11 0 -6 6 -19 9 -28
6 -10 -3 -12 -2 -5 4 6 4 13 16 17 26 7 18 27 24 27 6z m96 -1 c4 -7 3 -8 -4
-4 -11 6 -16 -6 -13 -26 0 -5 -4 -8 -10 -8 -5 0 -7 -4 -4 -10 3 -5 0 -10 -8
-10 -27 0 -27 14 1 41 32 33 29 32 38 17z m-306 -2 c0 -2 -7 -7 -16 -10 -8 -3
-12 -2 -9 4 6 10 25 14 25 6z m-1335 -36 c-3 -5 -13 -10 -20 -10 -8 0 -12 -6
-9 -14 3 -8 0 -17 -7 -22 -7 -4 -10 -3 -6 2 3 6 2 16 -4 24 -6 10 -9 11 -9 3
0 -7 -5 -13 -11 -13 -8 0 -8 5 1 15 7 8 15 13 19 11 3 -2 15 0 26 5 27 10 27
10 20 -1z m311 -15 c-9 -9 -16 -13 -16 -8 0 5 5 14 12 21 6 6 14 10 16 7 2 -2
-3 -11 -12 -20z m78 17 c3 -5 -1 -9 -9 -9 -8 0 -12 4 -9 9 3 4 7 8 9 8 2 0 6
-4 9 -8z m932 -4 c3 -4 -1 -5 -10 -4 -8 1 -18 5 -22 8 -3 4 1 5 10 4 8 -1 18
-5 22 -8z m-1260 -10 c4 -7 3 -8 -4 -4 -7 4 -13 2 -13 -3 -3 -26 -4 -30 -11
-35 -5 -3 -6 -3 -3 1 3 3 0 12 -6 20 -9 10 -8 13 0 13 7 0 9 5 6 10 -3 6 1 10
9 10 8 0 18 -5 22 -12z m83 -9 c-19 -12 -39 -11 -39 1 0 5 7 7 15 4 8 -4 15
-1 15 6 0 6 5 8 11 4 8 -4 7 -9 -2 -15z m311 17 c0 -2 -7 -7 -16 -10 -8 -3
-12 -2 -9 4 6 10 25 14 25 6z m120 -11 c0 -8 -4 -15 -9 -15 -13 0 -22 16 -14
24 11 11 23 6 23 -9z m1100 5 c0 -5 -4 -10 -10 -10 -5 0 -10 5 -10 10 0 6 5
10 10 10 6 0 10 -4 10 -10z m-1149 -14 c-10 -11 -8 -16 9 -21 11 -3 17 -11 14
-17 -4 -6 -10 -5 -15 3 -7 11 -9 10 -9 -3 0 -10 -4 -18 -9 -18 -5 0 -7 10 -3
22 3 14 1 19 -6 14 -6 -3 -14 -1 -18 5 -4 7 -3 9 3 6 6 -4 16 0 23 8 7 8 15
15 17 15 3 0 0 -6 -6 -14z m515 -12 c0 -20 -11 -25 -11 -6 0 4 -3 12 -7 18 -4
6 -1 11 5 11 7 0 13 -11 13 -23z m-233 3 c8 5 8 2 0 -9 -11 -12 -9 -18 6 -32
11 -10 24 -15 29 -12 5 3 16 -2 23 -12 11 -14 11 -15 0 -5 -7 6 -19 9 -27 6
-18 -7 -63 47 -56 66 4 10 7 11 10 3 2 -7 9 -9 15 -5z m737 6 c0 -5 -7 -16
-15 -27 -13 -17 -15 -17 -30 -3 -9 10 -11 18 -5 22 5 3 10 1 10 -4 0 -6 5 -11
11 -11 6 0 9 7 5 15 -3 9 0 15 9 15 8 0 15 -3 15 -7z m-1121 -14 c7 11 11 10
20 -7 14 -26 14 -32 1 -32 -5 0 -9 6 -7 12 1 8 -9 12 -30 11 -26 -1 -30 1 -20
12 9 9 14 10 20 1 5 -8 9 -7 16 3z m298 -11 c-3 -8 -6 -5 -6 6 -1 11 2 17 5
13 3 -3 4 -12 1 -19z m898 -28 c-2 -30 9 -41 18 -17 3 6 4 2 4 -10 -1 -13 -5
-23 -9 -23 -4 0 -4 -7 -1 -17 4 -11 3 -14 -6 -9 -7 5 -10 14 -7 22 3 7 1 16
-5 19 -5 4 -7 11 -4 16 6 8 -8 13 -30 10 -5 -1 -2 5 9 13 11 10 16 21 12 32
-5 13 -4 14 7 6 8 -7 13 -25 12 -42z m-1041 28 c-5 -7 -2 -9 8 -6 13 5 14 3 4
-18 -15 -32 -21 -30 -23 6 -1 17 2 30 8 30 6 0 7 -5 3 -12z m886 -3 c-7 -8
-17 -15 -23 -15 -6 0 -2 7 9 15 25 19 30 19 14 0z m-1501 -6 c19 11 51 -3 37
-16 -5 -4 -11 -2 -13 5 -4 9 -11 6 -24 -9 -10 -12 -19 -17 -19 -11 0 6 -2 16
-3 24 -2 7 -2 10 0 6 3 -5 12 -4 22 1z m1021 1 c0 -5 8 -7 18 -3 14 5 15 3 4
-8 -10 -11 -15 -10 -29 4 -11 11 -13 17 -5 17 7 0 12 -4 12 -10z m109 -8 c7
-14 6 -19 -4 -19 -8 0 -11 7 -7 15 4 11 1 14 -12 9 -10 -4 -15 -3 -11 3 9 15
23 12 34 -8z m399 -4 c-2 -7 3 -12 10 -10 6 1 12 -5 12 -15 0 -14 -2 -14 -20
2 -11 10 -17 22 -14 26 8 13 14 11 12 -3z m187 3 c3 -5 2 -12 -3 -15 -5 -3 -9
1 -9 9 0 17 3 19 12 6z m-1527 -27 c-12 -12 -17 -13 -23 -3 -5 8 -4 10 4 5 6
-4 14 0 17 9 4 9 9 13 12 10 3 -3 -1 -13 -10 -21z m189 20 c-3 -3 -12 -4 -19
-1 -8 3 -5 6 6 6 11 1 17 -2 13 -5z m80 0 c-3 -3 -12 -4 -19 -1 -8 3 -5 6 6 6
11 1 17 -2 13 -5z m316 -11 c-3 -7 -6 -13 -8 -13 -2 0 -5 6 -8 13 -3 8 1 14 8
14 7 0 11 -6 8 -14z m-748 -3 c3 -5 -1 -10 -10 -10 -9 0 -13 5 -10 10 3 6 8
10 10 10 2 0 7 -4 10 -10z m90 -2 c4 -3 2 -9 -3 -12 -5 -3 -15 1 -21 8 -10 11
-9 14 3 12 9 -1 18 -5 21 -8z m301 -13 c1 -9 -4 -11 -14 -7 -10 4 -12 7 -4 10
7 2 9 9 5 15 -3 7 -2 8 2 4 5 -4 10 -14 11 -22z m-61 5 c3 -5 1 -10 -4 -10 -6
0 -11 5 -11 10 0 6 2 10 4 10 3 0 8 -4 11 -10z m125 -16 c0 10 30 -13 30 -24
0 -4 -7 -11 -16 -14 -12 -5 -14 -1 -8 17 3 12 3 19 -1 15 -10 -9 -35 10 -35
25 0 6 7 2 15 -9 8 -10 15 -15 15 -10z m1027 4 c-3 -8 -6 -5 -6 6 -1 11 2 17
5 13 3 -3 4 -12 1 -19z m-1450 -12 c-15 -22 -15 -25 0 -38 15 -11 16 -11 10 4
-4 13 -2 15 11 11 15 -6 15 -5 3 10 -12 15 -12 17 3 11 21 -8 20 -24 -1 -40
-15 -11 -22 -9 -42 9 l-24 22 12 -22 c10 -19 9 -22 -4 -17 -9 4 -13 9 -11 12
3 3 2 10 -4 16 -5 7 -5 17 1 26 7 12 11 12 17 2 7 -10 11 -10 22 3 20 24 24
18 7 -9z m803 9 c0 -2 -6 -5 -13 -8 -8 -3 -14 1 -14 8 0 7 6 11 14 8 7 -3 13
-6 13 -8z m91 -8 c-10 -9 -11 -8 -5 6 3 10 9 15 12 12 3 -3 0 -11 -7 -18z m36
17 c-7 -7 15 -34 23 -29 4 2 12 -5 18 -16 12 -18 11 -19 -7 -10 -11 6 -23 16
-26 21 -4 6 -10 8 -15 5 -4 -3 -7 3 -5 12 5 24 4 23 12 23 3 0 4 -3 0 -6z
m108 -4 c3 -5 1 -10 -4 -10 -6 0 -11 5 -11 10 0 6 2 10 4 10 3 0 8 -4 11 -10z
m279 2 c3 -5 -1 -9 -9 -9 -8 0 -12 4 -9 9 3 4 7 8 9 8 2 0 6 -4 9 -8z m226 1
c-8 -4 -20 -13 -27 -22 -13 -17 -16 -12 -7 13 3 9 16 16 28 15 15 0 16 -2 6
-6z m127 -33 c2 -13 -1 -19 -8 -15 -6 4 -8 13 -5 20 2 7 0 18 -5 24 -6 8 -5 8
3 1 6 -5 13 -19 15 -30z m-1462 20 c9 8 15 8 20 0 4 -6 1 -9 -7 -8 -7 2 -12
-3 -10 -11 3 -12 0 -12 -12 -1 -9 7 -16 18 -15 24 0 6 3 6 6 -2 4 -9 8 -10 18
-2z m85 -5 c0 -2 -9 -3 -19 -2 -11 0 -18 5 -15 9 4 6 34 0 34 -7z m1065 5 c3
-6 -1 -7 -9 -4 -18 7 -21 14 -7 14 6 0 13 -4 16 -10z m-845 -4 c0 -3 -4 -8
-10 -11 -5 -3 -10 -1 -10 4 0 6 5 11 10 11 6 0 10 -2 10 -4z m164 -10 c-18
-14 -18 -15 -2 -21 10 -4 16 -11 13 -15 -3 -5 -1 -11 5 -15 5 -3 10 -1 10 6 0
16 13 3 16 -16 1 -9 -4 -11 -14 -8 -11 5 -13 3 -7 -7 5 -9 4 -11 -4 -6 -6 4
-14 0 -17 -8 -8 -20 -21 -20 -39 -2 -12 12 -12 15 1 20 8 3 12 2 9 -4 -9 -14
8 -12 28 3 15 11 14 14 -3 36 -12 13 -26 21 -35 17 -8 -3 -15 -1 -15 4 0 6 9
10 19 10 11 0 23 5 26 10 3 6 11 10 18 10 6 0 2 -6 -9 -14z m329 -3 c-4 -10
-2 -14 4 -10 5 3 10 0 10 -7 0 -7 -6 -13 -13 -13 -7 0 -11 4 -8 9 3 4 0 8 -7
8 -8 0 -8 4 1 15 16 20 21 19 13 -2z m128 4 c-6 -8 -9 -16 -6 -18 2 -3 -5 -5
-16 -6 -19 -2 -18 -1 3 17 27 23 35 25 19 7z m341 6 c-6 -2 -10 -9 -7 -13 3
-5 0 -12 -6 -16 -8 -4 -9 -3 -5 4 4 7 1 12 -6 12 -9 0 -9 3 2 10 8 5 20 9 25
9 6 0 4 -3 -3 -6z m108 -24 c7 -12 6 -20 -2 -25 -6 -4 -8 -3 -4 4 3 6 -4 20
-16 32 -17 16 -19 20 -5 14 10 -3 22 -15 27 -25z m-1409 -11 c-10 -11 -11 -9
-5 5 5 15 3 16 -19 8 -27 -11 -68 -11 -62 0 3 3 18 6 36 7 17 0 34 3 37 7 3 3
10 1 16 -5 7 -7 6 -14 -3 -22z m383 20 c-5 -8 -2 -9 9 -5 23 9 21 0 -2 -13
-16 -8 -19 -7 -16 8 5 23 4 22 11 22 3 0 2 -5 -2 -12z m270 -3 c3 -9 0 -15 -9
-15 -9 0 -12 6 -9 15 4 8 7 15 9 15 2 0 5 -7 9 -15z m446 5 c-8 -5 -18 -6 -22
-4 -4 3 -8 0 -8 -6 0 -6 -4 -8 -10 -5 -5 3 -10 1 -10 -5 0 -6 -5 -8 -11 -4
-14 8 21 29 53 31 17 2 19 0 8 -7z m55 -12 c-9 -6 -19 -7 -22 -4 -4 3 -1 6 6
6 7 0 9 4 6 10 -4 6 1 7 11 3 15 -6 15 -7 -1 -15z m-448 -3 c4 -4 3 -5 -4 -2
-6 4 -13 2 -15 -5 -3 -8 -6 -6 -10 4 -7 17 15 19 29 3z m167 0 c3 -8 1 -15 -4
-15 -6 0 -10 7 -10 15 0 8 2 15 4 15 2 0 6 -7 10 -15z m340 7 c2 -4 -5 -9 -17
-9 -17 -2 -19 0 -7 7 18 12 18 12 24 2z m-628 -14 c4 -7 3 -8 -4 -4 -7 4 -12
2 -12 -5 0 -7 -3 -10 -6 -6 -6 5 3 27 11 27 2 0 7 -5 11 -12z m401 -1 c0 -8
-6 -14 -14 -14 -9 0 -10 4 -2 14 6 7 12 13 14 13 1 0 2 -6 2 -13z m128 -8 c-4
-5 -1 -9 6 -9 7 0 10 -3 6 -6 -3 -3 -14 -1 -24 5 -11 6 -13 11 -5 11 7 0 10 5
6 12 -4 7 -3 8 5 4 6 -4 9 -12 6 -17z m-1237 -1 c-14 -11 -15 -14 -1 -35 8
-12 20 -20 26 -16 5 3 7 1 3 -5 -3 -6 2 -13 11 -15 15 -4 -3 -4 -49 2 -3 1 -5
9 -3 19 1 9 -2 22 -7 29 -6 7 -3 15 9 22 24 14 32 13 11 -1z m181 -2 c9 -11 9
-16 -1 -22 -7 -4 -10 -4 -6 1 4 4 3 14 -3 22 -6 7 -9 13 -6 13 2 0 10 -6 16
-14z m418 -8 c-3 -8 -6 -5 -6 6 -1 11 2 17 5 13 3 -3 4 -12 1 -19z m321 -2
c-13 -12 -49 -26 -44 -18 3 5 -1 13 -10 16 -11 4 -15 2 -11 -8 7 -17 -19 -30
-29 -14 -4 6 -3 8 3 5 6 -4 13 3 16 14 5 17 9 19 26 10 28 -16 36 -14 20 6
-13 15 -12 15 9 4 13 -7 22 -14 20 -15z m247 -5 c-3 -2 -11 1 -18 7 -8 7 -18
8 -22 4 -5 -4 -5 -1 -1 5 5 10 11 10 26 1 11 -7 17 -14 15 -17z m-765 -9 c10
-22 10 -23 -6 -14 -9 5 -24 8 -33 7 -9 -1 -10 0 -3 2 7 3 9 9 6 15 -4 7 -2 8
4 4 7 -4 12 -2 12 5 0 15 3 11 20 -19z m100 11 c0 -3 -7 -3 -15 1 -8 3 -15 2
-15 -2 0 -5 -7 -17 -15 -28 -14 -17 -14 -16 0 13 10 22 20 30 30 27 8 -4 15
-8 15 -11z m811 -1 c-7 -2 -18 1 -23 6 -8 8 -4 9 13 5 13 -4 18 -8 10 -11z
m264 -7 c-1 -14 -6 -29 -10 -33 -5 -4 -5 1 -2 10 3 10 2 20 -4 23 -5 4 -8 1
-7 -6 2 -7 -4 -14 -13 -16 -9 -2 -16 3 -16 11 0 8 4 13 8 11 3 -3 12 2 19 10
19 22 29 18 25 -10z m-1029 -4 c0 -16 -3 -18 -20 -9 -20 11 -20 11 -1 19 11 4
20 8 20 8 1 1 1 -8 1 -18z m484 15 c0 -2 -7 -7 -16 -10 -8 -3 -12 -2 -9 4 6
10 25 14 25 6z m-1080 -16 c0 -5 -4 -10 -10 -10 -5 0 -10 5 -10 10 0 6 5 10
10 10 6 0 10 -4 10 -10z m1010 0 c0 -5 -4 -10 -10 -10 -5 0 -10 5 -10 10 0 6
5 10 10 10 6 0 10 -4 10 -10z m178 -15 c-3 -3 -9 2 -12 12 -6 14 -5 15 5 6 7
-7 10 -15 7 -18z m70 17 c11 8 10 4 -3 -11 -18 -22 -18 -24 -2 -18 15 6 16 4
7 -13 -6 -11 -13 -20 -16 -20 -3 0 -2 5 1 10 3 6 0 13 -8 16 -10 3 -13 13 -9
27 3 12 7 16 10 9 3 -10 7 -10 20 0z m100 -18 c2 -1 -1 -5 -7 -8 -5 -4 -15 4
-22 16 -12 22 -11 22 7 8 10 -8 20 -15 22 -16z m38 2 c0 -17 -4 -22 -15 -18
-9 3 -11 7 -4 9 7 3 9 11 6 19 -3 8 -1 14 4 14 5 0 9 -11 9 -24z m-1242 -10
c-7 -17 -28 -18 -22 -1 2 6 6 9 11 8 4 -2 7 2 7 9 0 6 2 9 5 6 3 -3 3 -13 -1
-22z m1140 8 c3 -8 2 -12 -4 -9 -6 3 -10 10 -10 16 0 14 7 11 14 -7z m-756
-29 c-6 -14 -15 -25 -20 -25 -5 0 -2 10 7 23 8 13 12 27 8 32 -5 4 -3 5 4 1 9
-5 10 -13 1 -31z m297 17 c-3 -3 -11 0 -18 7 -9 10 -8 11 6 5 10 -3 15 -9 12
-12z m252 12 c-3 -3 -12 -4 -19 -1 -8 3 -5 6 6 6 11 1 17 -2 13 -5z m83 2 c0
-2 -6 -9 -14 -15 -11 -9 -16 -9 -22 0 -4 7 -3 9 4 5 6 -3 13 -2 17 4 6 10 15
14 15 6z m-1240 -43 c0 -11 -3 -11 -13 -1 -19 17 -19 42 0 27 7 -6 13 -18 13
-26z m357 13 c-4 -9 -13 -13 -21 -10 -12 5 -14 -2 -11 -35 2 -23 -1 -41 -6
-41 -6 0 -8 4 -4 9 3 5 1 12 -5 16 -6 4 -7 12 -3 18 4 7 8 19 8 27 0 8 8 14
18 14 9 -1 17 5 17 14 0 8 3 13 6 9 4 -3 4 -13 1 -21z m23 -7 c-6 -10 -13 -19
-16 -19 -2 0 0 8 5 19 6 10 7 22 3 26 -4 5 -1 5 6 1 9 -5 9 -12 2 -27z m280
21 c8 -5 11 -10 5 -10 -5 0 -17 5 -25 10 -8 5 -10 10 -5 10 6 0 17 -5 25 -10z
m140 6 c0 -2 -8 -10 -17 -17 -16 -13 -17 -12 -4 4 13 16 21 21 21 13z m277
-18 c2 -18 0 -20 -7 -8 -12 18 -13 30 -2 30 4 0 9 -10 9 -22z m460 0 c-3 -8
-6 -5 -6 6 -1 11 2 17 5 13 3 -3 4 -12 1 -19z m43 12 c0 -5 -2 -10 -4 -10 -3
0 -8 5 -11 10 -3 6 -1 10 4 10 6 0 11 -4 11 -10z m148 -6 c6 3 14 1 18 -5 4
-8 3 -9 -4 -5 -7 4 -12 2 -12 -4 0 -6 -4 -9 -9 -6 -5 3 -11 -1 -15 -9 -3 -8
-13 -15 -22 -15 -16 0 -16 1 -1 18 10 10 17 25 17 33 0 12 2 12 9 0 5 -7 13
-11 19 -7z m-678 0 c0 -11 -27 -32 -50 -38 -19 -6 -21 -5 -10 3 8 6 16 15 16
21 1 5 2 11 3 13 2 5 41 6 41 1z m245 -12 c-3 -3 -11 0 -18 7 -9 10 -8 11 6 5
10 -3 15 -9 12 -12z m313 -2 c-7 -10 -14 -18 -15 -16 -6 6 9 36 18 36 5 0 4
-9 -3 -20z m42 11 c0 -5 -7 -14 -15 -21 -10 -9 -15 -9 -15 -1 0 6 5 11 11 11
5 0 7 5 4 10 -3 6 -1 10 4 10 6 0 11 -4 11 -9z m-773 -16 c0 -8 -4 -12 -9 -9
-5 3 -6 10 -3 15 9 13 12 11 12 -6z m-580 -10 c0 -8 -4 -12 -9 -9 -5 3 -6 10
-3 15 9 13 12 11 12 -6z m399 -2 c1 -7 3 -14 4 -15 7 -8 6 -48 -2 -48 -5 0 -8
6 -7 13 3 25 -1 37 -15 37 -8 0 -16 -6 -19 -12 -2 -8 -8 -9 -13 -4 -5 5 -4 11
4 13 10 4 10 8 0 20 -10 13 -8 14 18 11 16 -1 30 -9 30 -15z m49 3 c12 -11 10
-13 -13 -13 -15 0 -21 2 -14 4 6 3 10 9 6 14 -8 14 6 11 21 -5z m245 10 c0 -2
-7 -7 -16 -10 -8 -3 -12 -2 -9 4 6 10 25 14 25 6z m-793 -28 c-3 -8 -6 -5 -6
6 -1 11 2 17 5 13 3 -3 4 -12 1 -19z m603 18 c0 -2 -7 -7 -16 -10 -8 -3 -12
-2 -9 4 6 10 25 14 25 6z m549 -16 c-13 -11 -30 -25 -37 -31 -10 -9 -17 -8
-25 1 -9 10 -9 11 2 5 11 -6 13 -4 8 8 -4 12 -2 14 10 10 10 -4 14 -2 10 4 -8
12 7 21 37 22 17 1 16 -1 -5 -19z m74 6 c12 -9 14 -16 8 -21 -6 -3 -11 -1 -11
5 0 6 -5 8 -12 4 -6 -4 -8 -3 -4 4 3 5 0 13 -6 15 -7 3 -8 6 -3 6 6 0 18 -6
28 -13z m-1296 -10 c-3 -8 -1 -16 6 -19 6 -2 2 -7 -8 -11 -11 -4 -16 -4 -12 0
4 4 1 14 -6 22 -9 13 -9 14 1 8 6 -4 12 -2 12 3 0 6 3 11 6 11 3 0 4 -6 1 -14z
m118 6 c-6 -4 -15 -18 -21 -31 -9 -21 -11 -22 -23 -7 -12 14 -12 16 4 10 14
-6 16 -3 11 12 -5 15 -1 20 16 21 13 1 18 -1 13 -5z m16 -15 c-10 -9 -11 -8
-5 6 3 10 9 15 12 12 3 -3 0 -11 -7 -18z m199 6 c0 -3 -9 -3 -20 0 -15 4 -20
0 -20 -13 0 -11 -4 -21 -8 -24 -11 -7 -9 37 2 45 9 7 46 0 46 -8z m690 2 c-7
-8 -17 -15 -23 -15 -6 0 -2 7 9 15 25 19 30 19 14 0z m48 -5 c-7 -10 -14 -17
-17 -15 -4 4 18 35 25 35 2 0 -1 -9 -8 -20z m269 13 c-4 -3 -1 -13 6 -22 11
-14 10 -14 -5 -2 -16 12 -16 31 -1 31 4 0 3 -3 0 -7z m-1080 -18 c0 -8 -4 -12
-8 -9 -4 2 -10 0 -14 -6 -3 -5 -12 -10 -18 -10 -7 1 -1 10 12 20 28 24 28 24
28 5z m530 9 c-3 -3 -12 -4 -19 -1 -8 3 -5 6 6 6 11 1 17 -2 13 -5z m330 -7
c0 -8 -6 -14 -14 -14 -9 0 -10 4 -2 14 6 7 12 13 14 13 1 0 2 -6 2 -13z m377
-2 c3 -8 1 -15 -4 -15 -6 0 -10 4 -10 9 0 5 -10 7 -22 5 -21 -4 -22 -4 -3 5
28 13 32 13 39 -4z m36 9 c0 -8 -19 -13 -24 -6 -3 5 1 9 9 9 8 0 15 -2 15 -3z
m-1179 -27 c-10 -9 -11 -8 -5 6 3 10 9 15 12 12 3 -3 0 -11 -7 -18z m259 13
c0 -5 -2 -10 -4 -10 -3 0 -8 5 -11 10 -3 6 -1 10 4 10 6 0 11 -4 11 -10z m255
-15 c0 -29 -12 -36 -40 -23 -18 8 -18 8 3 4 16 -3 22 1 22 13 0 14 8 31 14 31
1 0 1 -11 1 -25z m741 -8 c5 -8 2 -7 -9 2 -15 12 -17 11 -17 -4 0 -10 -5 -15
-14 -12 -7 3 -19 1 -25 -4 -6 -5 -9 -6 -6 -3 3 4 -1 14 -8 22 -10 13 -9 14 3
7 27 -17 42 -15 37 6 -4 15 -2 17 13 9 11 -6 22 -16 26 -23z m-678 8 c-2 -1
-12 -7 -24 -13 -16 -9 -21 -8 -21 3 0 8 4 12 8 9 4 -2 10 0 14 6 4 6 11 8 16
4 6 -3 9 -7 7 -9z m-384 -16 c-6 -11 -24 -2 -24 11 0 5 7 7 15 4 8 -4 12 -10
9 -15z m240 12 c3 -4 -4 -7 -14 -6 -27 2 -33 10 -10 12 11 1 22 -2 24 -6z
m184 -16 c-3 -3 -9 2 -12 12 -6 14 -5 15 5 6 7 -7 10 -15 7 -18z m255 18 c4
-3 0 -15 -10 -25 -9 -11 -11 -18 -5 -18 7 0 12 -5 12 -10 0 -6 -8 -5 -20 2
-11 7 -16 14 -10 16 6 2 8 8 4 13 -11 18 14 38 29 22z m104 1 c-3 -3 -12 -4
-19 -1 -8 3 -5 6 6 6 11 1 17 -2 13 -5z m-1352 -14 c3 -5 0 -7 -7 -5 -10 4
-14 -3 -14 -20 0 -19 4 -24 17 -20 10 3 20 1 24 -4 4 -7 -1 -8 -12 -4 -10 3
-15 3 -11 -1 4 -5 3 -19 -2 -32 -5 -13 -5 -26 -1 -29 15 -8 5 -40 -12 -43 -11
-2 -17 3 -17 15 0 15 2 15 10 3 5 -8 11 -12 15 -9 3 3 -5 18 -17 34 -18 23
-20 32 -11 56 9 23 9 29 -3 29 -8 0 -14 8 -13 18 0 10 3 12 6 5 2 -7 9 -13 14
-13 4 0 6 7 3 15 -7 17 21 21 31 5z m655 0 c0 -5 -4 -10 -10 -10 -5 0 -10 -5
-10 -11 0 -5 5 -7 10 -4 6 3 10 1 10 -4 0 -6 -12 -11 -27 -10 -16 0 -22 3 -14
6 11 5 11 7 0 14 -11 7 -10 9 4 9 9 0 17 5 17 10 0 6 5 10 10 10 6 0 10 -4 10
-10z m383 -5 c-3 -9 -8 -14 -10 -11 -3 3 -2 9 2 15 9 16 15 13 8 -4z m135 -10
c-3 -3 -9 2 -12 12 -6 14 -5 15 5 6 7 -7 10 -15 7 -18z m165 -8 c-3 -4 -6 -7
-7 -5 -1 2 -8 12 -16 22 -14 18 -14 18 7 6 12 -8 19 -18 16 -23z m42 5 c3 -16
0 -19 -13 -15 -9 4 -11 8 -5 10 7 3 9 12 6 21 -3 9 -3 14 1 11 4 -4 8 -16 11
-27z m-978 12 c-3 -3 -12 -4 -19 -1 -8 3 -5 6 6 6 11 1 17 -2 13 -5z m880 -9
c0 -8 -4 -12 -9 -9 -5 3 -6 10 -3 15 9 13 12 11 12 -6z m-1107 -10 c0 -8 -4
-15 -10 -15 -5 0 -7 7 -4 15 4 8 8 15 10 15 2 0 4 -7 4 -15z m47 3 c0 -7 4
-21 8 -30 4 -12 3 -18 -5 -18 -10 0 -10 -3 0 -15 7 -9 11 -18 8 -21 -3 -2 -13
7 -23 22 -9 15 -12 24 -7 20 6 -3 13 -2 17 4 3 5 2 10 -2 10 -5 0 -9 9 -10 20
-1 11 2 20 6 20 4 0 8 -6 8 -12z m354 4 c-11 -4 -11 -6 0 -14 10 -7 9 -8 -5
-4 -11 4 -23 1 -27 -6 -5 -8 -8 -6 -7 8 2 16 9 21 28 21 14 0 19 -2 11 -5z
m389 -10 c-1 -16 -27 -40 -50 -46 -18 -5 -21 -4 -11 3 8 5 16 17 17 26 3 21
14 33 14 16 0 -7 5 -9 10 -6 6 4 7 11 4 17 -4 7 -2 8 4 4 7 -4 12 -10 12 -14z
m107 12 c-3 -3 -12 -4 -19 -1 -8 3 -5 6 6 6 11 1 17 -2 13 -5z m72 -1 c14 11
14 10 2 -6 -10 -13 -17 -15 -27 -6 -8 6 -14 14 -14 17 0 3 5 1 12 -6 9 -9 15
-9 27 1z m483 -24 c-3 -23 -12 -33 -33 -41 -25 -8 -27 -12 -16 -29 11 -18 13
-18 25 -2 6 9 12 12 12 5 0 -7 7 -9 18 -5 15 6 15 4 -3 -16 -11 -13 -21 -18
-23 -11 -3 8 -9 7 -20 -2 -10 -7 -14 -8 -10 -4 4 5 -2 22 -14 39 -12 17 -17
28 -11 24 5 -3 19 0 29 9 18 14 18 15 -6 8 -14 -3 -22 -3 -18 1 4 5 3 14 -3
22 -9 10 -8 13 5 13 10 0 15 -3 12 -8 -2 -4 7 -12 20 -19 13 -6 22 -7 19 -2
-5 7 11 49 19 49 1 0 0 -14 -2 -31z m-1688 6 c3 -8 1 -15 -3 -15 -5 0 -11 7
-15 15 -3 8 -1 15 3 15 5 0 11 -7 15 -15z m349 8 c-7 -2 -13 -9 -13 -14 0 -6
4 -7 10 -4 6 4 7 -1 3 -11 -4 -10 -8 -13 -10 -7 -3 7 -11 9 -19 6 -8 -3 -14
-1 -14 4 0 15 23 33 40 32 10 0 11 -2 3 -6z m107 -8 c0 -8 -4 -15 -10 -15 -5
0 -7 7 -4 15 4 8 8 15 10 15 2 0 4 -7 4 -15z m310 -5 c-14 -9 -7 -14 13 -11
13 2 7 -8 -11 -18 -15 -8 -18 -6 -17 7 1 23 15 45 23 37 4 -3 0 -10 -8 -15z
m-579 -13 c-10 -9 -11 -8 -5 6 3 10 9 15 12 12 3 -3 0 -11 -7 -18z m393 14 c3
-5 -2 -15 -12 -22 -15 -12 -16 -12 -5 2 7 9 10 19 6 22 -3 4 -4 7 0 7 3 0 8
-4 11 -9z m691 -9 c-3 -3 -11 0 -18 7 -9 10 -8 11 6 5 10 -3 15 -9 12 -12z
m325 14 c0 -2 -7 -9 -15 -16 -13 -11 -14 -10 -9 4 5 14 24 23 24 12z m-862
-23 c-3 -19 -22 -43 -34 -43 -3 0 -1 6 5 14 10 11 8 17 -6 26 -16 10 -15 10 5
5 13 -4 22 -2 22 4 0 6 2 11 5 11 3 0 5 -8 3 -17z m119 2 c0 -8 -4 -12 -9 -9
-5 3 -6 10 -3 15 9 13 12 11 12 -6z m684 -3 c-7 -2 -18 1 -23 6 -8 8 -4 9 13
5 13 -4 18 -8 10 -11z m-1387 0 c3 -5 -1 -9 -9 -9 -8 0 -12 4 -9 9 3 4 7 8 9
8 2 0 6 -4 9 -8z m502 -7 c14 -13 14 -15 1 -15 -9 0 -17 -6 -20 -12 -2 -8 -8
-9 -13 -4 -5 5 -4 11 4 13 10 4 10 8 1 19 -16 20 7 19 27 -1z m741 1 c0 -8 -6
-12 -15 -9 -11 5 -11 7 0 14 7 5 13 9 14 9 0 0 1 -6 1 -14z m-1384 -44 c3 -17
2 -30 -3 -27 -4 3 -10 21 -12 40 -5 43 8 32 15 -13z m457 38 c0 -5 -2 -10 -4
-10 -3 0 -8 5 -11 10 -3 6 -1 10 4 10 6 0 11 -4 11 -10z m-505 -32 c1 -15 -3
-24 -7 -21 -5 2 -6 13 -3 23 4 12 0 20 -12 24 -15 4 -14 4 2 3 14 -2 20 -10
20 -29z m145 22 c0 -5 -2 -10 -4 -10 -3 0 -8 5 -11 10 -3 6 -1 10 4 10 6 0 11
-4 11 -10z m117 4 c-3 -3 -12 -4 -19 -1 -8 3 -5 6 6 6 11 1 17 -2 13 -5z m189
-6 c4 -7 3 -8 -4 -4 -8 5 -12 0 -12 -13 0 -11 -4 -22 -8 -25 -12 -7 -9 38 3
46 13 10 13 10 21 -4z m714 -3 c-7 -8 -17 -15 -23 -15 -6 0 -2 7 9 15 25 19
30 19 14 0z m48 -5 c-7 -10 -14 -17 -17 -15 -4 4 18 35 25 35 2 0 -1 -9 -8
-20z m422 -5 c0 -8 -4 -17 -10 -20 -5 -3 -7 0 -4 9 4 10 0 14 -13 12 -10 -2
-12 -1 -5 1 6 3 12 9 12 14 0 6 5 7 10 4 6 -3 10 -12 10 -20z m-1233 0 c0 -8
-4 -12 -8 -9 -4 2 -10 0 -14 -6 -8 -12 -25 -13 -25 -2 0 5 10 14 23 20 12 6
22 11 23 11 0 1 1 -6 1 -14z m863 11 c0 -2 -8 -10 -17 -17 -16 -13 -17 -12 -4
4 13 16 21 21 21 13z m153 -11 c4 -8 3 -16 -1 -19 -4 -3 -9 4 -9 15 -2 23 3
25 10 4z m-1197 -4 c-4 -5 -1 -11 6 -13 14 -5 3 -38 -13 -38 -9 0 -9 4 0 14 8
10 9 16 1 21 -10 6 -5 25 6 25 3 0 3 -4 0 -9z m47 -12 c-8 -8 -13 -7 -18 2 -5
8 -4 10 3 5 7 -4 12 -2 12 5 0 7 3 9 7 6 4 -4 2 -12 -4 -18z m276 -8 c0 -10
-2 -11 -6 -3 -2 6 -11 12 -18 12 -8 0 -16 4 -19 9 -3 4 6 6 19 3 15 -2 25 -11
24 -21z m391 10 c0 7 2 10 5 8 7 -7 -6 -49 -16 -49 -5 0 -5 8 -2 17 5 13 3 15
-12 9 -11 -4 -16 -4 -12 0 4 4 1 14 -6 22 -9 11 -4 11 16 -2 19 -13 27 -15 27
-5z m75 -6 c0 -29 -12 -36 -40 -23 -18 8 -18 8 3 4 16 -3 22 1 22 13 0 14 8
31 14 31 1 0 1 -11 1 -25z m95 21 c0 -3 -4 -8 -10 -11 -5 -3 -10 -1 -10 4 0 6
5 11 10 11 6 0 10 -2 10 -4z m-30 -14 c0 -5 -10 -14 -23 -19 -19 -9 -24 -8
-24 3 0 7 4 11 8 8 4 -2 10 0 14 6 7 12 25 13 25 2z m-380 -18 c0 -2 -7 -4
-15 -4 -8 0 -15 4 -15 10 0 5 7 7 15 4 8 -4 15 -8 15 -10z m25 6 c3 -5 1 -10
-4 -10 -6 0 -11 5 -11 10 0 6 2 10 4 10 3 0 8 -4 11 -10z m440 1 c3 -5 2 -12
-3 -15 -5 -3 -9 1 -9 9 0 17 3 19 12 6z m-865 -11 c0 -5 -2 -10 -4 -10 -3 0
-8 5 -11 10 -3 6 -1 10 4 10 6 0 11 -4 11 -10z m998 -15 c-3 -3 -9 2 -12 12
-6 14 -5 15 5 6 7 -7 10 -15 7 -18z m-771 9 c-3 -3 -12 -4 -19 -1 -8 3 -5 6 6
6 11 1 17 -2 13 -5z m-177 -8 c0 -3 -4 -8 -10 -11 -5 -3 -10 -1 -10 4 0 6 5
11 10 11 6 0 10 -2 10 -4z"/>
<path d="M64 1255 c3 -23 12 -26 13 -5 1 11 -2 20 -7 20 -4 0 -7 -7 -6 -15z"/>
<path d="M1603 695 c0 -8 4 -12 9 -9 5 3 6 10 3 15 -9 13 -12 11 -12 -6z"/>
<path d="M1370 169 c0 -5 5 -7 10 -4 6 3 10 8 10 11 0 2 -4 4 -10 4 -5 0 -10
-5 -10 -11z"/>
<path d="M113 90 c1 -11 5 -20 10 -20 5 0 7 6 4 14 -3 8 -1 17 6 20 7 2 5 5
-5 5 -11 1 -16 -6 -15 -19z"/>
<path d="M20 180 c0 -11 4 -20 9 -20 6 0 9 9 8 20 -1 11 -5 20 -9 20 -4 0 -8
-9 -8 -20z"/>
</g>
</svg>
