<svg width="16" height="16" fill="none" xmlns="http://www.w3.org/2000/svg"><path d="M7.6.003C6.314.018 3.554.229 2.01 1.646.863 2.784.462 4.466.415 6.546c-.04 2.074-.087 5.968 3.666 7.028v1.614s-.024.646.403.779c.526.166.826-.33 1.326-.865l.932-1.054c2.568.213 4.534-.279 4.76-.352.522-.166 3.456-.541 3.936-4.435.492-4.02-.24-6.554-1.56-7.7h-.008c-.399-.367-2-1.534-5.578-1.547 0 0-.266-.018-.693-.01zm.043 1.13c.365-.002.586.013.586.013 3.029.008 4.474.92 4.815 1.227 1.112.953 1.685 3.237 1.266 6.594-.399 3.255-2.779 3.46-3.22 3.601-.187.06-1.919.487-4.1.347 0 0-1.626 1.96-2.134 2.466-.08.088-.174.114-.234.101-.086-.02-.112-.127-.107-.273l.015-2.68c-3.182-.88-2.995-4.2-2.96-5.935.038-1.734.364-3.153 1.333-4.114C4.207 1.3 6.55 1.14 7.643 1.133zm.24 1.734a.199.199 0 00-.2.198.2.2 0 00.2.2 3.756 3.756 0 012.688 1.06c.726.706 1.08 1.654 1.094 2.894 0 .11.088.2.2.2v-.008a.2.2 0 00.2-.198 4.31 4.31 0 00-1.208-3.174c-.791-.774-1.794-1.172-2.974-1.172zm-2.635.459a.626.626 0 00-.41.08h-.01c-.286.168-.543.38-.763.628-.182.21-.281.424-.307.63a.852.852 0 00.031.362l.013.008c.206.604.474 1.185.802 1.732.423.768.943 1.479 1.547 2.114l.018.026.029.021.018.021.02.018c.638.606 1.35 1.129 2.12 1.555.88.479 1.415.705 1.735.8v.004c.094.029.18.042.266.042.273-.02.531-.131.734-.315.247-.22.457-.479.62-.766v-.005c.154-.289.102-.562-.12-.747a9.235 9.235 0 00-1.432-1.029c-.341-.185-.688-.073-.828.115l-.3.377c-.153.188-.432.162-.432.162l-.008.005c-2.08-.532-2.636-2.638-2.636-2.638s-.026-.287.167-.433l.375-.302c.18-.146.304-.492.112-.833a8.997 8.997 0 00-1.026-1.433.57.57 0 00-.336-.2zm2.981.594c-.265 0-.265.4.003.4a2.513 2.513 0 011.765.766 2.33 2.33 0 01.6 1.714.202.202 0 00.2.198l.008.01a.202.202 0 00.2-.2c.018-.795-.229-1.461-.713-1.995-.487-.534-1.167-.834-2.034-.893h-.029zm.329 1.078c-.274-.008-.284.4-.013.409.659.034.979.367 1.02 1.052a.199.199 0 00.199.195h.008a.201.201 0 00.192-.213c-.047-.893-.534-1.396-1.398-1.443h-.008z" fill="red"/></svg>